<svg xmlns="http://www.w3.org/2000/svg" width="81.121" height="79.007" viewBox="0 0 81.121 79.007">
  <g id="avoid-dirstibution" transform="translate(0 0)">
    <g id="Group_272" data-name="Group 272">
      <path id="Path_489" data-name="Path 489" d="M31.41,65c-.31-.01-1.65.14-1.96.14-.75-.02-1.53-.04-2.27-.13a17.357,17.357,0,0,1-10.74-5.449c-.17-.181-.34-.361-.51-.551l-.35-.359H11.39l-.03.389-.01.17a3.749,3.749,0,0,0-.03.48v3.62c.01,1.23-.58,1.82-1.85,1.85-.3.01-.6.01-.9.01H4.64c-.84,0-1.68,0-2.52-.01a4.742,4.742,0,0,1-.65-.05l-.17-.03a1.289,1.289,0,0,1-1.21-1.05.338.338,0,0,0-.09-.19v-.51l.03-.05c.04-.08.09-.16.13-.24a1.729,1.729,0,0,1,1.67-.819h6.5V35.265H1.8a1.6,1.6,0,0,1-1.75-1.11A.375.375,0,0,0,0,34.046v-.5l.06-.11a3.554,3.554,0,0,1,.2-.39,1.19,1.19,0,0,1,.96-.621,4.912,4.912,0,0,1,.52-.029H6.21c1.13,0,2.25-.01,3.38-.01h.02c.78,0,1.22.21,1.45.719a3.187,3.187,0,0,1,.24,1.14c.03.531.02,1.061.02,1.63,0,.23-.01.471-.01.71v.421h4.41l.12-.191.03-.05c.07-.1.13-.2.21-.3a16.02,16.02,0,0,1,2.49-2.38,19.268,19.268,0,0,0,2.53,1.761,14.324,14.324,0,0,0-3.61,3.43,1.529,1.529,0,0,1-1.3.64H11.35V55.675h3.03c.47,0,.94,0,1.41-.01h.05a2.154,2.154,0,0,1,1.87.93,14.216,14.216,0,0,0,7.89,5.19c.08.021.15.041.23.06a3.479,3.479,0,0,0,1.06.19c.1,0,1.47.05,1.57.041Z"/>
      <path id="Path_490" data-name="Path 490" d="M52.35,30.5l-3,2.871H45.29a17.88,17.88,0,0,0,1.99-2.09c.22-.261.43-.52.64-.781Z"/>
      <path id="Path_491" data-name="Path 491" d="M45.97,79.007a1.446,1.446,0,0,1-.745-.237,4.047,4.047,0,0,1-.719-.6q-6.115-6.1-12.222-12.22c-.132-.131-.255-.277-.386-.431-.059-.069-.118-.139-.178-.208l-.02-.022-4.056-4.031-.362-.341c-.229-.215-.436-.409-.641-.608s-.429-.425-.644-.64l-.257-.258a1.555,1.555,0,0,1-.075-2.2c.021-.022.043-.044.065-.065.114-.117.227-.23.34-.343l.224-.225,2.676-2.669.689-.755c1.174.818,1.954,1.4,2.428,1.723-.116.1-.833.854-.962.975A19.8,19.8,0,0,0,29.092,58l-.177.284,17.01,17.01L77.4,43.807l-.3-.3c-3.643-3.642-7.313-7.311-10.968-10.968l-5.751-5.752-.88.881q-9.1,9.108-18.287,18.3c-.136.137-.954.905-1.09,1.042a16.6,16.6,0,0,1-2.794-1.687l.922-.9L48.594,34.085l3.878-3.7.194-.182c.111-.1.223-.208.331-.316l1.325-1.331q2.276-2.277,4.558-4.55a5.01,5.01,0,0,1,.787-.659,1.337,1.337,0,0,1,.736-.24,1.371,1.371,0,0,1,.756.252,4.264,4.264,0,0,1,.673.548q9.2,9.191,18.389,18.387a7.762,7.762,0,0,1,.593.688,1.278,1.278,0,0,1,.049,1.6,3.764,3.764,0,0,1-.559.649Q63.845,61.7,47.374,78.159a5.752,5.752,0,0,1-.675.582,1.212,1.212,0,0,1-.73.262Z" fill="#ec7601"/>
      <path id="Path_492" data-name="Path 492" d="M1.906,57.67A1.823,1.823,0,0,1,.4,56.892a5.772,5.772,0,0,1-.307-.506L0,56.226v-.908l.017-.034C.064,55.19.11,55.1.158,55a1.836,1.836,0,0,1,1.749-1.138h.024a1.813,1.813,0,0,1,1.74,1.17A1.89,1.89,0,0,1,2.887,57.4a1.951,1.951,0,0,1-.982.269Z" fill="#ec7601"/>
      <path id="Path_493" data-name="Path 493" d="M56.476,54.388a1.4,1.4,0,0,1-1.186-2.067,2.91,2.91,0,0,1,.47-.6q2.871-2.877,5.745-5.75,2.554-2.554,5.108-5.111a1.733,1.733,0,0,1,1.232-.647,1.423,1.423,0,0,1,.291.03,1.522,1.522,0,0,1,1.22,1.355c-.025.072-.049.144-.073.217a3.086,3.086,0,0,1-.229.57,3.769,3.769,0,0,1-.589.714q-4.735,4.746-9.481,9.484L57.95,53.617a2.194,2.194,0,0,1-1.1.731,1.951,1.951,0,0,1-.373.039Z" fill="#ec7601"/>
      <path id="Path_494" data-name="Path 494" d="M51.179,49.139a1.481,1.481,0,0,1-1.213-.807,1.371,1.371,0,0,1,.072-1.353,3.331,3.331,0,0,1,.444-.547q1.6-1.6,3.2-3.2l1.989-1.99a1.776,1.776,0,0,1,1.237-.644,1.478,1.478,0,0,1,.537.108,1.427,1.427,0,0,1,.821.85,1.382,1.382,0,0,1-.123,1.172,3.321,3.321,0,0,1-.529.658Q56.38,44.624,55.14,45.86q-1.273,1.273-2.544,2.55a2.1,2.1,0,0,1-1.418.73Z" fill="#ec7601"/>
      <path id="Path_495" data-name="Path 495" d="M44.695,59.444a11.521,11.521,0,0,1-2.571-.391l-.4-.091a28.254,28.254,0,0,1-7.938-3.107c-.31-.178-.624-.344-.928-.5l-.433-.229-3.063-2.178-.033-.025-.322-.323c-.278-.278-.545-.544-.805-.816a1.194,1.194,0,0,1-.305-.927,1.417,1.417,0,0,1,1.421-1.327,1.475,1.475,0,0,1,.777.227,7.433,7.433,0,0,1,.775.594,26.735,26.735,0,0,0,4.668,3.211,27.86,27.86,0,0,0,8.451,2.914,3.689,3.689,0,0,0,.629.058,2.561,2.561,0,0,0,1.253-.314,2.437,2.437,0,0,0,1.314-2.411,2.552,2.552,0,0,0-1.737-2.17,4.773,4.773,0,0,0-.764-.183A21.346,21.346,0,0,1,39.756,50a22.157,22.157,0,0,1-8.116-6.021,10.557,10.557,0,0,1-1.1-1.476,1.319,1.319,0,0,1,.226-1.615,1.4,1.4,0,0,1,.985-.471,1.444,1.444,0,0,1,.643.168,2.79,2.79,0,0,1,.707.633l.111.122c.234.256.465.528.687.791.286.338.582.688.9,1.017a13.826,13.826,0,0,0,2.263,1.976,16.061,16.061,0,0,0,3.65,2.1.71.71,0,0,0,.159.1,18.178,18.178,0,0,0,3.333,1.1q.321.072.645.141c.424.092.862.187,1.287.292a5.2,5.2,0,0,1,3.169,2.413,5.343,5.343,0,0,1,.6,4.1,5.428,5.428,0,0,1-5.138,4.069Z"/>
      <path id="Path_496" data-name="Path 496" d="M31.5,36.193A18.126,18.126,0,0,1,13.833,14.374a1.348,1.348,0,0,1,.874-1.125,1.207,1.207,0,0,1,1.541.732,1.219,1.219,0,0,1,.069.432,14.728,14.728,0,0,1-.206,1.565,15.139,15.139,0,0,0,3.5,12.109,15.516,15.516,0,0,0,21.551,2.19,14.99,14.99,0,0,0,5.8-10.334A15.56,15.56,0,0,0,18.359,9.769a4.283,4.283,0,0,1-.276.416,1.236,1.236,0,0,1-1.7.331A1.175,1.175,0,0,1,15.974,8.9c.014-.024.03-.048.046-.071a25.948,25.948,0,0,1,2.193-2.929A17.347,17.347,0,0,1,27.739.443,17.532,17.532,0,0,1,43.292,4.421a17.163,17.163,0,0,1,5.993,10.491,17.6,17.6,0,0,1-3.922,14.725,17.557,17.557,0,0,1-10.474,6.177c-1.112.216-2.258.257-3.388.379" fill="#ec7601"/>
      <path id="Path_497" data-name="Path 497" d="M31.515,12.283c.23-.213.434-.392.627-.581.633-.624,1.239-1.277,1.9-1.872a1.981,1.981,0,0,1,2.8-.087c.019.018.038.036.056.055,1,.917,1.966,1.884,2.888,2.884a2.023,2.023,0,0,1,0,2.861l-.064.061c-.589.628-1.214,1.221-1.821,1.833-.193.195-.377.4-.62.654.547.548,1.073,1.071,1.6,1.6.312.314.642.614.928.951a2.188,2.188,0,0,1-.071,2.913c-.9.959-1.83,1.893-2.793,2.788a2.05,2.05,0,0,1-2.9,0l-.034-.035c-.71-.664-1.38-1.37-2.068-2.056-.117-.117-.241-.228-.4-.377-.172.146-.344.275-.5.425-.652.644-1.287,1.306-1.95,1.94a2.082,2.082,0,0,1-3.117.01q-1.358-1.292-2.65-2.653a2.071,2.071,0,0,1-.128-2.926c.041-.045.084-.087.128-.128.583-.633,1.212-1.223,1.818-1.835.191-.193.372-.4.6-.643l-1.08-1.087c-.47-.473-.96-.928-1.407-1.421a2.01,2.01,0,0,1-.04-2.841l.017-.017c.928-.995,1.9-1.956,2.887-2.887a2.023,2.023,0,0,1,2.861,0l.063.066c.635.58,1.223,1.212,1.835,1.818.194.191.4.373.632.592m-6.167,1.959a4.839,4.839,0,0,1,.485.381q1.188,1.17,2.36,2.357a1.317,1.317,0,0,1,.057,2.159c-.113.122-.235.237-.353.355-.708.707-1.418,1.413-2.121,2.124a3.883,3.883,0,0,0-.3.353l2.215,2.245c.132-.157.3-.382.492-.58.741-.752,1.485-1.5,2.24-2.241a1.318,1.318,0,0,1,1.833-.34,1.3,1.3,0,0,1,.327.322c.618.6,1.221,1.216,1.831,1.825L35.5,24.288c.771-.776,1.5-1.478,2.227-2.246-1.015-1.007-1.931-1.979-2.917-2.873a1.417,1.417,0,0,1-.178-2,1.4,1.4,0,0,1,.185-.184c.561-.5,1.068-1.054,1.6-1.585l1.161-1.164-2.092-2.286c-.21.193-.4.353-.57.526-.69.686-1.4,1.357-2.06,2.068-.87.932-1.583,1.17-2.64.021-.841-.915-1.751-1.766-2.584-2.6L25.35,14.245" fill="#ec7601"/>
    </g>
  </g>
</svg>
