<svg id="corona_icon" xmlns="http://www.w3.org/2000/svg" xmlns:xlink="http://www.w3.org/1999/xlink" width="243.519" height="166.569" viewBox="0 0 243.519 166.569">
  <defs>
    <clipPath id="clip-path">
      <rect id="Rectangle_31" data-name="Rectangle 31" width="243.519" height="166.569" fill="red"/>
    </clipPath>
  </defs>
  <g id="Group_241" data-name="Group 241" clip-path="url(#clip-path)">
    <path id="Path_102" data-name="Path 102" d="M142.986,138.28l-.68-.127.119-.382-3.119-1.3-1.674-.311-.942,7.269-1.737-.323-.408-.792c.026.2.061.412.082.614.217,2,.267,3.889.482,5.5l.721.127c.045.174.088.352.138.516l.508-.26.183-1.485-.283-.05.159-1.3a3.5,3.5,0,0,0,.656.079,7.249,7.249,0,0,0,.769-.007l.987-3.813.027-.011a7.6,7.6,0,0,0,1.364-.814l-.2,1.615,1.544.273-.17.656c.124-.005.252-.028.378-.039l-1.42,2.832c.049.058.087.127.14.182a4.171,4.171,0,0,0,.695.659l.375.319a.923.923,0,0,1,.232.108,3.954,3.954,0,0,0,.71.225l.589-4.549c.1-.024.193-.038.288-.066l1.685-5.416-1.893-1.126Z" transform="translate(12.874 13.029)" fill="red"/>
    <path id="Path_103" data-name="Path 103" d="M168.6,40.554l2.46,2.985.018-.144L169,40.508c-.129.01-.265.028-.4.046" transform="translate(16.133 3.876)" fill="red"/>
    <path id="Path_104" data-name="Path 104" d="M198.141,51.683c-.079-.051-.165-.079-.247-.123L197.6,54l.226.314,3.1,2.861.4-.049a8.432,8.432,0,0,0-.749-2.521,6.553,6.553,0,0,0-2.435-2.92" transform="translate(18.907 4.934)" fill="red"/>
    <path id="Path_105" data-name="Path 105" d="M195.184,42.278c.049-.058.1-.11.148-.175l.319-.375a.889.889,0,0,1,.11-.232,3.905,3.905,0,0,0,.323-1.539,7.465,7.465,0,0,0-.022-1.112l-.467-.431-1.935.239,1.308,3.234Z" transform="translate(18.53 3.676)" fill="red"/>
    <path id="Path_106" data-name="Path 106" d="M166.673,37.547l2.077,2.887.3-2.438a4.129,4.129,0,0,0-2.378-.449" transform="translate(15.948 3.591)" fill="red"/>
    <path id="Path_107" data-name="Path 107" d="M219.443,50.592l-.227-.314-.018.144.175.213,1.237,3.058,1.935-.239Z" transform="translate(20.974 4.811)" fill="red"/>
    <path id="Path_108" data-name="Path 108" d="M208.672,45.8l-.4.049.466.431c-.013-.159-.042-.32-.065-.48" transform="translate(19.928 4.383)" fill="red"/>
    <path id="Path_109" data-name="Path 109" d="M146.9,13.934l-.736,2.265.753.245.887-2.254a5.1,5.1,0,0,0-.9-.256" transform="translate(13.985 1.333)" fill="red"/>
    <path id="Path_110" data-name="Path 110" d="M151.536,32.121l5.615-.186a8.355,8.355,0,0,0-1.444-1.72,7.144,7.144,0,0,0-2.37-1.523l-.887,2.253L151.7,30.7l-.34,1.043.285.144Z" transform="translate(14.483 2.745)" fill="red"/>
    <path id="Path_111" data-name="Path 111" d="M143.042,21.078l.106-.234-.285-.144-.126.388Z" transform="translate(13.658 1.981)" fill="red"/>
    <path id="Path_112" data-name="Path 112" d="M50.488,33.462l-.051-.059-.142-.222-.2.408.028.021c.124-.046.241-.1.366-.147" transform="translate(4.793 3.175)" fill="red"/>
    <path id="Path_113" data-name="Path 113" d="M44.959,16.143l-.53,3.019.37-.018-.022.09,1.732-.08L46.161,15.5l-.455-.084.023-.093-2.9-.539Z" transform="translate(4.099 1.414)" fill="red"/>
    <path id="Path_114" data-name="Path 114" d="M44.149,20.085l-.386.018-.172.984.295.1Z" transform="translate(4.171 1.922)" fill="red"/>
    <path id="Path_115" data-name="Path 115" d="M42.976,20.876l.669.217.173-.983-.506.023Z" transform="translate(4.112 1.924)" fill="red"/>
    <path id="Path_116" data-name="Path 116" d="M45.347,20.85l.356,3.734,3.423,2.962a24.974,24.974,0,0,1-.584-3.387c-.13-1.2-.2-2.358-.28-3.445Z" transform="translate(4.339 1.982)" fill="red"/>
    <path id="Path_117" data-name="Path 117" d="M45.691,25.283l-.356-3.734-1.732.08-.263,1.1-.295-.1-.829,4.721,5.916,4.289,3.043,2.231.2-.408-.352-.549c-.159-.26-.335-.526-.477-.788l-.365-.779a17.261,17.261,0,0,1-1.067-3.1Z" transform="translate(4.039 2.062)" fill="red"/>
    <path id="Path_118" data-name="Path 118" d="M37.31,20.738l.1.019a7.828,7.828,0,0,0,1.264,1.961l-.033.106c.129.151.244.3.388.454a27.185,27.185,0,0,0,2.492,2.19l1.738-3.841L36.985,19.59c.007.045.007.084.015.13a5.472,5.472,0,0,0,.31,1.018" transform="translate(3.539 1.874)" fill="red"/>
    <path id="Path_119" data-name="Path 119" d="M43.959,20.269l.335-.743L44.8,19.5l.529-3.018L43.2,15.12l-4.511-.839a4.807,4.807,0,0,0-.509.695,4.378,4.378,0,0,0-.5,3.256Z" transform="translate(3.597 1.366)" fill="red"/>
    <path id="Path_120" data-name="Path 120" d="M41.629,11.939l-.162,0-1.909.371c-.071.073-.154.141-.22.216l4.511.839Z" transform="translate(3.764 1.142)" fill="red"/>
    <path id="Path_121" data-name="Path 121" d="M41.543,11.709l2.22,1.424,2.666.5-.33,1.377.469.087.348,3.658,2.915-.136c-.061-.835-.127-1.634-.237-2.361-.032-.2-.073-.366-.108-.551l-1.129-1.675-.443-.9-1.122-.013.32-1.338Z" transform="translate(3.975 1.12)" fill="red"/>
    <path id="Path_122" data-name="Path 122" d="M47.789,11.951l.443.9,1.127,1.675a7.366,7.366,0,0,0-.907-2.569Z" transform="translate(4.573 1.144)" fill="red"/>
    <path id="Path_123" data-name="Path 123" d="M42.268,27.488l.828-4.721-.669-.217-1.738,3.841c.577.465,1.175.938,1.789,1.438A19.277,19.277,0,0,1,47.1,32.757a8.159,8.159,0,0,1,.823,1.729,4.761,4.761,0,0,1,.24.78c1-.44,2.016-.84,3.044-1.218l.02-.041-3.042-2.232Z" transform="translate(3.893 2.158)" fill="red"/>
    <path id="Path_124" data-name="Path 124" d="M47.955,10.11l-.013.055,1.211.014.079.159.663.009a4.311,4.311,0,0,0-.522-.675,4.625,4.625,0,0,0-.6-.581l-.185-.376-.208-.178a.126.126,0,0,1-.027-.013l.014-.06a.932.932,0,0,1-.192-.09,3.9,3.9,0,0,0-1.539-.324,8.536,8.536,0,0,0-4.113.837,7.754,7.754,0,0,0-1.03.571l.912.585Z" transform="translate(3.97 0.769)" fill="red"/>
    <path id="Path_125" data-name="Path 125" d="M41.776,11.563l-.912-.585a6.722,6.722,0,0,0-1.159.954l1.909-.371Z" transform="translate(3.799 1.05)" fill="red"/>
    <path id="Path_126" data-name="Path 126" d="M50.066,33.615c.016-.005.032-.013.048-.02l-.028-.021Z" transform="translate(4.791 3.213)" fill="red"/>
    <path id="Path_127" data-name="Path 127" d="M122.675,144.71l2.359.438-.21.676,2.062.856a7.956,7.956,0,0,0-1.808-2.781,43.9,43.9,0,0,0-3.914-3.333l-3.729-1.15-.522,4.223,2.008.374c-.139.061-.276.127-.416.186.068.111.141.22.2.33l.365.779a19.962,19.962,0,0,1,1.569,5.877l.408.792,1.894.352.52-4.222,3.729,1.149c-.123-.1-.242-.193-.366-.294a21.28,21.28,0,0,1-4.15-4.252" transform="translate(11.187 13.34)" fill="red"/>
    <path id="Path_128" data-name="Path 128" d="M129.98,139.637l-2.062-.856-.79,2.542,2.953,1.756a5.036,5.036,0,0,0,.121-2.665,5.453,5.453,0,0,0-.221-.778" transform="translate(12.164 13.279)" fill="red"/>
    <path id="Path_129" data-name="Path 129" d="M137.9,145.352l-.508.26a5.3,5.3,0,0,0,1.022,1.978l1.687-3.365-2.018-.357Z" transform="translate(13.146 13.766)" fill="red"/>
    <path id="Path_130" data-name="Path 130" d="M126.363,141.93l-3.329-.619,3.118,1.294.065-.2-.037.28,1.675.312-1.614-.671Z" transform="translate(11.773 13.521)" fill="red"/>
    <path id="Path_131" data-name="Path 131" d="M181.669,68.578c1.046-.1,2.055-.172,3.01-.241l1.107-2.684L182.3,68.067Z" transform="translate(17.383 6.282)" fill="red"/>
    <path id="Path_132" data-name="Path 132" d="M140.288,50.527l.639-.576c-.276.066-.551.115-.826.154.068.137.121.284.187.422" transform="translate(13.406 4.78)" fill="red"/>
    <path id="Path_133" data-name="Path 133" d="M147.555,49.962c-.229.158-.438.33-.684.476a8.159,8.159,0,0,1-1.729.823,4.5,4.5,0,0,1-.711.228l-.639.576c.373.772.713,1.562,1.047,2.355l1.285.285.454-.29c.26-.16.525-.335.787-.478l.779-.365c.058-.026.119-.044.177-.07l-.013-2.7Z" transform="translate(13.759 4.781)" fill="red"/>
    <path id="Path_134" data-name="Path 134" d="M173.2,36.8l-.653,1.585.751-.52Z" transform="translate(16.51 3.521)" fill="red"/>
    <path id="Path_135" data-name="Path 135" d="M184.528,36.843a5.1,5.1,0,0,0,.511-.519l-.216-.392L183.514,32.7l-1.842.227-.2,1.589-1.3.9.187,2.052-.25.173L179,40.327c.752-.055,1.464-.118,2.131-.208l-.163-1.786a6.468,6.468,0,0,0,3.558-1.49" transform="translate(17.128 3.129)" fill="red"/>
    <path id="Path_136" data-name="Path 136" d="M157.471,65.19l.754.841.013,2.7a20.887,20.887,0,0,1,6.312-1.581c.128-.013.251-.022.377-.034l.633-.512,3.484-2.414L169.7,62.6l-.294-3.227L167.355,55.3a9.039,9.039,0,0,0-2.012,1.465,50.9,50.9,0,0,0-3.628,4.281,21.3,21.3,0,0,1-4.245,4.145" transform="translate(15.068 5.291)" fill="red"/>
    <path id="Path_137" data-name="Path 137" d="M198.015,38.548l-.175-.213-.43,3.5,1.842-.228Z" transform="translate(18.889 3.668)" fill="red"/>
    <path id="Path_138" data-name="Path 138" d="M174.248,41.572a5.651,5.651,0,0,0-1.547.563l2.049,4.077.295,3.227.534-1.3,1.063-.13.431-3.5-2.46-2.985c-.123.016-.236.02-.364.043" transform="translate(16.525 3.974)" fill="red"/>
    <path id="Path_139" data-name="Path 139" d="M170.834,29.891l-1.063.131-.535,1.3.1,1.065,1.3-.9Z" transform="translate(16.193 2.86)" fill="red"/>
    <path id="Path_140" data-name="Path 140" d="M147.189,56.12l.54-.47.319-.2-1.285-.284c.136.323.3.633.426.959" transform="translate(14.043 5.278)" fill="red"/>
    <path id="Path_141" data-name="Path 141" d="M20.548,101.862c.135-.149.272-.3.413-.444a15.05,15.05,0,0,1,2.724-2.279c.127-.083.237-.179.369-.257.185-.108.379-.213.572-.316q-.69-1.515-1.289-3.079l-.557.261c-.407.188-.826.342-1.245.494a20.068,20.068,0,0,1-3.262.867c-.669.121-1.335.221-1.983.29-.35.037-.688.065-1.029.093l-.226.021c-.208.016-.413.035-.618.05-1.379.1-2.675.175-3.818.34-.037.005-.079.008-.115.013a7.747,7.747,0,0,0-3.238,1.108,4.111,4.111,0,0,0-.557.43,4.171,4.171,0,0,0-.659.695l-.319.376a.906.906,0,0,1-.11.232,3.92,3.92,0,0,0-.323,1.539c0,.018,0,.038,0,.056a8.225,8.225,0,0,0,.2,2.2,8.373,8.373,0,0,0,.442,1.387c.065.158.118.322.193.473.02.043.045.079.065.121a7.344,7.344,0,0,0,1.179,1.78,5.375,5.375,0,0,0,1.135.976c.019.012.037.031.056.042a3.532,3.532,0,0,0,.5.25,4.775,4.775,0,0,0,2.889.233,6.387,6.387,0,0,0,2.757-1.344c.032-.025.065-.056.1-.082.233-.187.467-.378.7-.6.458-.443.914-.959,1.375-1.5.038-.046.077-.09.115-.135.685-.82,1.385-1.716,2.138-2.642.25-.3.514-.612.779-.921.206-.241.424-.478.643-.719" transform="translate(0.504 9.137)" fill="red"/>
    <path id="Path_142" data-name="Path 142" d="M103.866,5.056l.1.174-1.627,2.338.652.335-.083-.018.149.905,3.058,5.765c.316-.442.64-.867.969-1.275l-2.652-4.637,1.187.609,2.325,4.066c.019-.024.037-.051.057-.076,1.015-1.261,2.058-2.394,2.941-3.46l-.671-.345a10.328,10.328,0,0,0,.653-1.129l-.457-.1a4.087,4.087,0,0,0,.173-1.084c.007-.1.008-.2.01-.3L108.715,6.5l-.87-3.829-3.064,1.648-.08-.137-.2.288-.358.193Z" transform="translate(9.793 0.255)" fill="red"/>
    <path id="Path_143" data-name="Path 143" d="M102.128,21.458l.03-.432.2-.9c.07-.3.134-.608.219-.894l.293-.809a18.867,18.867,0,0,1,2.4-4.407L102.2,8.256l-.149-.905-.6-.125-.543.781L99.7,7.889c.084.8.181,1.616.27,2.472a19.3,19.3,0,0,1-.218,6.751,8.132,8.132,0,0,1-.641,1.8,5.947,5.947,0,0,1-.832,1.379c.882.323,1.745.683,2.6,1.055Z" transform="translate(9.404 0.691)" fill="red"/>
    <path id="Path_144" data-name="Path 144" d="M100.778,22.124l-1.249-.107c.408.178.816.352,1.219.538Z" transform="translate(9.523 2.107)" fill="red"/>
    <path id="Path_145" data-name="Path 145" d="M99.39,7.17l-.468.673.6.125Z" transform="translate(9.465 0.686)" fill="red"/>
    <path id="Path_146" data-name="Path 146" d="M117.33,6.327l-.01.09c.023-.028.043-.056.067-.084Z" transform="translate(11.226 0.605)" fill="red"/>
    <path id="Path_147" data-name="Path 147" d="M96.74,7.745l.621.13c.015.17.028.335.047.509l1.214.118.543-.781-.18-.038.288-.413.125.76.562-.808-.482-.248.927-1.332.4.685.276-.4,3.7-1.991-.005-.025a8.34,8.34,0,0,0-1.709-.836A6.647,6.647,0,0,0,99.526,2.7l-.173-.3-.764-.757A4.4,4.4,0,0,0,97.1,2.816l-.01-.056-.471-.284A6.834,6.834,0,0,0,95.6,5.856L96.66,6.4c.015.435.041.881.08,1.343" transform="translate(9.147 0.157)" fill="red"/>
    <path id="Path_148" data-name="Path 148" d="M111.178,6.816a3.453,3.453,0,0,0-.035-.655L111.1,5.67a.9.9,0,0,1-.087-.241,3.9,3.9,0,0,0-.86-1.318,8.22,8.22,0,0,0-1.766-1.467l-.02.01.871,3.831Z" transform="translate(10.369 0.253)" fill="red"/>
    <path id="Path_149" data-name="Path 149" d="M52.415,132.284c-.069-.737-.126-1.516-.16-2.311l-2.161-.879a15.91,15.91,0,0,1,.067-2.069l-.4-.15c.048-.34.118-.684.188-1.028l-.2-.2c.01-.055.015-.11.03-.167.048-.188.107-.379.163-.57-.382-.134-.757-.288-1.134-.435l.009-.3c-.574-.217-1.156-.42-1.719-.66l-.163.45a16.266,16.266,0,0,1-.774,1.745l.337.128a23.114,23.114,0,0,1-2.443,3.7l2.693-1.212,1.466.6-2.008.9c-.039.048-.077.1-.116.151-.393.49-.787.943-1.177,1.4l-.312-.239q-.552.636-1.065,1.238l-.08.916c-.105.135-.217.271-.314.4a7.045,7.045,0,0,0-1.561,3.5l.856.478a3.311,3.311,0,0,0,.041.488l.039.492a.888.888,0,0,1,.088.241,3.909,3.909,0,0,0,.86,1.317,8.531,8.531,0,0,0,3.5,2.316c.108.041.217.071.325.106l.064.066-.121.422a6.087,6.087,0,0,0,2.389.046l-.319-1.629-.01-.543.734.4.188,2.005a5.443,5.443,0,0,0,1.577-1.562,7.179,7.179,0,0,0,1.081-3.95,51.131,51.131,0,0,0-.461-5.592m-4.041,2.269.088,4.794-.025-.013-.089-4.8Z" transform="translate(3.979 11.818)" fill="red"/>
    <path id="Path_150" data-name="Path 150" d="M51.666,139.184l.031,1.741.32,1.629c.071-.015.152-.018.222-.035a3.606,3.606,0,0,0,1.16-.491l-.188-2.005Z" transform="translate(4.944 13.318)" fill="red"/>
    <path id="Path_151" data-name="Path 151" d="M140.79,102.539l.064-.128-.028-.015c-.016.047-.036.092-.053.14Z" transform="translate(13.47 9.798)" fill="red"/>
    <path id="Path_152" data-name="Path 152" d="M140.368,102.665l.1.174.072-.275-.108-.023Z" transform="translate(13.431 9.812)" fill="red"/>
    <path id="Path_153" data-name="Path 153" d="M166.466,100.076l1.052-.117-1-.533Z" transform="translate(15.928 9.514)" fill="red"/>
    <path id="Path_154" data-name="Path 154" d="M153.726,112.729l.078-.905a8.364,8.364,0,0,0-2.721-.509Z" transform="translate(14.456 10.651)" fill="red"/>
    <path id="Path_155" data-name="Path 155" d="M131.588,113.874c.226.182.453.368.674.531a7.617,7.617,0,0,0,3.136,1.515l-.059,2.214a3.731,3.731,0,0,0,1.069-.736,8.049,8.049,0,0,0,1.314-1.549c.07-.028.165-.085.247-.124l.107-3.99-2.412-1.5-.8-.065.043-.431-5.79-.465c.559.388,1.1.787,1.61,1.2.379.3.744.61,1.1.914Z" transform="translate(12.355 10.456)" fill="red"/>
    <path id="Path_156" data-name="Path 156" d="M186.659,66.525l-.321.619-.176.02,1.89,1.011.129.15a4.689,4.689,0,0,0-1.522-1.8" transform="translate(17.813 6.365)" fill="red"/>
    <path id="Path_157" data-name="Path 157" d="M162.947,101.01l-.239,2.79-.08,2.987,2.418,1.509a8.246,8.246,0,0,0,.861-1.754,6.553,6.553,0,0,0,.343-3.787,3.66,3.66,0,0,0-.232-.7l-.128-.15L164,100.893Z" transform="translate(15.561 9.654)" fill="red"/>
    <path id="Path_158" data-name="Path 158" d="M140.612,102.465c-.025-.015-.055-.027-.08-.043l-.065.128.108.023-.072.276.039.071Z" transform="translate(13.441 9.8)" fill="red"/>
    <path id="Path_159" data-name="Path 159" d="M134.816,107.022l-.03-.054-.131-.015c.053.024.108.044.161.069" transform="translate(12.884 10.234)" fill="red"/>
    <path id="Path_160" data-name="Path 160" d="M145.269,105.119l6.1-.678.056-.65-2.643-1.415c-.039,0-.073-.008-.113-.009a50.858,50.858,0,0,0-5.592.461c-.8.075-1.637.137-2.5.167l-.413.611a11.985,11.985,0,0,1-1.248-.243,9.893,9.893,0,0,1-1.347-.448l.118-.447-.1-.175.062-.124-.016,0c-.076.228-.17.447-.248.674l-.011,0,.028-.187-.039-.071-.06.228c-.066-.031-.128-.047-.2-.081a3.63,3.63,0,0,1-.505-.268l-.069.456.5.893-.014.038-.445-.8-.471,3.1c.127.028.251.062.377.092l-.286-.035.03.054a19.848,19.848,0,0,1,2.931,1.7l2.2.178-.242,2.492,3.695.3,2.411,1.5.08-2.987.239-2.791-2.45.273Zm-6.877,1.118-.02.028-1.141-2.049.011-.044Z" transform="translate(13.024 9.776)" fill="red"/>
    <path id="Path_161" data-name="Path 161" d="M172.726,91.618l-.078.905,1,.534.176-.02.322-.619c-.1-.079-.188-.16-.3-.237a5.5,5.5,0,0,0-1.117-.563" transform="translate(16.52 8.766)" fill="red"/>
    <path id="Path_162" data-name="Path 162" d="M4.589,59.776a5.952,5.952,0,0,0,1.386,1.287,5.73,5.73,0,0,0,1.741.783,7.894,7.894,0,0,0,.906.179,11.177,11.177,0,0,0,1.3.119h.013a33.472,33.472,0,0,0,4.127-.3c.474-.054.959-.108,1.452-.159a19.374,19.374,0,0,1,6.7.209c.015,0,.031,0,.047.008a9.44,9.44,0,0,1,1.458.5c.422-1.067.87-2.119,1.358-3.15-.232-.053-.47-.1-.691-.169l-.809-.294a18.986,18.986,0,0,1-4.513-2.472c-.43-.31-.846-.628-1.244-.95-.295-.237-.575-.474-.856-.712-1.31-1.109-2.495-2.2-3.616-3.026a9.377,9.377,0,0,0-2.321-1.3l-.127-.044a4.488,4.488,0,0,0-1.322-.256,4.1,4.1,0,0,0-.957.026l-.491.039a.9.9,0,0,1-.241.087,4.081,4.081,0,0,0-1.164.738c-.051.046-.1.07-.154.122a8.531,8.531,0,0,0-2.316,3.5,7.961,7.961,0,0,0-.3.989c-.011.046-.014.091-.024.137-.015.072-.021.141-.034.214a5.907,5.907,0,0,0,.014,2.447,3.657,3.657,0,0,0,.667,1.45" transform="translate(0.362 4.785)" fill="red"/>
    <path id="Path_163" data-name="Path 163" d="M141.032,61.938c-.175-.632-.357-1.262-.557-1.883-.21-.659-.428-1.315-.666-1.96-.276-.751-.592-1.48-.9-2.211l-1-.482.242-.914-.373-.2-.046.053-.011,1.177-.794,5.829,4.415,1.81c-.1-.4-.194-.813-.3-1.214" transform="translate(13.101 5.194)" fill="red"/>
    <path id="Path_164" data-name="Path 164" d="M94.294,78.884l-2,1.462,1.119.673Z" transform="translate(8.831 7.548)" fill="red"/>
    <path id="Path_165" data-name="Path 165" d="M69.024,78.6l-.127-.031,0,.014Z" transform="translate(6.592 7.518)" fill="red"/>
    <path id="Path_166" data-name="Path 166" d="M134.275,53.248l.2.044c-.126-.266-.26-.531-.39-.8l-.008.909.043.024Z" transform="translate(12.829 5.023)" fill="red"/>
    <path id="Path_167" data-name="Path 167" d="M165.544,88.48l-.253.7a21.909,21.909,0,0,1,4.81.88l1.214-5.027-.011,0Z" transform="translate(15.816 8.136)" fill="red"/>
    <path id="Path_168" data-name="Path 168" d="M80.954,36.476c-.719-.323-1.421-.695-2.114-1.093l-.551-.1-.2-.111c-.039-.025-.08-.045-.119-.07-.307-.187-.6-.4-.9-.608-.277-.194-.549-.4-.816-.611a.294.294,0,0,1-.028-.025l.077-.214c-.23-.186-.445-.4-.666-.6l-.352,2.162,4.39,1.825Z" transform="translate(7.204 3.162)" fill="red"/>
    <path id="Path_169" data-name="Path 169" d="M126.45,49.959c0,.323.024.65.033.975l5,2.739.008-.908c-.217-.439-.417-.889-.646-1.32-.332-.626-.68-1.243-1.039-1.853q-.508-.866-1.052-1.707c-.147-.228-.31-.444-.46-.669l-1.752.078c-.005.047-.019.091-.022.138-.037.4-.069.793-.087,1.2v.018c-.018.433.01.877.012,1.315" transform="translate(12.098 4.518)" fill="red"/>
    <path id="Path_170" data-name="Path 170" d="M134.188,53.534l.374.2.051-.2c-.023-.049-.048-.1-.071-.146l-.2-.044Z" transform="translate(12.84 5.105)" fill="red"/>
    <path id="Path_171" data-name="Path 171" d="M170.888,84.919l.552-2.285-.2-.048c-.453.244-.914.493-1.388.744a21.648,21.648,0,0,1-5.407,2.126l-.541.868-2.3,2.884.081-.014c.3-.045.614-.1.911-.13l.86-.031c.473-.014.944.007,1.413.035l.253-.7,5.76-3.448Z" transform="translate(15.463 7.902)" fill="red"/>
    <path id="Path_172" data-name="Path 172" d="M82.744,78.013h-.022l.015.018.007-.018" transform="translate(7.915 7.465)" fill="red"/>
    <path id="Path_173" data-name="Path 173" d="M158.849,80.518c-.312.067-.612.151-.937.2a8.186,8.186,0,0,1-1.914.08,5.331,5.331,0,0,1-1.2-.157c-.121-.028-.24-.061-.361-.092l1.645,1.868-.387,1.909.3-.051,2.3-2.883Z" transform="translate(14.778 7.704)" fill="red"/>
    <path id="Path_174" data-name="Path 174" d="M63.054,10.723l-.032.208c.084.308.178.621.3.95A31.509,31.509,0,0,0,65.035,15.4l.03,0,2.486-2.129L66.116,8.9,63.544,6.02a5.852,5.852,0,0,0-.7,1.793,6.262,6.262,0,0,0,.105,2.865Z" transform="translate(6.002 0.576)" fill="red"/>
    <path id="Path_175" data-name="Path 175" d="M148.349,76.6l-2.691.535L144.612,78l2.706,3.87.744.491a4.379,4.379,0,0,1,.392-.217c.276-.147.558-.285.848-.411a6.958,6.958,0,0,1,.783-.289l.583-.188.282-.091.519-.088.387-1.909L150.212,77.3c-.123-.031-.247-.059-.367-.093a3.983,3.983,0,0,1-.662-.24c-.282-.121-.557-.248-.834-.37" transform="translate(13.837 7.329)" fill="red"/>
    <path id="Path_176" data-name="Path 176" d="M140.324,64.894c.266.222.537.437.808.652a21.2,21.2,0,0,0,2.684,1.867c-.2-1.161-.458-2.3-.741-3.437l-4.415-1.811-.142,1.052c.283.267.562.542.849.8.3.276.6.57.913.835.015.012.03.027.044.039" transform="translate(13.254 5.948)" fill="red"/>
    <path id="Path_177" data-name="Path 177" d="M126.128,32.756l.514-1.039-.4-.577c-.028.016-.056.036-.085.053-.062.035-.123.076-.186.111a5.519,5.519,0,0,1-1.131.5c-.19.066-.379.133-.565.209-.148.041-.295.067-.442.1l-.33,1.183,2.561-.534Z" transform="translate(11.817 2.98)" fill="red"/>
    <path id="Path_178" data-name="Path 178" d="M70.059,18.769l1.889-.054c.027-.128.051-.259.08-.387L70.72,17.245Z" transform="translate(6.704 1.65)" fill="red"/>
    <path id="Path_179" data-name="Path 179" d="M95.814,81.821l-.8,2.261a4.981,4.981,0,0,1,2.236-1.4Z" transform="translate(9.091 7.829)" fill="red"/>
    <path id="Path_180" data-name="Path 180" d="M122.3,34.477l-.066,0-2.561.534-.1.354,1.319,1.955Z" transform="translate(11.442 3.299)" fill="red"/>
    <path id="Path_181" data-name="Path 181" d="M86.314,92.743a3.67,3.67,0,0,1-.182.677l.138.025Z" transform="translate(8.242 8.874)" fill="red"/>
    <path id="Path_182" data-name="Path 182" d="M125.8,35.771l.937,1.388.579-3.936,2.065-.294-.484,3.3,1.2,1.782.366.41-.02.044.713.093a15.737,15.737,0,0,1,.154-1.864c.021-.117.046-.234.068-.353a7.74,7.74,0,0,1,.333-1.322c.028-.1.066-.188.1-.284a7.855,7.855,0,0,1,.553-1.346.178.178,0,0,1,.01-.021l.412-.809.488-.684-1.1.033-2.7.383-.083.564-2.186.067Z" transform="translate(12.037 3.05)" fill="red"/>
    <path id="Path_183" data-name="Path 183" d="M29.019,36.662l-.068.127.651-.024c-.025-.046-.047-.092-.071-.139Z" transform="translate(2.77 3.505)" fill="red"/>
    <path id="Path_184" data-name="Path 184" d="M117.529,50.878c-.011-.045-.025-.088-.036-.133-.083-.35-.142-.709-.2-1.066-.021-.115-.033-.232-.05-.348l-2.428.108-.331.734,3.363,1.841c-.11-.376-.219-.753-.312-1.136" transform="translate(10.954 4.72)" fill="red"/>
    <path id="Path_185" data-name="Path 185" d="M67.273,14.028l-2.486,2.129-.03,0c.263.488.531.985.8,1.5.4.772.808,1.6,1.181,2.466l.25-.261,2.824-.08.66-1.525L67.983,16.19Z" transform="translate(6.196 1.342)" fill="red"/>
    <path id="Path_186" data-name="Path 186" d="M94.374,70.142l1.14-.427q-.243-.339-.467-.706Z" transform="translate(9.03 6.603)" fill="red"/>
    <path id="Path_187" data-name="Path 187" d="M93.5,66.444l-1.209,4.6-.247.092-.424,1.613.381.128.252.241,1.567-2.638.251-.094.673-1.133c-.138-.225-.272-.456-.4-.695a11.987,11.987,0,0,1-.847-2.111" transform="translate(8.767 6.358)" fill="red"/>
    <path id="Path_188" data-name="Path 188" d="M62.891,10.675l-.1-.045c.021.083.046.169.069.253Z" transform="translate(6.008 1.017)" fill="red"/>
    <path id="Path_189" data-name="Path 189" d="M129.579,96.727l-1.035-1.864-2.849-.471-2.414.016.995,1.191Z" transform="translate(11.796 9.032)" fill="red"/>
    <path id="Path_190" data-name="Path 190" d="M48.521,67.221l1.25,1.971.276-6.357Z" transform="translate(4.643 6.012)" fill="red"/>
    <path id="Path_191" data-name="Path 191" d="M112.938,65.808l.009.066.042-.1Z" transform="translate(10.807 6.293)" fill="red"/>
    <path id="Path_192" data-name="Path 192" d="M27.979,34.738l.6,1.281-.353,1.007.827-.032.068-.127.512-.036c-.489-.929-.93-1.842-1.351-2.7Z" transform="translate(2.677 3.266)" fill="red"/>
    <path id="Path_193" data-name="Path 193" d="M28.514,34.4c-.4-.816-.785-1.589-1.187-2.271a10.451,10.451,0,0,0-1.354-1.857l2.234,4.739Z" transform="translate(2.485 2.896)" fill="red"/>
    <path id="Path_194" data-name="Path 194" d="M117.133,47.936l2.428-.108c-.034-.219-.069-.438-.1-.661a17.488,17.488,0,0,1-.105-2.5l-.713-.092Z" transform="translate(11.208 4.265)" fill="red"/>
    <path id="Path_195" data-name="Path 195" d="M83.1,79.6a2.847,2.847,0,0,1,.207-.564l.007.008,1.3-1.074.138.083a2.85,2.85,0,0,1,3.677-.061l2.183-3.068.448-.754-.45-.444.111-.421-1.84-.619-4.737,4.5L83.725,77l4.58-4.348-6.165-2.075,2.037-8.229-.942-.237.034-.161.813.2.126-.507-.963-.228-.034.163-.753-.179-.144.516-.579.058-2.04,7.212a5.414,5.414,0,0,1,1.39,6.47l.2.481.686.3L82.76,78.4l.267.309-.419.345.473.545Z" transform="translate(7.626 5.875)" fill="red"/>
    <path id="Path_196" data-name="Path 196" d="M82.223,77.516l-.646.532,1.119.012Z" transform="translate(7.806 7.417)" fill="red"/>
    <path id="Path_197" data-name="Path 197" d="M31.227,105.355l-.988.413c.156.206.3.424.455.629.042-.076.088-.147.128-.224a4.7,4.7,0,0,0,.405-.818" transform="translate(2.893 10.081)" fill="red"/>
    <path id="Path_198" data-name="Path 198" d="M82.59,78.684a2.9,2.9,0,0,1,.079-.651l-.015-.018L81.534,78,79.659,79.55l3.039-.121a2.834,2.834,0,0,1-.108-.745" transform="translate(7.622 7.464)" fill="red"/>
    <path id="Path_199" data-name="Path 199" d="M69.6,79.134l6.328,1.55,1.994,1.2L78.2,81.2l1.411-1.164.054,0,1.875-1.546L79.7,78.468l-.321-2.222a5.477,5.477,0,0,1-9.253-3.276l-1.645,1.08-.291.706L70.1,76.369,69.521,79.1l.127.031,7.952.982-.042,0Z" transform="translate(6.524 6.982)" fill="red"/>
    <path id="Path_200" data-name="Path 200" d="M84.573,89.758l1.706-7.891-.356-.411c-.08.007-.157.024-.239.024a2.9,2.9,0,0,1-2.8-2.162l-3.038.121L78.433,80.6l-.286.685,4.527,2.724-1.389,5.915a3.578,3.578,0,0,1,3.288-.169" transform="translate(7.478 7.59)" fill="red"/>
    <path id="Path_201" data-name="Path 201" d="M92.163,80.421l2-1.462.354-.852-4.224-.047a2.908,2.908,0,0,1,.065.606,2.964,2.964,0,0,1-.071.628Z" transform="translate(8.639 7.469)" fill="red"/>
    <path id="Path_202" data-name="Path 202" d="M68.091,85.983l.02,0a7.635,7.635,0,0,1,6.276,3.29l.387-.891,2.936-7.03-2-1.2L69.388,78.6l-.13-.016-1.3,6.187Z" transform="translate(6.502 7.519)" fill="red"/>
    <path id="Path_203" data-name="Path 203" d="M60.393,50.224a4.37,4.37,0,0,1-1.317,2.552l1.2.171.89-2.705Z" transform="translate(5.653 4.806)" fill="red"/>
    <path id="Path_204" data-name="Path 204" d="M55.722,54.773a8.7,8.7,0,0,1-3.643.127l.462,2.9.776,2.005a2.717,2.717,0,0,1,1.152-.26A2.754,2.754,0,0,1,57.223,62.3a2.723,2.723,0,0,1-.312,1.248l.055.021A2.751,2.751,0,0,1,55.6,64.839l3.654,4.63.6.432a4.257,4.257,0,0,1,3.089-1.327c.057,0,.111.014.168.016l3.131-1.271.245-1.1-.781-.588-4.161-5.337-.045-.632-1.514,5.027-.059-.023,1.508-5.008-.49-6.772-.1-.032.021-.064-1.2-.171a8.258,8.258,0,0,1-3.957,2.159" transform="translate(4.983 5.034)" fill="red"/>
    <path id="Path_205" data-name="Path 205" d="M60.335,52.807l.491,6.772,1.11-3.69,6,.937a3.836,3.836,0,0,1,.859-.213l-.1-1.058Z" transform="translate(5.773 5.053)" fill="red"/>
    <path id="Path_206" data-name="Path 206" d="M60.145,52.786l.1.032-.007-.085-.069-.01Z" transform="translate(5.755 5.045)" fill="red"/>
    <path id="Path_207" data-name="Path 207" d="M70.513,66.5l3.325,1.491a5.265,5.265,0,0,1,4.378.649l-.176-3.983-.36-2.408-3.564.359-2.7-.021A3.781,3.781,0,0,1,69.6,63.3Z" transform="translate(6.659 5.956)" fill="red"/>
    <path id="Path_208" data-name="Path 208" d="M61.15,88.718l1.4-1.943.049-.025,1.866-2.6,2.634-8.7,1.016-.667-1.728-1.458a4.27,4.27,0,0,1-7.692-3.668l-2.022,1.407-1.258,3.122,3.247,1.656-2.783,9.071.294.225,3.982,2.842-.019.01Z" transform="translate(5.302 6.665)" fill="red"/>
    <path id="Path_209" data-name="Path 209" d="M70.273,66.146l.644,2.255.656.279A5.46,5.46,0,0,1,73.6,67.637Z" transform="translate(6.724 6.329)" fill="red"/>
    <path id="Path_210" data-name="Path 210" d="M68.13,74.756l2.487-6.012-4.149-3.121-1.113.451-.515,2.308a4.2,4.2,0,0,1,.929,5.332L67.5,75.172Z" transform="translate(6.204 6.279)" fill="red"/>
    <path id="Path_211" data-name="Path 211" d="M91.12,112.318l-.413-.221-1.6.816-1.842-.172.167.772-.663-1-.359-1.66-4.445-.414a7.667,7.667,0,0,1-2.213,2.585l-.062.769,1.856,1.831,2.608,2.222c.71-.243,1.431-.465,2.169-.644.045-.011.088-.025.133-.036.35-.083.709-.144,1.066-.206q.5-.087,1.01-.146c.216-.024.436-.039.655-.056l1.229,1.856a16.168,16.168,0,0,1,3.333.139c.313.055.626.122.938.2l-2.16,4.387c.071.023.142.035.213.061.217.066.432.141.646.219q.3.108.588.239l-1.26,2.43,1.756-2.187.021.01.126-.158.053-.1.144-.18.81.069c-.02-.033-.044-.065-.064-.1-.082-.14-.171-.277-.249-.419-.061-.1-.108-.2-.159-.3l1.594-3.076c-.077-.218-.15-.437-.239-.652-.011-.042-.016-.082-.027-.124l-1.089-.339,2.168-4.407Z" transform="translate(7.625 10.567)" fill="red"/>
    <path id="Path_212" data-name="Path 212" d="M85.906,131.171a33.52,33.52,0,0,0-4.578.313,20.116,20.116,0,0,1,3.427-1.514l-2.608-2.222-1.579-1.557.15.033,1.948-1.282,1.279.628.542-6.668-.423-.416a9.754,9.754,0,0,1-.906.557c-.241.126-.483.233-.725.332l.144-.7a8.5,8.5,0,0,1-1.583.325l1.238-2.467a4.059,4.059,0,0,1-3.791-1.836,3.2,3.2,0,0,1-.266-2.052l-1.117.036.126-1.354-4.709.151-1.524-4.691-4.2,1.915-.012-.03.031-.088.426-.194-.2-.444.207-.574.381.87,4.471-2.041-.6-1.857.013-.427a7.619,7.619,0,0,1-4.692-3.574l-.263-.028-.015-.093-2.394-.263-.4,1.186,3.454,5.756.105.24-.038.1-.141-.323-3.452-5.756.4-1.186-2.128-.234.1-.138,2.317.254-.008.022,2.394.263-.107-.677-2.134-.007.007-.021-10.9-.035-.431-.721-1.706-.217v-.03l-1.359-.173-.365,3.454,1.7.42v.005l-1.7-.421.364-3.455-4.719-.6,0-.007-.039,0,0-.008.05.007L45,97.211a2.9,2.9,0,0,1-1.5,1.026c-1.533.412-3.238-.635-4.528-2.514h0a11.158,11.158,0,0,1-1.394-2.9l-2.038-.98-1.063-.22,1.063.22,2.038.98c-.059-.186-.133-.36-.185-.553,0-.015,0-.03-.009-.045a10.367,10.367,0,0,1-.113-5.306,6.016,6.016,0,0,1,.345-.921,4.244,4.244,0,0,1,.708-1.079,2.843,2.843,0,0,1,1.336-.87l.02-.009c1.336-.359,2.8.4,4.012,1.837A10.8,10.8,0,0,1,45.784,90a10.528,10.528,0,0,1,.178,5.057h0A5.388,5.388,0,0,1,45,97.211l.367.444,4.731.6h0l1.354.173h0l1.77.226-1.793-3.007h0l1.793,3.008.539.069.991-2.439c-.008-.038-.007-.079-.013-.117L51.427,94.8v-.009l3.322,1.381a3.51,3.51,0,1,1,5.469,2.281l1.58.656v0l-1.585-.659a3.511,3.511,0,0,1-5.462-2.159l-.992,2.439-.539-.069.43.721,10.9.035,1.885-5.585-2.045-.844-.527-.866,0-.008-.228-.373-6.695-.812,0-.005,6.7.813L60.9,87.253l.15-.489-3.893-2.976-2.048,4.065-3.794,3.385-.847,1.839.15.3-.081.764.883,1.48v.016l-.89-1.491v-.005l-.316-.528.245-.533-.377-.747.378.746.847-1.837h0l3.866-8.393-11.443-1,.522-2.4L45.373,79l3.6-1.45,4.89-3.862.244-.641.207-.29.048-1.123-1.814-2.847-.982-7.228-1.33-.288,2.442-2.5-2.454-.921-4.675-.523,4.675.523L45.55,56.1l0,1.229,0-1.229-1.979-.743-5.238,1.273L37.286,55.8c-.01.059-.016.121-.028.18-.005.032-.009.065-.014.1-.056.288-.124.571-.186.856q-.173.781-.385,1.545a25.533,25.533,0,0,1-1.214,3.446c.062-1.434.049-2.847-.009-4.245-.007-.137-.005-.275-.012-.412-.02-.412-.022-.828-.055-1.236,0-.02,0-.039,0-.059-.031-.346-.07-.689-.11-1.032a17.685,17.685,0,0,0-.981-4.448c-.024-.052-.046-.1-.069-.151a50.119,50.119,0,0,0-3.068,4.251c-.286.438-.589.864-.861,1.313-.351.579-.687,1.168-1.015,1.763-.341.617-.664,1.246-.98,1.879-.064.129-.119.262-.183.392-.284.586-.563,1.176-.825,1.775q-.439,1-.832,2.03c-.012.031-.026.06-.038.091q-.362.948-.684,1.915c-.092.275-.173.554-.261.832-.112.354-.229.7-.333,1.062a48.941,48.941,0,0,0-1.413,6.388c.251-.09.5-.193.757-.29a14.346,14.346,0,0,0,3.657-2.3c.307-.254.61-.513.906-.785l.013-.013c.318-.295.612-.628.92-.939.165-.167.321-.347.484-.518q.983-1.027,1.893-2.159c.211-.262.434-.511.638-.782-.09.325-.2.644-.309.965a20.257,20.257,0,0,1-.883,2.2,24.6,24.6,0,0,1-1.239,2.32c-.023.038-.044.079-.068.118-.188.307-.4.6-.609.9q-.291.416-.61.816a16.6,16.6,0,0,1-3.121,3.05c-.1.073-.213.144-.318.216a7.679,7.679,0,0,1-1.15.685c-.182.1-.382.164-.571.251a8.5,8.5,0,0,1-.823.362c-.081.027-.157.065-.239.088l-.864.282-.287.048-.075.012-.542.091c-.25.037-.505.078-.755.108-.051.007-.105.018-.157.023l-.859.03c-.141,0-.28-.01-.422-.01a19.986,19.986,0,0,1-5.235-.748c-.322-.087-.65-.17-.961-.265-1.659-.5-3.185-1.084-4.579-1.514-.033-.011-.064-.019-.1-.028-.294-.09-.589-.183-.87-.255a8.532,8.532,0,0,0-3.034-.313,4.317,4.317,0,0,0-1.061.241,4.148,4.148,0,0,0-.878.381l-.44.22a.938.938,0,0,1-.192.171c-.081.078-.179.2-.271.307a3.667,3.667,0,0,0-.63.983A7.93,7.93,0,0,0,.3,79.528c-.046.175-.094.346-.129.527A8.346,8.346,0,0,0,.01,82.092a7.431,7.431,0,0,0,.37,2.16,5.4,5.4,0,0,0,.726,1.48,3.966,3.966,0,0,0,2.054,1.514,7.329,7.329,0,0,0,.872.257A6.388,6.388,0,0,0,7.1,87.345c.313-.083.634-.182.97-.3a.287.287,0,0,0,.033-.01,24.715,24.715,0,0,0,2.6-1.224c.53-.28,1.078-.575,1.639-.877.259-.139.513-.277.777-.416a19.288,19.288,0,0,1,6.344-2.321c.333-.044.673-.077,1.023-.093a6.244,6.244,0,0,1,.89.013,4.3,4.3,0,0,1,.466.049,8.012,8.012,0,0,1,1.362.268c.032.009.065.015.1.025a10.417,10.417,0,0,1,1.7.7c.1.054.179.116.272.171s.181.116.273.173c.311.191.63.376.92.582.078.06.139.128.215.188A18.19,18.19,0,0,1,28.47,85.93c.367.386.733.772,1.065,1.177.192.234.381.469.562.709.219.291.437.584.642.883.018.026.039.052.057.079.484.712.928,1.444,1.344,2.188.036.064.075.127.11.192.07.127.14.253.208.38.179.339.347.68.511,1.026.251.529.489,1.065.7,1.611-.29-.318-.592-.616-.888-.921-.389-.4-.78-.8-1.178-1.182s-.823-.794-1.243-1.176l-.046-.042-.136-.124c-.242-.226-.482-.457-.732-.669-.014-.012-.028-.027-.043-.039-.267-.222-.537-.437-.808-.653-.126-.1-.253-.193-.38-.291a16.733,16.733,0,0,0-3.459-2.16c-.226-.084-.442-.162-.661-.245-.174-.066-.352-.139-.524-.2-.048-.007-.094-.023-.141-.033.078.771.181,1.535.3,2.3.051.343.112.683.171,1.022.27,1.551.6,3.08,1.011,4.579.179.659.366,1.314.571,1.961.211.663.432,1.321.669,1.972.043.118.093.232.137.35q.649,1.727,1.42,3.392.429.927.9,1.833c.206.4.424.794.64,1.189.105.192.2.387.311.577l.03.047h0a49.546,49.546,0,0,0,3.553,5.37l.988-.413c.046-.111.091-.22.14-.33a11.194,11.194,0,0,0,.492-1.5L30.413,105.4l-.24-.075.24.075,4.343,3.386a16.832,16.832,0,0,0,.468-2.713c.022-.232.034-.467.05-.7l-3.833-.584-.075-.14h0l.073.14,3.833.584c.012-.165.028-.328.036-.494a.094.094,0,0,1,0-.018c.009-.248,0-.5-.008-.754l-2.074-.514,2.074.514c0-.187,0-.375-.005-.561a33.377,33.377,0,0,0-.314-4.579,21.7,21.7,0,0,1,2.16,5.6l5.235,1.3,0,.009-5.248-1.3v0c.011.045.025.088.036.133.078.327.133.661.192.994h0c0,.024.009.047.013.07.059.333.106.669.146,1.009a17.423,17.423,0,0,1,.1,2.586l3.3-.606h0l2.859-.525,3.9-.049h0v0l3.749-.048v.035l-3.8.048,0,0,0-.008h-.012l-3.891.05-2.82.517.005-.013-3.308.607a15.705,15.705,0,0,1-.151,1.777,10.174,10.174,0,0,1-.366,1.551v0c-.012.039-.02.08-.034.119a8.44,8.44,0,0,1-.66,1.649l-.172.339-.24.471-.282.4h0l-.234.331-.013.019c-.182.244-.363.506-.552.736l-.273.293-.313.336a20.679,20.679,0,0,1-5.4,3.957c-.666.356-1.32.678-1.961.992q-.756.37-1.465.722h0c-.553.275-1.083.55-1.569.829-.056.032-.119.062-.174.1-.157.093-.285.186-.431.279v0a6.192,6.192,0,0,0-2.51,2.558,4.17,4.17,0,0,0-.352.891l-.156.468a.935.935,0,0,1-.014.255,3.893,3.893,0,0,0,.275,1.549,7.693,7.693,0,0,0,.6,1.3l1.591-1.1,1.183-2.878h0l-1.183,2.878,2.051-1.421.194-1.587.016,0-.193,1.584-2.051,1.421-.892,2.169a8.079,8.079,0,0,0,1.017,1.131,6.994,6.994,0,0,0,2.627,1.614l1.732-2.049,0,0,.068-.08,4.5-3.032v.008l1.022-.688c.077-.236.154-.47.23-.713l-.036,0c.255-.826.508-1.7.785-2.591a21.519,21.519,0,0,1,2.348-5.368l-.639.043-4.352,5.808-1.514.186,0-.005,1.52-.186,4.352-5.808.639-.043c.165-.253.309-.512.5-.758.105-.137.221-.272.332-.408a6.949,6.949,0,0,1,.92-.959c.016-.014.027-.03.044-.043.031-.031.066-.053.1-.082l0-.019a5.849,5.849,0,0,1,.92-.678c.136-.082.271-.162.406-.242.043-.025.085-.053.128-.077a4.228,4.228,0,0,1,.731-.341h0c.323-.125.648-.234.964-.365.127-.034.252-.056.377-.084l-.01.021c.416-.1.833-.21,1.245-.28a17.6,17.6,0,0,1,2.476-.118l-.055.089c.575.011,1.148.03,1.71.085.3.03.6.061.9.1.362.05.722.1,1.078.17.032.005.065.009.1.015a28.145,28.145,0,0,1,3.422.89l.035.106-.352.878c-.69,0-1.383,0-2.064.037-.411.02-.828.022-1.236.055-.019,0-.039,0-.059,0-.345.031-.688.07-1.031.108a18.508,18.508,0,0,0-4.142.879l.016.007c-.093.032-.188.058-.278.093l-.16.073.039-.064c-.263.116-.53.23-.777.356-.119.088-.251.161-.379.237l.664-.044-.093.15-.822.055c-.033.019-.065.042-.1.061a49.454,49.454,0,0,0,6.951,4.57c.028.016.058.031.088.045l-.421.379c.543.29,1.091.573,1.647.844.62.3,1.25.591,1.885.868.216.094.438.175.661.257l-.014.533c.833.337,1.661.685,2.515.978.646.222,1.3.434,1.955.63.145.043.291.081.437.122l.02.454c.311.087.619.181.934.26.792.2,1.6.367,2.406.525l.135.077-.032.225-.483-.277-.936,1.5-.69.885c1.339.256,2.691.472,4.065.618a6.161,6.161,0,0,1,.355.642,8.465,8.465,0,0,1,.7,1.633l.007.02.557-1.209,1.863-.25.414.885c.188-.306.37-.621.574-.908.034-.044.071-.082.106-.124l1.336-.18c.027-.059.058-.116.082-.176.084-.148.182-.281.27-.426l-.774-.087-.118-.253a18.911,18.911,0,0,1,1.822-1.744c.234-.192.469-.381.709-.562.291-.22.584-.437.882-.642.027-.019.053-.039.08-.058.573-.389,1.167-.737,1.761-1.08l.673.055a25.726,25.726,0,0,1,2.506-1.228l-3.541-.776-.777,1.548-.379-.032.925-1.843-1.14-.25.629-1.126,1.649.36,1.026-2.041-3.129.917-.889-.088.126-2.752-3.809-.378,1.446-1.466-6.924-2.186.062-.275-.435-.031.385-1.065a4.84,4.84,0,0,1-4.292.659l-.363.112-.178-.012-2.214.682-1.393-.473.4-1,2.083.708,2.214-.682-4.192-.29.016-.041,4.225.293,1.321-.406A8.928,8.928,0,0,1,56.516,115c-.136-.093-.249-.2-.376-.3l-1.243.1.1-.24,1.724-.142c-2.656-2.051-3.771-5.087-2.465-6.966a.863.863,0,0,1,.092-.1l.21-.11a3.5,3.5,0,0,1,2.3-1.237l-.154.08A7.82,7.82,0,0,1,61.97,107.6a8.872,8.872,0,0,1,2.47,2.563l-.21-1.55-5.538-4.395.011-.013,5.546,4.4.209,1.551a6.166,6.166,0,0,1,.453.893l-.525.9a4.777,4.777,0,0,1,.15.706l-.126.351a3.727,3.727,0,0,1-.045,1.12l4.264-.394.01.022.455.2,5.86.527-.148,1.589L69.5,115.6l-1.88-.839-.479-.043-4.492.416a3.049,3.049,0,0,1-.249.746l.047.343a3.614,3.614,0,0,1-.339.358l-.446,1.234,6.542,2.065.62.287.068-.07.127.041.25-.253-.114-.053.643-.652,4.226.42-.03.673,3.515.348,2.153-.632-1.13,2.252,2.671-.782-.156.763-3.524,1.033L76.5,125.3l3.541.776.244-.1-.539,6.614L87,136.143l.553-3.794-1.386-1.181c-.087,0-.171,0-.256,0M47.5,68.633a8.288,8.288,0,0,1-2.357,3.713A3.93,3.93,0,0,1,41.4,73.428c-2.151-.689-3.117-3.684-2.326-6.85.05-.2.083-.4.147-.595a8.388,8.388,0,0,1,2.2-3.562,4.011,4.011,0,0,1,3.9-1.233,3.5,3.5,0,0,1,2.05,1.962,7.69,7.69,0,0,1,.13,5.483M25.058,126.607v0l.058-.476h0Zm4.567.012,0,0-1.8.221h-.005Zm-4.412.541h0l2.573-.316h0ZM38.3,116.422l-.419-.117v0l.419.117Zm8.991-6.759v0l1.041-.222h0l3.381-.722-.152.08-3.334.712-.007-.012-.993.213,0-.019-2.377.508.011-.022Zm5.881,9.8c-.087,0-.172,0-.259,0l.035-.085c.073.031.15.057.224.09m9.142,5.268c.307.188.6.4.9.608l.033.024-.083.085-1.15,1.843.055.042a17.685,17.685,0,0,1,1.608,1.44l.285-1.984,2.234.515-.154,1.163,2.151.5-.092,2.023.321.861-.551.988-.638-1.367-2.822-.651.073-.548-2.306-.531.668-1.072-1.75-1c-.2-.243-.409-.488-.626-.723l-.013-.013c-.153-.165-.324-.322-.491-.481l.457-2a32.347,32.347,0,0,0-2.93-2.521,19.055,19.055,0,0,1,2.579.944l-.134.585A24.626,24.626,0,0,1,62.2,124.66c.039.024.079.045.118.069m-8.42-8.586-.081.2-.71-.049.612.208,0,.009-.612-.208-.669-.046-.023-.068.8.055-1.067-.363-.011-.034-.036-.053-.762-.259-.2-.185-4.3-1.463.077-.124,4.223,1.435.1.1.98.333.049.073,1.2.408Zm-2.426-13.926v-.028l7.216,1.783-.016.024ZM80.73,125.783c-.1.092-.194.186-.29.279l-.111-.108c.133-.058.265-.118.4-.171" transform="translate(0 4.817)" fill="red"/>
    <path id="Path_213" data-name="Path 213" d="M67.887,56.6l-6-.937-1.111,3.69.046.632,4.16,5.338.782.587.606-2.717.585,0a3.8,3.8,0,0,1,.93-6.6" transform="translate(5.815 5.326)" fill="red"/>
    <path id="Path_214" data-name="Path 214" d="M69.015,63.33a3.791,3.791,0,0,1-2.3-.787l-.585-.005-.606,2.718.867.652,1.406-.572.062.028-1.36.551,4.149,3.121-2.487,6.012,1.645-1.08a5.177,5.177,0,0,1-.07-.685,5.472,5.472,0,0,1,2.045-4.249l-.657-.278L70.477,66.5l-.121-.056-.9-3.158a3.853,3.853,0,0,1-.438.043" transform="translate(6.269 5.984)" fill="red"/>
    <path id="Path_215" data-name="Path 215" d="M100.76,115.768l-1.452-.383-.089.179,1.607.5c-.027-.1-.042-.2-.067-.3" transform="translate(9.494 11.041)" fill="red"/>
    <path id="Path_216" data-name="Path 216" d="M67.913,73.958l-.633.416.342.289Z" transform="translate(6.438 7.077)" fill="red"/>
    <path id="Path_217" data-name="Path 217" d="M69.071,78.949l.576-2.734L67.736,74.6l-1.51,3.65Z" transform="translate(6.337 7.138)" fill="red"/>
    <path id="Path_218" data-name="Path 218" d="M101.112,112.706l.088-.18,1.453.385c-.107-.425-.216-.85-.287-1.272-.025-.2-.019-.388-.037-.585l-6.072-1.294.032-.312-2.025,1.031.413.222Z" transform="translate(9.02 10.472)" fill="red"/>
    <path id="Path_219" data-name="Path 219" d="M66.307,65.677l-.867-.652-.247,1.1Z" transform="translate(6.238 6.222)" fill="red"/>
    <path id="Path_220" data-name="Path 220" d="M64.875,68.343l.515-2.308-3.133,1.272a4.243,4.243,0,0,1,2.618,1.035" transform="translate(5.957 6.319)" fill="red"/>
    <path id="Path_221" data-name="Path 221" d="M58.358,88.559l.325.039.43-1.456.944-.483-3.995-2.851-.294-.225-.15.489Z" transform="translate(5.322 7.998)" fill="red"/>
    <path id="Path_222" data-name="Path 222" d="M58.863,75.449l-3.247-1.656L53.72,78.5l-1.534,3.045L56.08,84.52Z" transform="translate(4.993 7.061)" fill="red"/>
    <path id="Path_223" data-name="Path 223" d="M60.921,90.381l.87-2.579-.957-.682,0,0-1.017-.726-.946.482-.428,1.457,1.4.169v0l-1.4-.17-.1.333.533.872Z" transform="translate(5.583 8.266)" fill="red"/>
    <path id="Path_224" data-name="Path 224" d="M72.119,124l-1.279-.628-1.948,1.282,3.118.684Z" transform="translate(6.592 11.805)" fill="red"/>
    <path id="Path_225" data-name="Path 225" d="M58.442,88.166l-.325-.039.227.373Z" transform="translate(5.561 8.432)" fill="red"/>
    <path id="Path_226" data-name="Path 226" d="M52.385,81.935l1.534-3.045,1.9-4.706-3.822-1.949-1.6-2.524-.445.623,1.442,2.262-.244,3.545a2.723,2.723,0,0,1-.228,3.307l-.09,1.3Z" transform="translate(4.779 6.67)" fill="red"/>
    <path id="Path_227" data-name="Path 227" d="M68.212,86.389l-.138-1.212,1.3-6.187-.291-.036.005-.007.342.042,0-.015-2.844-.7,1.51-3.65-.342-.288-1.016.667-2.633,8.7-1.835,2.552-.087.045L60.777,88.27l.957.683-.87,2.579.153.064a7.624,7.624,0,0,1,7.2-5.206" transform="translate(5.815 7.113)" fill="red"/>
    <path id="Path_228" data-name="Path 228" d="M67.769,124.465l1.41-.928-.364-.08q-.532.5-1.046,1.008" transform="translate(6.484 11.813)" fill="red"/>
    <path id="Path_229" data-name="Path 229" d="M52.041,73.674l3.822,1.949L57.119,72.5l2.023-1.407a4.2,4.2,0,0,1,.663-1.115l0,0c.073-.091.144-.186.224-.271l-.6-.432-3.653-4.63a2.731,2.731,0,0,1-3.733-3.21l-.011,0a2.743,2.743,0,0,1,1.508-1.819l-.776-2.005-.462-2.9c-.056-.011-.1-.028-.159-.041l-2.581,3.222,2.3.256-.992,2.849.011,0-.911,2.617-.275,6.357.746,1.177,3.2-4.49,0,0-3.2,4.488Z" transform="translate(4.742 5.231)" fill="red"/>
    <path id="Path_230" data-name="Path 230" d="M26.158,30.129a4.549,4.549,0,0,0-1.223-.851,4.228,4.228,0,0,0-.891-.351l-.468-.156a.935.935,0,0,1-.255-.014,3.893,3.893,0,0,0-1.549.275c-.118.038-.24.1-.359.148l4.72,1.051Z" transform="translate(2.049 2.751)" fill="red"/>
    <path id="Path_231" data-name="Path 231" d="M72.952,15.6c.23-.758.477-1.481.72-2.187l-1.11-.276-1.421,3.282L72.449,17.5c.15-.651.314-1.291.5-1.9" transform="translate(6.807 1.257)" fill="red"/>
    <path id="Path_232" data-name="Path 232" d="M29.611,123.059l-4.482,3.02-.068.08,0,0L23.343,128.2a4.852,4.852,0,0,0,.722.184,3.837,3.837,0,0,0,2.206-.256l0,0a6.785,6.785,0,0,0,1.1-.553,6.592,6.592,0,0,0,2.167-2.492l0-.046c.116-.211.233-.42.343-.656a20.812,20.812,0,0,0,.748-2.015l-1.021.687Z" transform="translate(2.234 11.709)" fill="red"/>
    <path id="Path_233" data-name="Path 233" d="M18.523,38.578l.213-.859-1.122-.162a5.659,5.659,0,0,0,.909,1.021" transform="translate(1.685 3.594)" fill="red"/>
    <path id="Path_234" data-name="Path 234" d="M129.385,42.292a17.3,17.3,0,0,0-.341,2.132l1.753-.078c-.459-.694-.917-1.387-1.412-2.054" transform="translate(12.348 4.047)" fill="red"/>
    <path id="Path_235" data-name="Path 235" d="M17.7,37.927l1.122.163.954-3.85L17.105,33.5a5.1,5.1,0,0,0-.291,1.015,4.451,4.451,0,0,0,.817,3.321c.022.034.051.062.073.1" transform="translate(1.602 3.205)" fill="red"/>
    <path id="Path_236" data-name="Path 236" d="M18.816,38.428l4.518.657,2.978-8.1v.005l-2.985,8.114-4.516-.657-.213.858a8.765,8.765,0,0,0,2.228,1.427A51.028,51.028,0,0,0,26.151,42.5c.348.112.711.232,1.072.353l.459-.86,1.554-4.425-1.427.054.03-.059,1.422-.053.353-1.006-.6-1.281-.027.054L26.75,30.542c-.034-.036-.071-.06-.106-.1l-.183-.041,0-.021-4.719-1.052A8.551,8.551,0,0,0,18.6,31.5a7.168,7.168,0,0,0-1.508,2.336l2.676.744Z" transform="translate(1.636 2.807)" fill="red"/>
    <path id="Path_237" data-name="Path 237" d="M203.306,73.892l-.552,2.285,8.576,2.074-.005-2.413Z" transform="translate(19.401 7.07)" fill="red"/>
    <path id="Path_238" data-name="Path 238" d="M197.369,64.836l-.244.13.2.048Z" transform="translate(18.862 6.204)" fill="red"/>
    <path id="Path_239" data-name="Path 239" d="M175.288,56.323l.82-1.812-.476-.41Z" transform="translate(16.772 5.177)" fill="red"/>
    <path id="Path_240" data-name="Path 240" d="M97.059,149.15l-.127,2.6,1.793.552c-.446-.859-.942-1.756-1.44-2.7-.076-.145-.151-.3-.226-.449" transform="translate(9.275 14.271)" fill="red"/>
    <path id="Path_241" data-name="Path 241" d="M173.218,49.43l-1.106,2.443.731-.025Z" transform="translate(16.469 4.73)" fill="red"/>
    <path id="Path_242" data-name="Path 242" d="M159.186,28.452,159,29.642c.685-.458,1.379-.879,2.073-1.255Z" transform="translate(15.214 2.716)" fill="red"/>
    <path id="Path_243" data-name="Path 243" d="M19.318,124.321a8.879,8.879,0,0,0,.7,1.067l.892-2.169Z" transform="translate(1.848 11.79)" fill="red"/>
    <path id="Path_244" data-name="Path 244" d="M163.253,127.859c.093-.124.2-.242.288-.369l-.875-.465.033.586-.473-.211-2.813-2.689-1.355.951-1.287.526c.531,1.05,1.01,2.064,1.486,2.993l-.636,1.452a3.968,3.968,0,0,0,.794-.129l.008-.993c.18.343.359.671.542.981a6.7,6.7,0,0,0,2.843,2.946,4.138,4.138,0,0,0,.89.351l.468.157a.866.866,0,0,1,.256.014c.076,0,.186-.014.275-.018l.809-1.847.02-2.671-.214-.1a7.881,7.881,0,0,0,.573-.557c.012-.012.021-.026.033-.038l-.008-.134Z" transform="translate(15.001 11.933)" fill="red"/>
    <path id="Path_245" data-name="Path 245" d="M145.7,13.567l1.57.512.737-2.266c-.024,0-.052-.015-.076-.019a3.6,3.6,0,0,0-1.339.009Z" transform="translate(13.941 1.123)" fill="red"/>
    <path id="Path_246" data-name="Path 246" d="M132.094,127.537l.725-2.213c-.587-.19-1.189-.4-1.8-.631Z" transform="translate(12.537 11.931)" fill="red"/>
    <path id="Path_247" data-name="Path 247" d="M194.009,114.442l-4.7-.973-.026,3.3L191.031,118l-.8,1.835,3.012,1.347-.076-1.339.875.466a5.934,5.934,0,0,0,.974-2.3,4.454,4.454,0,0,0-.817-3.322c-.055-.085-.127-.16-.187-.242" transform="translate(18.112 10.857)" fill="red"/>
    <path id="Path_248" data-name="Path 248" d="M162.988,117.9l4.771,4.559.343.153.02-2.638-4.03-2.848Z" transform="translate(15.596 11.207)" fill="red"/>
    <path id="Path_249" data-name="Path 249" d="M157.047,23.573l2.473-2.747c-.03-.048-.053-.1-.083-.146l-5.615.186-1.032,2.281,2.808.607Z" transform="translate(14.62 1.979)" fill="red"/>
    <path id="Path_250" data-name="Path 250" d="M174.25,121.855l.96.43.8-1.836-1.743-1.232Z" transform="translate(16.673 11.407)" fill="red"/>
    <path id="Path_251" data-name="Path 251" d="M180.763,21.4a7.675,7.675,0,0,0,2.61-2.27l.433-1.459-4.559-.985-3.267.41-.954,2.11,5.492,2.329c.08-.045.169-.089.247-.135" transform="translate(16.747 1.596)" fill="red"/>
    <path id="Path_252" data-name="Path 252" d="M190.461,23.379a4.119,4.119,0,0,0,.335-.573,4.171,4.171,0,0,0,.352-.891l.156-.467a.937.937,0,0,1,.014-.255,3.907,3.907,0,0,0-.275-1.549,7.939,7.939,0,0,0-.786-1.637l-2.473,2.747-1.45.182,4.559.985Z" transform="translate(17.83 1.723)" fill="red"/>
    <path id="Path_253" data-name="Path 253" d="M215.337,79.858a3.7,3.7,0,0,0,.644-1,8.329,8.329,0,0,0,.737-2.432l-1.056,2.7Z" transform="translate(20.605 7.313)" fill="red"/>
    <path id="Path_254" data-name="Path 254" d="M216.47,74.564a6.611,6.611,0,0,0-.055-.685l.384-.729c-.038-.18-.071-.365-.123-.536l-2.64,3.354-.548-.133.007,2.58-.511.97,0,1.412c.076-.024.157-.032.23-.06a4.1,4.1,0,0,0,.878-.381l.44-.22a.934.934,0,0,1,.192-.171c.078-.073.169-.191.256-.29l.325-.736,1.056-2.7a8.189,8.189,0,0,0,.1-1.68" transform="translate(20.38 6.948)" fill="red"/>
    <path id="Path_255" data-name="Path 255" d="M108.573,131.785a15.061,15.061,0,0,1-3.921-2.081,8.142,8.142,0,0,1-1.409-1.3c-.026-.025-.042-.056-.066-.081a5.643,5.643,0,0,1-.742-1l-.81-.068-2.1,2.613-.091.176.208.106.463.236.7.5.051.036c.244.182.506.363.736.552l.629.586a20.679,20.679,0,0,1,3.957,5.4c.159.3.3.592.455.888l1.286-.526,1.356-.951-.274-.262.649-1.979Z" transform="translate(9.514 12.176)" fill="red"/>
    <path id="Path_256" data-name="Path 256" d="M142.213,124.954l1.138-.23c-1.16-.4-2.443-.762-3.789-1.177-.13-.042-.27-.091-.4-.134l-.725,2.213.491,1.3.237.167Z" transform="translate(13.246 11.809)" fill="red"/>
    <path id="Path_257" data-name="Path 257" d="M155.457,125.785l.245.05a5.938,5.938,0,0,0-.407-.476l-.064-.17-.023.068a8.132,8.132,0,0,0-2.531-1.724c-.474-.211-1-.4-1.537-.589l-1.138.23-3.051,2.141,4.03,2.848.025-3.3,4.057.841-.481,1.466.275.262,1.1-.774-.237-.168Z" transform="translate(14.061 11.764)" fill="red"/>
    <path id="Path_258" data-name="Path 258" d="M146.128,12.63l-1.636-.533a5.745,5.745,0,0,0-.437.414l1.7.859Z" transform="translate(13.784 1.158)" fill="red"/>
    <path id="Path_259" data-name="Path 259" d="M167.243,46.829l3.267-.41-2.808-.606Z" transform="translate(16.003 4.384)" fill="red"/>
    <path id="Path_260" data-name="Path 260" d="M147,10.341a5.227,5.227,0,0,0-2.531,1.233l1.637.531Z" transform="translate(13.823 0.989)" fill="red"/>
    <path id="Path_261" data-name="Path 261" d="M142.312,20.851l.358-.25,1.736.375.451-1,.987-.124.459-1.015L145.17,18.6l.091-.278-.96-.485,1-1.978,1.218.617.339-1.044-1.571-.511-.129.254-1.308-.663a8.548,8.548,0,0,0-1.559,2.374,26.273,26.273,0,0,0-1.058,2.987l.067.112Z" transform="translate(13.514 1.388)" fill="red"/>
    <path id="Path_262" data-name="Path 262" d="M51.49,35.861l-.041.014.054.019Z" transform="translate(4.923 3.431)" fill="red"/>
    <path id="Path_263" data-name="Path 263" d="M106.979,31.047c.02,0,.039,0,.059,0,.346-.031.688-.07,1.032-.108a22.869,22.869,0,0,0,2.714-.46c-1.121-.817-2.272-1.6-3.462-2.32-.563-.342-1.138-.668-1.716-.988-.026-.014-.054-.026-.079-.041l-1.561,4.026c.595-.01,1.189-.021,1.777-.049.411-.021.828-.023,1.236-.056" transform="translate(9.948 2.596)" fill="red"/>
    <path id="Path_264" data-name="Path 264" d="M25.924,30.111c-.051-.053-.107-.094-.16-.144l-.025.1Z" transform="translate(2.463 2.867)" fill="red"/>
    <path id="Path_265" data-name="Path 265" d="M32.89,46.087c.069.108.142.216.206.328.023.041.048.082.073.123l.523-.335Z" transform="translate(3.147 4.41)" fill="red"/>
    <path id="Path_266" data-name="Path 266" d="M83.905,146.4l-.111.721L83.5,149.5l.678.209.126-2.6c-.106-.208-.213-.419-.319-.633Z" transform="translate(7.99 14.009)" fill="red"/>
    <path id="Path_267" data-name="Path 267" d="M70.929,143.478c.543-.252,1.077-.52,1.611-.791l-1.324-.786Z" transform="translate(6.787 13.578)" fill="red"/>
    <path id="Path_268" data-name="Path 268" d="M67.147,140.04l.287-1.577-1.263-.749-.5.991-.913-.9-.542-.723a20.718,20.718,0,0,1-1.014,6.53l5.686,1.751.294-2.379.111-.721-2.229-2.191.08-.035" transform="translate(6.048 13.117)" fill="red"/>
    <path id="Path_269" data-name="Path 269" d="M74.189,144.768l.081.08c-.024-.048-.048-.094-.071-.142Z" transform="translate(7.099 13.846)" fill="red"/>
    <path id="Path_270" data-name="Path 270" d="M73.961,135.175l.039-.27-5.818-2.856.112-.222,1.262.749.411-2.257-8.087-.665c-.436.442-.856.893-1.272,1.345l-1.818.243-.557,1.209.011.032.263.813.02.114a17.612,17.612,0,0,0-2.072,3.252l2.4.27.619.55c.169-.038.334-.083.5-.123l3.917,3.85.009-.062a17.6,17.6,0,0,1-1.565-4.406c.371-.106.745-.207,1.112-.323q.948-.3,1.879-.638c.41-.148.812-.311,1.215-.471l.827-1.649,2.547.209-.411,2.257,1.324.786c.144-.073.291-.139.434-.214q.937-.488,1.847-1.013c.286-.164.563-.34.845-.51" transform="translate(5.402 12.406)" fill="red"/>
    <path id="Path_271" data-name="Path 271" d="M90.219,104.725l-.3-1.363-1.913.179Z" transform="translate(8.421 9.89)" fill="red"/>
    <path id="Path_272" data-name="Path 272" d="M166.794,53.529l.476.41.36-.8-.729-.309Z" transform="translate(15.96 5.055)" fill="red"/>
    <path id="Path_273" data-name="Path 273" d="M145.674,28.072l1.742,1.5.107-.7.729.309.954-2.111-2.565.321Z" transform="translate(13.939 2.591)" fill="red"/>
    <path id="Path_274" data-name="Path 274" d="M28.308,36.863l-1.553,4.424,2.38-4.455Z" transform="translate(2.56 3.524)" fill="red"/>
    <path id="Path_275" data-name="Path 275" d="M26.462,41.839l.319-.907-.46.86.141.047" transform="translate(2.519 3.917)" fill="red"/>
    <path id="Path_276" data-name="Path 276" d="M67.834,12.144l2.69-2.3.314-4.532-.163-.082L66.72,2.933a5.635,5.635,0,0,0-1.817.825,3.659,3.659,0,0,0-1.076,1.135L66.4,7.774Z" transform="translate(6.107 0.281)" fill="red"/>
    <path id="Path_277" data-name="Path 277" d="M140.768,33.466l1.2-.171c.163-.222.325-.456.5-.663l.586-.629a17.994,17.994,0,0,1,3.118-2.581l.184-1.19-.731.025,1.106-2.443.344-2.222-1.741-1.5L143.591,23.3c-.014.048-.027.093-.043.141A19.27,19.27,0,0,1,140.7,29.57a8.2,8.2,0,0,1-1.3,1.41,6,6,0,0,1-1.33.955l.4.577-.514,1.039Z" transform="translate(13.201 2.114)" fill="red"/>
    <path id="Path_278" data-name="Path 278" d="M165.858,11.967l2.132,1.84-1,2.093c1.709-.9,3.364-1.628,4.725-2.4l-5.493-2.329Z" transform="translate(15.87 1.069)" fill="red"/>
    <path id="Path_279" data-name="Path 279" d="M76.646,144.282l.264-.159-.225-.111Z" transform="translate(7.334 13.78)" fill="red"/>
    <path id="Path_280" data-name="Path 280" d="M70.934,3.364,71.1.973A8.406,8.406,0,0,0,68.638.717a7.583,7.583,0,0,0-1.823.271L70.77,3.282Z" transform="translate(6.393 0.068)" fill="red"/>
    <path id="Path_281" data-name="Path 281" d="M141.687,20.281l-.067-.111c-.216.707-.434,1.44-.666,2.2l1.743-1.215Z" transform="translate(13.487 1.93)" fill="red"/>
    <path id="Path_282" data-name="Path 282" d="M68.127,11.772l.71,2.162L71.329,16l1.422-3.282,1.109.276c.413-1.2.812-2.326,1.079-3.357a9.383,9.383,0,0,0,.335-2.626L71.131,4.937l-.314,4.532Z" transform="translate(6.519 0.472)" fill="red"/>
    <path id="Path_283" data-name="Path 283" d="M75.17,3a4.1,4.1,0,0,0-.381-.878l-.22-.442a.9.9,0,0,1-.171-.191,3.926,3.926,0,0,0-1.29-.9A7.986,7.986,0,0,0,71.457,0L71.29,2.391l4.143,2.072A4.506,4.506,0,0,0,75.17,3" transform="translate(6.821)" fill="red"/>
    <path id="Path_284" data-name="Path 284" d="M109.585,115.509c.719-1.009,1.388-2.053,2.032-3.115l-2.868-.234a15.487,15.487,0,0,0,.836,3.35" transform="translate(10.406 10.732)" fill="red"/>
    <path id="Path_285" data-name="Path 285" d="M75.816,138.307l.24-.943a17.55,17.55,0,0,0-2.306-.36c-.4-.037-.793-.069-1.2-.087h-.018c-.348-.014-.7,0-1.06.01l1.387,1.181L72.31,141.9l.225.111c.214-.13.433-.254.644-.389.616-.389,1.214-.8,1.81-1.221l-.159.629c.959-.676,1.9-1.376,2.806-2.121-.064-.026-.126-.051-.188-.079a11.259,11.259,0,0,0-1.631-.525" transform="translate(6.839 13.1)" fill="red"/>
    <path id="Path_286" data-name="Path 286" d="M133.73,53.6v.078l.046-.054Z" transform="translate(12.796 5.129)" fill="red"/>
    <path id="Path_287" data-name="Path 287" d="M85.845,128.884l.091-.175-.126.158Z" transform="translate(8.211 12.315)" fill="red"/>
    <path id="Path_288" data-name="Path 288" d="M135.474,53.763l-.094.084-.015-.008-.243.914,1,.481c-.21-.494-.423-.986-.65-1.472" transform="translate(12.929 5.144)" fill="red"/>
    <path id="Path_289" data-name="Path 289" d="M135.025,53.59c-.019-.039-.039-.079-.058-.118l-.052.194.015.009Z" transform="translate(12.909 5.116)" fill="red"/>
    <path id="Path_290" data-name="Path 290" d="M208.868,66.477c-.224-.075-.447-.148-.7-.206a7.175,7.175,0,0,0-4.068.472c-.519.2-1.06.451-1.611.724l4.182,1.267Z" transform="translate(19.375 6.329)" fill="red"/>
    <path id="Path_291" data-name="Path 291" d="M210.328,67.4l-2.2,2.258-4.182-1.267q-.86.422-1.773.919l-.044.179,8.018,1.946.007,2.412.548.134,2.64-3.355a5.5,5.5,0,0,0-.79-1.66,4.072,4.072,0,0,0-2.228-1.566" transform="translate(19.341 6.449)" fill="red"/>
    <path id="Path_292" data-name="Path 292" d="M165.171,42.268c.075-.039.147-.075.221-.114l1-2.092-2.132-1.84-.82,1.812-.375,2.418,1.889-.065c.071-.038.141-.083.213-.121" transform="translate(15.603 3.657)" fill="red"/>
    <path id="Path_293" data-name="Path 293" d="M190.339,80.287l-1.214,5.028c.129.038.266.07.394.108,2.047.621,3.906,1.375,5.544,1.8a8.529,8.529,0,0,0,3.021.313l.839-1.593-.009-3.582Z" transform="translate(18.096 7.682)" fill="red"/>
    <path id="Path_294" data-name="Path 294" d="M209.266,81.078a4.4,4.4,0,0,0,.844-.182l0-1.411Z" transform="translate(20.024 7.606)" fill="red"/>
    <path id="Path_295" data-name="Path 295" d="M110.086,50.226l-.407.861.969.066.085-.584-.627-.344Z" transform="translate(10.495 4.806)" fill="red"/>
    <path id="Path_296" data-name="Path 296" d="M72.895,51.251l.723-1.762.3-.511-7.087-.124-.378.778Z" transform="translate(6.358 4.675)" fill="red"/>
    <path id="Path_297" data-name="Path 297" d="M76.678,39.69l-5.985,3.073L67.813,48.7l7.087.123,3.565-6.127.575.1L75.718,48.5l1.458.025a3.109,3.109,0,0,1,.173-1.513c.883-2.2,4.2-2.933,7.459-1.679l-.792-2.154-1-.17-1.029-2.8-3.335-1.386Z" transform="translate(6.489 3.715)" fill="red"/>
    <path id="Path_298" data-name="Path 298" d="M54.9,39.389l-1.114,2.828-1.4,1.591,5.58.192-1.462-3.078-.355-.339c-.5.234-1.009.457-1.524.656.378-.347.737-.706,1.1-1.062Z" transform="translate(5.013 3.769)" fill="red"/>
    <path id="Path_299" data-name="Path 299" d="M60.767,37.738c-.291.22-.584.437-.882.643-.027.019-.053.038-.079.058a28.133,28.133,0,0,1-3.872,2.213l.355.339,1.462,3.078,6.139.21-1.16,3.527.1.045-.257.783,3.877,1.94.711.18.378-.778h-.08l-.091-7.756-1.847-1.372L65.5,48.913l-.136-.061.014-7.929-3.993-2.966.02-.726c-.211.173-.424.346-.641.508" transform="translate(5.352 3.562)" fill="red"/>
    <path id="Path_300" data-name="Path 300" d="M91.141,50.026a2.9,2.9,0,0,1-.219.374l3.2-1.142,1.021-1.337.05-.442-5.169-1.65a4.127,4.127,0,0,1,1.122,4.2" transform="translate(8.613 4.385)" fill="red"/>
    <path id="Path_301" data-name="Path 301" d="M51.22,38.373l.584,5.652.69.023,1.4-1.591,1.114-2.828-2.945-2.815Z" transform="translate(4.901 3.523)" fill="red"/>
    <path id="Path_302" data-name="Path 302" d="M85.379,43.686l.247-1.994-1.152-.2.791,2.153c.038.015.076.022.114.037" transform="translate(8.083 3.971)" fill="red"/>
    <path id="Path_303" data-name="Path 303" d="M84.038,61.274l-.833-.931-.237,1.131.963.228Z" transform="translate(7.939 5.774)" fill="red"/>
    <path id="Path_304" data-name="Path 304" d="M86.1,53.838l-1.434,6.846.832.931-.105.428,6.728,1.592,1.247-5.909-.914-.252.9-7.939-1.021,1.337-3.2,1.143A4.1,4.1,0,0,1,86.1,53.838" transform="translate(8.101 4.74)" fill="red"/>
    <path id="Path_305" data-name="Path 305" d="M34.361,54.445c-.03.3-.062.6-.1.9s-.09.6-.141.9l1.046.823L40.4,55.792l1.979.743L42.4,51.3,35.4,47.4v-.005l7,3.906.005-1.367L38.67,45.946l-4.241-.2-.763.488-.524.335c.034.056.069.113.1.17a5.16,5.16,0,0,1,.463,1.035c.078.221.153.444.243.661q.228.833.371,1.653l.813-3.643-.813,3.643c0,.013.007.026.009.038a17.374,17.374,0,0,1,.126,1.974l0,.009a20.721,20.721,0,0,1-.092,2.331" transform="translate(3.171 4.378)" fill="red"/>
    <path id="Path_306" data-name="Path 306" d="M49.369,49.81l-.89-1.165-.953,1.737,1.468.226a4.174,4.174,0,0,1,.375-.8" transform="translate(4.548 4.655)" fill="red"/>
    <path id="Path_307" data-name="Path 307" d="M42.164,45.646l-.244,4.772,6.146.941.954-1.737-1.8-2.359.03-.053,1.8,2.358,1-1.831,3.261-3.706-.69-.023-.583-5.65L49.581,42.9c.392-.041.783-.065,1.178-.122-.5.28-1.008.534-1.528.77l-.03.054a22.985,22.985,0,0,1-4.067,1.388c-.045.012-.088.026-.133.037-.35.082-.709.142-1.066.2-.333.059-.669.105-1.009.146-.22.026-.443.041-.665.058l0-.009-.087.007-.01.2Z" transform="translate(4.011 3.67)" fill="red"/>
    <path id="Path_308" data-name="Path 308" d="M111.225,49.969l-.682.031.627.343Z" transform="translate(10.577 4.781)" fill="red"/>
    <path id="Path_309" data-name="Path 309" d="M111.712,49.113l0-.01.016.009.682-.031.774-5.26-1.13-1.263-3.306,6.687Z" transform="translate(10.406 4.072)" fill="red"/>
    <path id="Path_310" data-name="Path 310" d="M93.35,38.294l-.764,2.084L89.775,39.9l-.247,1.994.009,0a8.532,8.532,0,0,1,3.223,2.23l5.169,1.65-.049.442,3.37-4.412,1.936-.4-8.573-1.465.405-1.045c-.565-.18-1.121-.38-1.67-.6" transform="translate(8.567 3.664)" fill="red"/>
    <path id="Path_311" data-name="Path 311" d="M116.69,62.96l-1,2.478,3.569-2.676,2.633-3.058-8.776-.835Z" transform="translate(10.824 5.633)" fill="red"/>
    <path id="Path_312" data-name="Path 312" d="M105.978,58.466a9.461,9.461,0,0,1,.907.712l1.135.108-.918-1.051-.908-.25Z" transform="translate(10.141 5.548)" fill="red"/>
    <path id="Path_313" data-name="Path 313" d="M108.4,59.421a11.753,11.753,0,0,1,3.658,6.714l.051-.037,1-2.478-3.573-4.09Z" transform="translate(10.372 5.686)" fill="red"/>
    <path id="Path_314" data-name="Path 314" d="M103.525,57.877a7.966,7.966,0,0,1,1.321.753l.216-.48-1.475-.405Z" transform="translate(9.906 5.525)" fill="red"/>
    <path id="Path_315" data-name="Path 315" d="M93.069,63.191,86.342,61.6l-.125.507L93.351,63.9c-.013-2.235.8-4.133,2.411-4.983a4.73,4.73,0,0,1,4.175.064l.062-.133-5.682-1.561Z" transform="translate(8.25 5.481)" fill="red"/>
    <path id="Path_316" data-name="Path 316" d="M110.184,50.044h.021l-.016-.009Z" transform="translate(10.543 4.787)" fill="red"/>
    <path id="Path_317" data-name="Path 317" d="M51.492,35.908l.135.351.486.466.276-.508Z" transform="translate(4.927 3.436)" fill="red"/>
    <path id="Path_318" data-name="Path 318" d="M100.73,27.265l1.348.085h.007c-.386-.206-.77-.413-1.163-.609Z" transform="translate(9.638 2.559)" fill="red"/>
    <path id="Path_319" data-name="Path 319" d="M65.615,35.28l6.146-2.746c-.02-.031-.034-.065-.053-.094l-6.344,2.417L63.7,34.643a20.149,20.149,0,0,1-2,1.906l-.068.055-.02.725L65.607,40.3Z" transform="translate(5.896 3.104)" fill="red"/>
    <path id="Path_320" data-name="Path 320" d="M65.691,40.123l1.846,1.372.092,7.756h.08l2.879-5.932,5.986-3.073,1.976-.869-4.392-1.825.352-2.162A16.022,16.022,0,0,1,72.277,33q-.21-.3-.412-.606c-.007-.011-.012-.024-.02-.035L65.7,35.107Z" transform="translate(6.286 3.096)" fill="red"/>
    <path id="Path_321" data-name="Path 321" d="M51.29,38.335l.844-1.559-.488-.466-.134-.351-.054-.019-.446.162.1.525Z" transform="translate(4.881 3.439)" fill="red"/>
    <path id="Path_322" data-name="Path 322" d="M55.831,37.431l-3.505-1.2-.276.509,2.945,2.814Z" transform="translate(4.98 3.467)" fill="red"/>
    <path id="Path_323" data-name="Path 323" d="M55.6,37.3l-.836,2.122.826.79c.731-.717,1.444-1.443,2.121-2.187Z" transform="translate(5.24 3.569)" fill="red"/>
    <path id="Path_324" data-name="Path 324" d="M46.3,38.66l-.179.129-.057.028q-.876.452-1.73.939c-1.2.682-2.359,1.424-3.493,2.2l1.631.52L42.448,43c.348.059.7.116,1.056.154l1.668-3.635,0,0L43.532,43.1c.089.01.173.031.262.038.4.037.794.069,1.2.085a.106.106,0,0,0,.019,0c.433.016.877-.01,1.315-.012,1.121-.007,2.257-.078,3.4-.194l2.459-4.542L52,36.766l-.1-.525c-1.342.486-2.666,1.01-3.952,1.607-.557.26-1.1.533-1.65.812" transform="translate(3.908 3.468)" fill="red"/>
    <path id="Path_325" data-name="Path 325" d="M80.428,36.512,83.763,37.9l1.21,3.291,1.153.2L86.78,36.1l-3.889-.674-.172.076c.577.507,1.178,1,1.806,1.47A19.586,19.586,0,0,1,81.7,35.951Z" transform="translate(7.696 3.39)" fill="red"/>
    <path id="Path_326" data-name="Path 326" d="M42.493,42.534l.026-.518-1.631-.522c-.234.161-.476.312-.707.477a13.975,13.975,0,0,0,2.312.563" transform="translate(3.845 3.97)" fill="red"/>
    <path id="Path_327" data-name="Path 327" d="M97.918,29.918l-1.6,4.365c.638.014,1.273.021,1.9.011l1.56-4.026c-.168-.092-.341-.176-.511-.266h-.007Z" transform="translate(9.216 2.863)" fill="red"/>
    <path id="Path_328" data-name="Path 328" d="M93.465,33.528,86.689,33.1l-1.754.771,3.89.674-.655,5.284,2.813.48.764-2.084c-.287-.114-.575-.222-.857-.346.328.014.651.011.976.018Z" transform="translate(8.127 3.167)" fill="red"/>
    <path id="Path_329" data-name="Path 329" d="M82.842,34.425c.047.043.091.088.139.13l.172-.077Z" transform="translate(7.927 3.294)" fill="red"/>
    <path id="Path_330" data-name="Path 330" d="M98.442,53.558l-.477-.033-.8,3.781,5.682,1.561,2.292-4.855-5.608-.38.457-2.164,7.176.488.406-.861-2.959.131,3.306-6.687-1.806-2.019-1.625-.277-1.936.4-3.37,4.412Z" transform="translate(9.297 4.042)" fill="red"/>
    <path id="Path_331" data-name="Path 331" d="M97.5,96.589l.554-.633-1.771-.988a3.244,3.244,0,0,1-1.864.085c-.1-.027-.186-.085-.282-.122l-.257.663,3.259,1.532Z" transform="translate(8.983 9.083)" fill="red"/>
    <path id="Path_332" data-name="Path 332" d="M99.089,96.456l-.539-.3-.556.633-.36.537.946.445Z" transform="translate(9.342 9.201)" fill="red"/>
    <path id="Path_333" data-name="Path 333" d="M113.8,72.265h1.363l-.008.013,1.055.35.116-.363h.7l.058-.182-.634-.21.71-2.215,1.707-3.136.893-2.79.511.209,2.045-3.757-.228-.022-2.632,3.058-3.57,2.676-.041.1c.437,2.722-.28,5.154-2.048,6.267" transform="translate(10.889 5.756)" fill="red"/>
    <path id="Path_334" data-name="Path 334" d="M99.949,93.189a5.512,5.512,0,0,1-2.512,1.889l1.771.989,1.177-1.342.512-1.319Z" transform="translate(9.323 8.917)" fill="red"/>
    <path id="Path_335" data-name="Path 335" d="M99.763,96.427l.638-1.644-1.177,1.342Z" transform="translate(9.494 9.069)" fill="red"/>
    <path id="Path_336" data-name="Path 336" d="M102.378,93.593l-.537-.123-.512,1.318Z" transform="translate(9.696 8.944)" fill="red"/>
    <path id="Path_337" data-name="Path 337" d="M90.338,101.951l-.9-1.45-1,2.584.227.122,1.912-.179Z" transform="translate(8.462 9.616)" fill="red"/>
    <path id="Path_338" data-name="Path 338" d="M81.3,101.49c2.638-.8,5.157-.287,6.1,1.425l1.478-.138-.227-.122,1-2.584-2.646-4.253-2.138-.972a3.626,3.626,0,0,1-5.523,0l-.079.036,1.788,4.484Z" transform="translate(7.585 9.075)" fill="red"/>
    <path id="Path_339" data-name="Path 339" d="M112.7,91.046l-5.656-.781-1.423,3.668.537.124,1.873-2.136,5.37-.037Z" transform="translate(10.106 8.637)" fill="red"/>
    <path id="Path_340" data-name="Path 340" d="M65.035,101.832l1.524,4.69,4.709-.151.467-5-5.73.022Z" transform="translate(6.223 9.699)" fill="red"/>
    <path id="Path_341" data-name="Path 341" d="M72.686,102.212l-.467,5,3.059-.1a7.364,7.364,0,0,1,4.052-4.847,9.48,9.48,0,0,1,1.7-.677l-.243-2.128-1.738-4.356.438-.318.573-.265-.1-.253a3.636,3.636,0,0,1-.669-1.585L77.564,92.4l-.752,4.011-1.066.774.037-.2-2.609,1.893.013-.139L75.9,96.773l.82-4.375-1.591-.261c.008.139.042.271.042.412a7.65,7.65,0,0,1-7.65,7.65,7.556,7.556,0,0,1-1.907-.268l-.013.427.6,1.857.969-.443,5.63-.021-.02.217,2.011-.008-.046.243Z" transform="translate(6.277 8.816)" fill="red"/>
    <path id="Path_342" data-name="Path 342" d="M92.037,103.14l.149-.014L95.963,97.5,92.7,95.968l-1.8,4.644.9,1.451Z" transform="translate(8.698 9.183)" fill="red"/>
    <path id="Path_343" data-name="Path 343" d="M117.284,92.2l2.859.394,1.765-10.16,3.368.249.005-.021-4.991-1.224-4.127,4.473-2.457-1.3,3.64-3.943L113.039,79.6l-3.745-5.581.436-1.081a4.949,4.949,0,0,1-3.972-.31l-.682,8.18,2.882,1.53-.124,1.478.073.311a2.937,2.937,0,0,1,.324.036,3.788,3.788,0,0,1,2.44,2.439l3.948,2.4Z" transform="translate(10.054 6.95)" fill="red"/>
    <path id="Path_344" data-name="Path 344" d="M122.086,63.049l-.511-.209-.893,2.789Z" transform="translate(11.548 6.013)" fill="red"/>
    <path id="Path_345" data-name="Path 345" d="M135.492,99.78l-1.57-.334,1.035,1.864c.19-.505.362-1.018.535-1.53" transform="translate(12.814 9.516)" fill="red"/>
    <path id="Path_346" data-name="Path 346" d="M116.961,101.5l4.721,2.175c.238-.45.476-.9.7-1.36.295-.61.571-1.23.841-1.854.32-.74.615-1.491.9-2.248l-1.035-1.864-5.3-1.126-.994-1.191-5.37.036L109.544,96.2l4.755,1.09-.815,6.287,1.934-2.793.467.216a25.153,25.153,0,0,1,1.088-2.986c-.051,1.175-.044,2.332-.012,3.481" transform="translate(10.482 8.997)" fill="red"/>
    <path id="Path_347" data-name="Path 347" d="M137.707,99.268c.162-.481.336-.957.484-1.444.023-.077.043-.155.066-.231l-3.156-.522,1.035,1.863Z" transform="translate(12.927 9.288)" fill="red"/>
    <path id="Path_348" data-name="Path 348" d="M130.723,87.3c.188-.307.4-.6.609-.9q.291-.416.61-.816c.06-.076.133-.142.194-.217l.732-2.487-3.368-.249-1.765,10.161-2.859-.4.7.838,2.413-.016,2.849.471-.753-1.355.711-2.417a32.461,32.461,0,0,0-2.572,2.986,21.674,21.674,0,0,1,2.43-5.484c.023-.039.044-.08.068-.119" transform="translate(11.949 7.907)" fill="red"/>
    <path id="Path_349" data-name="Path 349" d="M142.771,94.825c.17-.661.32-1.328.462-2q.468-2.207.731-4.484a16.083,16.083,0,0,0-2.625,1.8c-.307.254-.61.513-.906.785l-.013.013c-.318.295-.612.628-.92.939-.151.152-.294.318-.443.473l-.711,2.417.753,1.355,3.156.523c.182-.6.359-1.211.517-1.825" transform="translate(13.238 8.453)" fill="red"/>
    <path id="Path_350" data-name="Path 350" d="M140.076,85.526a16.823,16.823,0,0,1,2.381-2.366l-1.649-.122Z" transform="translate(13.403 7.946)" fill="red"/>
    <path id="Path_351" data-name="Path 351" d="M65.719,34.221,72.062,31.8a6.338,6.338,0,0,1-.417-.735c-.1-.181-.184-.368-.273-.554a7.192,7.192,0,0,1-.427-1.078l-.1-.319-.176-.545-.028-.171L67,28.377c-.035.232-.081.46-.136.685-.049.206-.1.414-.158.617a4.165,4.165,0,0,1-.27.747c-.142.321-.3.631-.431.952-.083.147-.179.277-.266.421-.214.355-.426.713-.66,1.044-.325.42-.677.789-1.026,1.165Z" transform="translate(6.129 2.715)" fill="red"/>
    <path id="Path_352" data-name="Path 352" d="M79.653,78.321l1.848.021.646-.533-.557-.642-.9-2.226-.054-.023-.185-.46c-.053.111-.115.214-.174.32l.036.015a5.5,5.5,0,0,1-.982,1.3Z" transform="translate(7.591 7.125)" fill="red"/>
    <path id="Path_353" data-name="Path 353" d="M94.783,81.943,93.055,80.9l-3.061,7.385L91.6,90.7a9.167,9.167,0,0,1,.3-2.724A8.554,8.554,0,0,1,93.979,84.2Z" transform="translate(8.611 7.741)" fill="red"/>
    <path id="Path_354" data-name="Path 354" d="M82.575,28.945c.253.307.512.608.783.9l.012.013c.295.319.628.612.939.92.488.482.995.953,1.514,1.415l.311.055,1.754-.772,6.776.432.192-.525c-.043-.022-.083-.045-.126-.065A48.728,48.728,0,0,0,88.5,28.736l-2.369-.219-4.7-1.136c.2.306.413.607.634.905-.778-.173-1.56-.333-2.35-.471l-.087.241c.045.07.092.138.137.208Z" transform="translate(7.619 2.62)" fill="red"/>
    <path id="Path_355" data-name="Path 355" d="M81.8,61.266l-.525-.124-.2.7.579-.058Z" transform="translate(7.758 5.85)" fill="red"/>
    <path id="Path_356" data-name="Path 356" d="M78.939,69.124l2.04-7.213-3.227.325.36,2.408.176,3.983a5.5,5.5,0,0,1,.65.5" transform="translate(7.44 5.924)" fill="red"/>
    <path id="Path_357" data-name="Path 357" d="M97.38,78.263l.4-1.126L93,72.565l-.294.5L97.2,77.484Z" transform="translate(8.871 6.943)" fill="red"/>
    <path id="Path_358" data-name="Path 358" d="M97.086,79.866l-.628-.333.459-1.292-.184-.779-4.485-4.425-.448.755-2.183,3.067a2.89,2.89,0,0,1,1.041,1.659l4.224.047-.354.852.433-.316.449.238-.146.106-.884,2.134,1.728,1.039Z" transform="translate(8.575 6.989)" fill="red"/>
    <path id="Path_359" data-name="Path 359" d="M91.494,70.748l-2.008.753-.254.241,1.839.619Z" transform="translate(8.538 6.77)" fill="red"/>
    <path id="Path_360" data-name="Path 360" d="M81.958,61.334l.882.208.237-1.131-.657-.736Z" transform="translate(7.842 5.71)" fill="red"/>
    <path id="Path_361" data-name="Path 361" d="M91.18,72.645l.45.444.294-.494-.252-.242-.381-.128Z" transform="translate(8.725 6.911)" fill="red"/>
    <path id="Path_362" data-name="Path 362" d="M77.887,29.509c-.1-.016-.188-.043-.284-.059.061.1.134.2.2.3Z" transform="translate(7.425 2.818)" fill="red"/>
    <path id="Path_363" data-name="Path 363" d="M61.941,47.825l-.827,2.515,5.164.121.251-.516-.711-.179Z" transform="translate(5.848 4.576)" fill="red"/>
    <path id="Path_364" data-name="Path 364" d="M66.427,50.325,61.263,50.2l-.89,2.7.069.01.007.085,8.359,2.748.1,1.06a3.339,3.339,0,0,1,1.913.221l2.3-5.606-6.444-1.618Z" transform="translate(5.777 4.766)" fill="red"/>
    <path id="Path_365" data-name="Path 365" d="M80.336,53.376c-.226-.091-.427-.2-.64-.309L79.5,56.61l3.066,3.433,1.684-6.057a8.513,8.513,0,0,1-3.917-.61" transform="translate(7.607 5.078)" fill="red"/>
    <path id="Path_366" data-name="Path 366" d="M58.346,45.364l.519,1.093,3.251,1.627.3-.9Z" transform="translate(5.583 4.341)" fill="red"/>
    <path id="Path_367" data-name="Path 367" d="M54.036,47.139c.229-.056.454-.079.68-.117l.527-3.124.042.019-.514,3.046c3.184-.528,6.059.651,6.587,2.828a3,3,0,0,1,.05,1.027l.769.018L63,48.321l-3.25-1.627L59.235,45.6l-.1-.046-.862-1.813-5.58-.191-3.261,3.7-1.006,1.831.89,1.165a7.619,7.619,0,0,1,4.725-3.111" transform="translate(4.633 4.167)" fill="red"/>
    <path id="Path_368" data-name="Path 368" d="M70.494,56.831a3.806,3.806,0,0,1,.858,6.625l2.7.021,3.564-.358L76.9,58.351l-2.03-6.606-2.075-.52Z" transform="translate(6.745 4.901)" fill="red"/>
    <path id="Path_369" data-name="Path 369" d="M63.678,43.78l-6.138-.21.912,1.92,4.066,1.818Z" transform="translate(5.506 4.169)" fill="red"/>
    <path id="Path_370" data-name="Path 370" d="M111.4,37.138l.33-1.183c-.2.043-.391.09-.586.133-.221.047-.444.112-.663.149a19.07,19.07,0,0,1-4.31.034c-.3-.031-.6-.062-.9-.1-.362-.05-.722-.1-1.078-.17-.032-.007-.065-.01-.1-.015a28.938,28.938,0,0,1-3.321-.841l-.405,1.044,8.573,1.466Z" transform="translate(9.604 3.362)" fill="red"/>
    <path id="Path_371" data-name="Path 371" d="M82.717,59.934l.657.736,1.434-6.846c-.134.021-.268.039-.408.053Z" transform="translate(7.915 5.15)" fill="red"/>
    <path id="Path_372" data-name="Path 372" d="M119.59,40.491l-.055.375,1.258,1.408Z" transform="translate(11.438 3.874)" fill="red"/>
    <path id="Path_373" data-name="Path 373" d="M75.583,49l-1.458-.025-.3.511-.723,1.762,2.075.52,2.03,6.606.713,4.766,3.227-.325.2-.7.525.124.461-1.659-3.066-3.433.193-3.543c-2.22-1.091-3.69-2.883-3.878-4.605" transform="translate(6.995 4.686)" fill="red"/>
    <path id="Path_374" data-name="Path 374" d="M116.3,39.363l.248-.5-1.32-1.955.1-.353-2.457.512,1.625.277Z" transform="translate(10.8 3.498)" fill="red"/>
    <path id="Path_375" data-name="Path 375" d="M119.045,40.294l-.938-1.388-.247.5,1.13,1.263Z" transform="translate(11.277 3.723)" fill="red"/>
    <path id="Path_376" data-name="Path 376" d="M49.609,70.8l-.207.29-.244.641.425-.336Z" transform="translate(4.704 6.774)" fill="red"/>
    <path id="Path_377" data-name="Path 377" d="M87.873,91.414l3.451.867a7.476,7.476,0,0,1-.226-1.525l-1.61-2.414,3.061-7.385-1.118-.672-3.009,2.2Z" transform="translate(8.408 7.682)" fill="red"/>
    <path id="Path_378" data-name="Path 378" d="M46.148,90.406l.081-.764-.151-.3-.244.533Z" transform="translate(4.386 8.549)" fill="red"/>
    <path id="Path_379" data-name="Path 379" d="M41.554,76.958h0l-1.119.451-.522,2.4,11.443,1L47.492,89.2l3.8-3.385,2.047-4.065-1.559-1.192.09-1.3A2.747,2.747,0,1,1,48.8,74.9l1.241-3.257-4.89,3.862Z" transform="translate(3.819 6.855)" fill="red"/>
    <path id="Path_380" data-name="Path 380" d="M116.588,47.975l1.514-3.362-.044-.005-.3-.448L116.5,42.753l-.774,5.26Z" transform="translate(11.073 4.091)" fill="red"/>
    <path id="Path_381" data-name="Path 381" d="M49.019,74.89a2.747,2.747,0,0,1,2.3,1.244l.244-3.545-1.441-2.262-.356-.557-.048,1.123-.026.595-.425.336-1.241,3.256a2.747,2.747,0,0,1,.994-.192" transform="translate(4.595 6.676)" fill="red"/>
    <path id="Path_382" data-name="Path 382" d="M66.535,20.628l-.25.261A14.637,14.637,0,0,1,67.409,24.7l.74-1.359,1.21-2.791Z" transform="translate(6.342 1.966)" fill="red"/>
    <path id="Path_383" data-name="Path 383" d="M52.438,36.211l3.505,1.2L57.1,34.471l.016,0L55.96,37.414l2.112.723c.018-.02.037-.038.055-.058.277-.306.571-.6.835-.914.013-.014.027-.028.039-.044.224-.266.438-.537.653-.806.363-.456.71-.917,1.034-1.384l-.016,0a16.857,16.857,0,0,0,.905-1.444,49.118,49.118,0,0,0-5.094.919q-.981.232-1.947.5t-1.928.583l.159.117Z" transform="translate(5.018 3.204)" fill="red"/>
    <path id="Path_384" data-name="Path 384" d="M68.3,23.182l-.74,1.358c0,.024.011.045.014.069a8.179,8.179,0,0,1,.08,1.913,4.287,4.287,0,0,1-.05.623l3.638.025-.124-.734c-.045-.3-.1-.615-.13-.911l-.031-.86a18.194,18.194,0,0,1,.442-4.328l-1.889.054Z" transform="translate(6.464 1.946)" fill="red"/>
    <path id="Path_385" data-name="Path 385" d="M87.014,91.345l.564.141.551-8.931,3.009-2.2-1.875-1.126a2.9,2.9,0,0,1-2.6,2.254l.356.411-1.706,7.891a3.675,3.675,0,0,1,1.7,1.558" transform="translate(8.164 7.581)" fill="red"/>
    <path id="Path_386" data-name="Path 386" d="M86.668,90.6l-.564-.141a3.625,3.625,0,0,1,.471,1.648Z" transform="translate(8.239 8.655)" fill="red"/>
    <path id="Path_387" data-name="Path 387" d="M52.4,36.22l.329-.606-.16-.117c-.036.012-.072.021-.108.033-.328.107-.645.236-.97.35l.012.033Z" transform="translate(4.927 3.397)" fill="red"/>
    <path id="Path_388" data-name="Path 388" d="M61.055,95.642l.107.677.4.044a7.28,7.28,0,0,1-.617-6.249l-.153-.064L58.91,95.636Z" transform="translate(5.637 8.617)" fill="red"/>
    <path id="Path_389" data-name="Path 389" d="M29.157,36.85l-2.381,4.456-.319.906a16.639,16.639,0,0,1,4.914,2.446A8.523,8.523,0,0,1,32.7,45.875l1.985.039v.022L32.695,45.9c.025.03.051.049.077.079.064.065.106.138.164.2a6.027,6.027,0,0,1,.575.78l.8.115.763-.488,4.241.194h0l3.791.174-.007.016L39.309,46.8l3.737,3.984-.005,1.367,4.707,2.627,0,.005-4.707-2.629-.02,5.233,4.672,1.753,2.98.333L52.7,55.766a3.505,3.505,0,0,1-1.817-2.19A3.18,3.18,0,0,1,51,51.747l-1.468-.225,0,0-6.146-.94.244-4.77.008-.019.01-.2a16.246,16.246,0,0,1-3.611-.115,10.39,10.39,0,0,1-1.515-.355l-.173.638h0l.173-.637c-.054-.019-.107-.027-.161-.047s-.122-.043-.183-.061a8.1,8.1,0,0,1-1.431-.581c-.012-.007-.024-.01-.035-.016L35.907,44l-.379-.27-.368-.262c-.152-.113-.306-.229-.459-.344v-.028c-.09-.067-.185-.131-.268-.2l-.629-.587a20.642,20.642,0,0,1-3.957-5.4c-.014-.025-.026-.05-.039-.077Z" transform="translate(2.532 3.524)" fill="red"/>
    <path id="Path_390" data-name="Path 390" d="M80.866,89.765l1.39-5.915-4.527-2.724-2.936,7.03-.387.891A7.6,7.6,0,0,1,75.739,93l1.249.2-.031.163,1.722.283a3.633,3.633,0,0,1-.059-.592c0-.014,0-.027,0-.042l-1.207-.224.032-.171L79,92.906a3.654,3.654,0,0,1,1.868-3.14" transform="translate(7.12 7.763)" fill="red"/>
    <path id="Path_391" data-name="Path 391" d="M49.97,70.437l.445-.623-.746-1.177-.054,1.243Z" transform="translate(4.747 6.568)" fill="red"/>
    <path id="Path_392" data-name="Path 392" d="M90.148,107.98l-.612-2.82-2.208-1.184-1.478.138c.009.016.024.028.033.045a3.7,3.7,0,0,1-.18,3.406Z" transform="translate(8.201 9.949)" fill="red"/>
    <path id="Path_393" data-name="Path 393" d="M92.96,95.393l.257-.663a4.212,4.212,0,0,1-2.4-3.1l-3.451-.868-.093,1.508c0,.049.014.1.014.144,0,.1-.022.2-.03.3Z" transform="translate(8.349 8.685)" fill="red"/>
    <path id="Path_394" data-name="Path 394" d="M86.648,92.824c-.009.1-.014.2-.031.3l-.043.7-.138-.026a3.622,3.622,0,0,1-.671,1.123L87.9,95.9l2.646,4.252,1.8-4.644Z" transform="translate(8.207 8.882)" fill="red"/>
    <path id="Path_395" data-name="Path 395" d="M80.237,110.835c-.158.121-.317.239-.485.352l.423.417Z" transform="translate(7.631 10.605)" fill="red"/>
    <path id="Path_396" data-name="Path 396" d="M79.115,94.325c-.061-.071-.123-.141-.179-.217l.1.253Z" transform="translate(7.553 9.005)" fill="red"/>
    <path id="Path_397" data-name="Path 397" d="M92.172,108.988l1.6-.816L89.718,106l.612,2.82Z" transform="translate(8.585 10.142)" fill="red"/>
    <path id="Path_398" data-name="Path 398" d="M98.51,106.37l.814-8.005-1.81-1.01L97,98.669l-.946-.445-3.778,5.625-.149.014.3,1.363,4.057,2.176Z" transform="translate(8.816 9.315)" fill="red"/>
    <path id="Path_399" data-name="Path 399" d="M96.163,69.743l-1.14.426L93.45,72.82l4.775,4.572-.4,1.126.241,1.027-.218.612.415.22.038.162-.654-.347-.977,2.752,1.433.861a3.246,3.246,0,0,1,1.226-.077l.025-.3-.594-2.516.389.206.683-8.18a9.806,9.806,0,0,1-3.669-3.2" transform="translate(8.942 6.673)" fill="red"/>
    <path id="Path_400" data-name="Path 400" d="M84.772,62.2l-2.037,8.229L88.9,72.5l.254-.241,2.008-.753L92.374,66.9a10.228,10.228,0,0,1-.467-2.915Z" transform="translate(7.917 5.951)" fill="red"/>
    <path id="Path_401" data-name="Path 401" d="M98.9,79.808l.628,2.665.186-2.233Z" transform="translate(9.464 7.636)" fill="red"/>
    <path id="Path_402" data-name="Path 402" d="M104.379,93.712l.947.217,1.423-3.668,5.656.781-2.664-3.191-3.948-2.4a8.191,8.191,0,0,1,.171,5.029,8.894,8.894,0,0,1-1.585,3.232" transform="translate(9.988 8.176)" fill="red"/>
    <path id="Path_403" data-name="Path 403" d="M99.624,82.582l-.073-.311-.025.3c.033,0,.066.005.1.011" transform="translate(9.523 7.872)" fill="red"/>
    <path id="Path_404" data-name="Path 404" d="M47.177,60.86l.982,7.228,1.814,2.847.054-1.243-1.25-1.971L50.3,63.334l.126-2.915h0L50.3,63.334l.912-2.619h0l.99-2.848-2.3-.256-.662.826-.959-.36-2.442,2.5Z" transform="translate(4.387 5.512)" fill="red"/>
    <path id="Path_405" data-name="Path 405" d="M114.108,56.54l.918,1.051,8.775.835,1.788-2.077v-.078l-5-2.739a32.088,32.088,0,0,0,.282,3.6,20.846,20.846,0,0,1-1.847-4.461l-3.363-1.842L113.2,56.291Z" transform="translate(10.832 4.864)" fill="red"/>
    <path id="Path_406" data-name="Path 406" d="M108.705,52.429l-.969-.066-2.292,4.855,1.476.405,2.459-5.458-.588-.321Z" transform="translate(10.09 4.961)" fill="red"/>
    <path id="Path_407" data-name="Path 407" d="M49.652,57.942l2.581-3.222a5.96,5.96,0,0,1-1.65-.608l-2.026,3.708Z" transform="translate(4.646 5.178)" fill="red"/>
    <path id="Path_408" data-name="Path 408" d="M111.99,50.14l.587.322.331-.734-.863.038Z" transform="translate(10.716 4.758)" fill="red"/>
    <path id="Path_409" data-name="Path 409" d="M48.29,58.115l.462-.472.064-.116-2.98-.333Z" transform="translate(4.386 5.473)" fill="red"/>
    <path id="Path_410" data-name="Path 410" d="M104.078,105.7l2.267-3.273.815-6.286L102.4,95.048l-1.049,1.2-.638,1.642,1.81,1.01-.813,8.006,1.332-.679-1.141,1.646-2.362,1.2-.032.312,6.073,1.294a19.581,19.581,0,0,1,0-3.725c0-.012,0-.024,0-.036l-1.7-.139.137-1.055Z" transform="translate(9.522 9.095)" fill="red"/>
    <path id="Path_411" data-name="Path 411" d="M48.539,57.613l-.462.473.958.359.662-.826L48.6,57.5Z" transform="translate(4.6 5.502)" fill="red"/>
    <path id="Path_412" data-name="Path 412" d="M129.419,62.83,130.214,57l.011-1.177L128.437,57.9l.228.021-2.045,3.758.381.157c-.059-.145-.127-.287-.183-.433.185.2.379.392.568.591Z" transform="translate(12.116 5.342)" fill="red"/>
    <path id="Path_413" data-name="Path 413" d="M140.233,81.742c.187-.152.35-.322.546-.468.306-.215.62-.421.946-.612.043-.025.089-.047.131-.072l-.744-.492-2.706-3.87L134.222,79.7l-.622.675,4.991,1.223-.007.022Z" transform="translate(12.784 7.294)" fill="red"/>
    <path id="Path_414" data-name="Path 414" d="M119.985,108.248c.07-.131.135-.267.2-.4l-4.721-2.174c.011.392.013.787.033,1.177.02.411.022.828.055,1.236,0,.02,0,.039,0,.059.031.345.07.689.108,1.032q.064.552.145,1.095l2.869.234c.45-.743.893-1.49,1.3-2.259" transform="translate(11.049 10.111)" fill="red"/>
    <path id="Path_415" data-name="Path 415" d="M109.466,105.872c.028-.289.059-.577.1-.862.05-.362.1-.722.17-1.078.005-.032.009-.065.015-.1a29.216,29.216,0,0,1,.7-2.862l-.467-.215-1.934,2.792-.283,2.183Z" transform="translate(10.311 9.641)" fill="red"/>
    <path id="Path_416" data-name="Path 416" d="M121.28,42.851l-.366-.41.3.448.044.005Z" transform="translate(11.57 4.061)" fill="red"/>
    <path id="Path_417" data-name="Path 417" d="M122.985,80.269l.622-.675,4.183-3.473-1.152-1.647-7.37-2.447-.058.182-3.229,0c-.083.053-.149.128-.238.174a3.681,3.681,0,0,1-.376.164l-.436,1.081,3.745,5.581Z" transform="translate(10.997 6.892)" fill="red"/>
    <path id="Path_418" data-name="Path 418" d="M132.587,67.753a27.279,27.279,0,0,1-2.689-4.965l-.381-.157-.289.533-1.988-.815c.515.542,1.044,1.06,1.576,1.572l-.7,1.291-1.783,5.562,7.37,2.447,1.152,1.647L135.9,74l2.691-.534c-.068-.031-.136-.062-.2-.091-.13-.075-.247-.16-.374-.237-.373-.222-.746-.445-1.091-.69a19.04,19.04,0,0,1-3.071-3.024c-.192-.233-.382-.469-.563-.709-.219-.29-.436-.583-.642-.882-.018-.026-.038-.051-.057-.079" transform="translate(12.088 5.966)" fill="red"/>
  </g>
</svg>
