<svg xmlns="http://www.w3.org/2000/svg" width="78.434" height="78.453" viewBox="0 0 78.434 78.453">
  <g id="distance" transform="translate(0)">
    <g id="Group_265" data-name="Group 265">
      <path id="Path_469" data-name="Path 469" d="M45.744,84.1v-.849c0-1.506.012-3.012-.006-4.518a13.143,13.143,0,0,0-.135-1.748,7.841,7.841,0,0,0-7.778-6.552q-6.01-.009-12.024,0a9.931,9.931,0,0,0-1.365.129,7.713,7.713,0,0,0-6.54,7.383c-.1,4.467-.029,8.934-.025,13.4a3.431,3.431,0,0,0,.909,2.3,3.653,3.653,0,0,0,2.828,1.293c.368,0,.739-.027,1.1,0a.343.343,0,0,1,.313.344v13.533l.037,3.489v.256c0,1.76.01,3.522,0,5.284a4.644,4.644,0,0,0,.479,2.14,4.748,4.748,0,0,0,4.4,2.787,4.567,4.567,0,0,0,3.274-1.258c.074-.068.147-.135.225-.2a.343.343,0,0,1,.462,0c.068.059.129.117.192.172a4.99,4.99,0,0,0,6.581.129c.139-.117.274-.233.411-.348a0,0,0,0,0,0,0c.09-.076.178-.149.27-.221a5.27,5.27,0,0,0,1.226-3.336v-4.821l-.033-3.892a6.212,6.212,0,0,1-.006-.731c.006-.2.014-.405.008-.608-.018-.587,0-1.175,0-1.762v-10.6a.349.349,0,0,1,.342-.346c.284,0,.553-.006.821,0a3.681,3.681,0,0,0,3.647-2.112c.006-.012.012-.027.02-.041a14.207,14.207,0,0,0,.393-3.256V86.919ZM41.868,92.5a7.136,7.136,0,0,0-.966-.012.346.346,0,0,1-.354-.346V81.007c0-.2.008-.409-.006-.612a1.233,1.233,0,0,0-1.156-1.205A1.3,1.3,0,0,0,38.115,80.3a5.27,5.27,0,0,0-.018.763v28.1c0,2.832-.016,5.664.006,8.5a2.692,2.692,0,0,1-1.989,2.58,2.63,2.63,0,0,1-3.241-2.282c-.02-.28-.01-.561-.01-.841q0-9.074,0-18.147a4.354,4.354,0,0,0-.061-.833,1.064,1.064,0,0,0-.845-.888,1.142,1.142,0,0,0-1.246.37c-.078.1-.146.207-.236.343a.345.345,0,0,0-.059.191v19.066c0,.2,0,.407,0,.612a2.454,2.454,0,1,1-4.907-.016c.027-2.857.008-5.715.008-8.574v-28.1c0-.229.012-.46,0-.69a1.313,1.313,0,0,0-1.2-1.263,1.24,1.24,0,0,0-1.242,1.277c-.008.2,0,.409,0,.612V92.135a.346.346,0,0,1-.338.346c-.469.006-.919.025-1.361-.014a1.245,1.245,0,0,1-1.033-1.083,3.788,3.788,0,0,1-.012-.458q0-6.277,0-12.556a5.306,5.306,0,0,1,1.111-3.342A5.2,5.2,0,0,1,25.639,72.9c2.705-.037,5.411-.012,8.116-.012,1.4,0,2.808-.012,4.211.006a5.35,5.35,0,0,1,5.075,3.823,5.125,5.125,0,0,1,.237,1.422c.018,4.314,0,8.627.031,12.939A1.4,1.4,0,0,1,41.868,92.5" transform="translate(-14.192 -56.019)"/>
      <path id="Path_472" data-name="Path 472" d="M277.386,17a6.144,6.144,0,0,0-4.85-5.906,8.779,8.779,0,0,0-1.59-.156c-1.093-.023-2.188-.006-3.291-.086a7.907,7.907,0,0,0,.819-.289A4.364,4.364,0,0,0,271.138,7.1a9.535,9.535,0,0,0-.035-3.27c-.029-.151-.065-.3-.108-.452a4.361,4.361,0,0,0-.684-1.381A4.261,4.261,0,0,0,269.194.971a5.407,5.407,0,0,0-.767-.409A3.078,3.078,0,0,0,267.455.3a5.553,5.553,0,0,0-2.132.141,4.317,4.317,0,0,0-1.713.952,4.123,4.123,0,0,0-.919,1.164,4.846,4.846,0,0,0-.483,1.51,9.384,9.384,0,0,0,.035,3.27,4.306,4.306,0,0,0,2.783,3.295c.211.086.432.145.8.268-.35.018-.557.039-.761.039-.97,0-1.94,0-2.91,0a6.191,6.191,0,0,0-6.194,6.17q-.034,4.825.006,9.649a8.206,8.206,0,0,0,.231,1.437.351.351,0,0,0,.2.254,5.892,5.892,0,0,1,1.86,1.387.343.343,0,0,0,.258.117h.868a.345.345,0,0,1,.344.323c.07,1.156.108,4.96.1,7.954v8.4s-.248,2.495,1.455,3.655a3.536,3.536,0,0,0,1.8.573,5.46,5.46,0,0,0,1.363-.117,4.015,4.015,0,0,0,1.96-.972,3.2,3.2,0,0,0,.276-.3,2.3,2.3,0,0,0,.6.6.029.029,0,0,0,.008.006,4.278,4.278,0,0,0,1.8.579,3.887,3.887,0,0,0,.534.012c.035,0,.07,0,.1-.006l.084-.006a4.059,4.059,0,0,0,3.606-3.184,5.727,5.727,0,0,0,.106-.841v-.008l.072-7.752V30.261a.344.344,0,0,1,.335-.346c.129,0,.259.02.386.018a3.125,3.125,0,0,0,3.088-3.137c0-3.264.02-6.528-.008-9.792M264.678,6.939a6.387,6.387,0,0,1,0-2.728,2.063,2.063,0,0,1,3.984-.033,11.424,11.424,0,0,1,.16,1.306v.072a12.737,12.737,0,0,1-.147,1.351,2.059,2.059,0,0,1-4,.033M274.936,26.9a1.612,1.612,0,0,1-.045.213c-.078.072-.178.162-.271.25a.345.345,0,0,1-.239.1h-.477a.351.351,0,0,1-.344-.323c-.008-.121-.016-.238-.016-.354,0-2.525,0-5.052-.008-7.58a2.749,2.749,0,0,0-.151-.968,1.192,1.192,0,0,0-2.278.366,7.352,7.352,0,0,0-.014.765q0,13.325,0,26.65A4.039,4.039,0,0,1,271,47a1.633,1.633,0,0,1-1.682,1.271,1.656,1.656,0,0,1-1.557-1.608c-.02-.227-.008-.458-.008-.69V32.721c0-.2.01-.409-.006-.612a1.166,1.166,0,0,0-1.205-1.128,1.193,1.193,0,0,0-1.23,1.113,5.539,5.539,0,0,0-.008.612q0,6.817,0,13.633a2.824,2.824,0,0,1-.1.9,1.518,1.518,0,0,1-1.316,1.025.376.376,0,0,1-.143-.006c-1.152-.286-1.49-.731-1.49-1.948q0-13.478,0-26.957a7.325,7.325,0,0,0-.014-.765,1.192,1.192,0,0,0-1.042-1.06,1.171,1.171,0,0,0-1.238.7,2.852,2.852,0,0,0-.149.968c-.012,2.476-.006,4.952-.006,7.428v.458a.344.344,0,0,1-.344.344h-.524a.339.339,0,0,1-.231-.09l-.176-.164a.353.353,0,0,1-.111-.235c-.006-.1-.014-.189-.014-.277,0-3.166-.018-6.331.006-9.5a3.584,3.584,0,0,1,2.233-3.444,3.751,3.751,0,0,1,1.514-.325c3.025-.029,6.051-.027,9.076-.01a3.653,3.653,0,0,1,3.69,3.552c.068,3.317.018,6.636.016,9.953" transform="translate(-203.567 -0.2)"/>
      <path id="Path_473" data-name="Path 473" d="M181.694,11.3a5.542,5.542,0,0,0-.229-1.578,3.179,3.179,0,0,0-3.137-2.345c-.634-.047-1.275-.012-1.913-.014h-.786a12.674,12.674,0,0,0,.96-.855,3.031,3.031,0,0,0,.769-1.877,9.228,9.228,0,0,0-.063-1.825c0-.027-.008-.053-.012-.078a3.063,3.063,0,0,0-.89-1.764,3.736,3.736,0,0,0-.72-.53,3.48,3.48,0,0,0-.782-.323A3.168,3.168,0,0,0,172.5.4a3.272,3.272,0,0,0-1.561,1.817,5.363,5.363,0,0,0,.014,3.3,3.292,3.292,0,0,0,1.643,1.848c-1.056,0-1.948-.033-2.836.006a3.577,3.577,0,0,0-3.638,3.507c-.113,2.265-.027,4.543-.029,6.814a1.078,1.078,0,0,0,.018.182,1.879,1.879,0,0,0,2.022,1.743c.319-.025.643,0,.966.01v6.837l.033,2.513c0,.428.031.808,0,1.183a2.955,2.955,0,0,0,4.385,2.707c.078-.041.151-.084.221-.127l.09-.053a2.7,2.7,0,0,0,1.017.5,2.8,2.8,0,0,0,1.662-.078l.022-.008a3.278,3.278,0,0,0,2.02-2.133c.009-.029.018-.059.026-.088a4.519,4.519,0,0,0,.094-.548c0-.008,0-.018,0-.027v-.008c0-.035.006-.07.008-.1v-.023c.02-.381,0-.784.022-1.2l.01-2.556v-6.8c.309,0,.61,0,.909,0a1.947,1.947,0,0,0,2.089-2.036c0-.078,0-.153,0-.231,0-2.016.014-4.031-.01-6.049m-8.5-8.106a.831.831,0,0,1,.847-.729.856.856,0,0,1,.864.712,4.71,4.71,0,0,1,.047.681h-.027a3.54,3.54,0,0,1-.006.608.849.849,0,0,1-.9.757.808.808,0,0,1-.829-.741,5.328,5.328,0,0,1,0-1.289m6.055,13.913-.567.055v-5.2a4.082,4.082,0,0,0-.532-.61,1.221,1.221,0,0,0-1.922.841,4.277,4.277,0,0,0-.018.688V30.436c-.493.391-.493.391-.988.207A1.411,1.411,0,0,1,175,29.624V21.659c0-.2.006-.409-.008-.614a1.1,1.1,0,0,0-1.019-1.132,1.12,1.12,0,0,0-1.324.878,3.739,3.739,0,0,0-.094.907c-.008,2.681,0,5.361,0,8.042V30.5c-.374.405-.649.321-.974-.012V12.929c0-.2.012-.409-.006-.612a1.254,1.254,0,0,0-1.252-1.2,1.191,1.191,0,0,0-1.187,1.238c-.016,1.326-.006,2.654-.006,3.982v.79h-.6V11.681a5.518,5.518,0,0,1,.02-.69,1.231,1.231,0,0,1,1.2-1.162c.151-.014.3-.01.458-.01h7.735a1.271,1.271,0,0,1,1.109.389,4.1,4.1,0,0,1,.18.888c.018,1.989.008,3.978.008,6.016" transform="translate(-132.079 0)"/>
      <path id="Path_476" data-name="Path 476" d="M64.066.013a5.5,5.5,0,0,1,2.458.7,5.566,5.566,0,0,1,2.638,3.164,5.892,5.892,0,0,1,.292,1.649c.026.79.014,1.581.005,2.371A5.649,5.649,0,0,1,58.276,9.025,12.111,12.111,0,0,1,58.3,4.469,5.353,5.353,0,0,1,62.629.154,5.69,5.69,0,0,1,64.066.013m-3.528,6.8.05,0c0,.332.013.664,0,1a3.209,3.209,0,0,0,6.408.322,22.76,22.76,0,0,0,0-2.679A3.191,3.191,0,0,0,64.19,2.486a3.125,3.125,0,0,0-3.477,2.432,14.327,14.327,0,0,0-.174,1.893" transform="translate(-46.187 -0.008)"/>
      <g id="Group_264" data-name="Group 264">
        <path id="Path_470" data-name="Path 470" d="M8.868,261.5a.347.347,0,0,0-.332-.346,2.41,2.41,0,0,0-.442.014q-3.244.488-6.483,1a1.289,1.289,0,0,1-1.4-.5,1.218,1.218,0,0,1-.149-1.07,1.185,1.185,0,0,1,.974-.829c1.656-.268,3.313-.536,4.973-.784.831-.125,1.664-.219,2.519-.327a.346.346,0,0,0,.3-.342v-.307Z" transform="translate(0 -205.214)" fill="#ccc"/>
        <path id="Path_471" data-name="Path 471" d="M49.34,275.542a14.152,14.152,0,0,1-4.508,3.6,34.986,34.986,0,0,1-8.132,3.035,54.809,54.809,0,0,1-7.494,1.408q-2.2.242-4.4.456a67.038,67.038,0,0,1-8.789.256c-1.883-.068-3.763-.225-5.64-.405-1.746-.17-3.489-.391-5.224-.649-1.383-.207-2.754-.493-4.125-.771a1.229,1.229,0,1,1,.514-2.4c1.125.2,2.243.454,3.373.641,1.3.215,2.615.4,3.927.561,1.389.17,2.781.35,4.179.419,2.165.108,4.334.188,6.5.164,2.063-.025,4.13-.129,6.184-.319a61.36,61.36,0,0,0,12.288-2.259,26.328,26.328,0,0,0,7.158-3.184,9.329,9.329,0,0,0,2.439-2.294,3.728,3.728,0,0,0-.2-4.668,9.048,9.048,0,0,0-1.836-1.723c-3.25-2.517-8.883-3.78-9.186-3.847l-.027-.006c-.27-.086-.465-.158-.665-.207a60.253,60.253,0,0,0-7.958-1.4c-.3-.033-.6-.07-.918-.108a.345.345,0,0,0-.387.342v.577l-.033-3.892c.006.063.012.129.023.192a.341.341,0,0,0,.307.291,62.053,62.053,0,0,1,13.651,2.779s1.608.505,2.945,1.1a5.007,5.007,0,0,1,.569.3c.98.587,1.979,1.162,2.939,1.793a10.582,10.582,0,0,1,2.652,2.517,6.128,6.128,0,0,1-.123,7.709" transform="translate(-0.02 -205.89)" fill="#ccc"/>
        <path id="Path_474" data-name="Path 474" d="M176.121,137.18a5.762,5.762,0,0,1-1.879,1.516c-.68.334-1.374.641-2.084.956a10.743,10.743,0,0,1-1.732.6,17.7,17.7,0,0,1-1.9.338c-5.456.763-10.762.622-15.863-1.547-.031.018-.059.025-.074.045a1.444,1.444,0,0,0-.121.192c-.031.068-.061.135-.094.2a14.064,14.064,0,0,0,.4-3.264,11.583,11.583,0,0,0,3.718,1.565,26.592,26.592,0,0,0,4.363.683,30.455,30.455,0,0,0,6.608-.211c.307-.033.592-.073.858-.115a12.288,12.288,0,0,0,2.006-.495c.663-.222,1.347-.452,2.008-.737a6.869,6.869,0,0,0,1.6-.992,1.279,1.279,0,0,0,.113-1.887,5.318,5.318,0,0,0-1.649-1.089,17.892,17.892,0,0,0-4.15-1.254,2.543,2.543,0,0,0-.434,0l.01-2.556c.735.141,1.437.248,2.124.415.667.16,1.326.358,1.975.581s1.291.5,1.936.755a5.76,5.76,0,0,1,2.128,1.576c.123.184.213.319.3.45a3.526,3.526,0,0,1-.164,4.271" transform="translate(-121.194 -102.707)" fill="#ccc"/>
        <path id="Path_475" data-name="Path 475" d="M159.683,131.885a13.744,13.744,0,0,0-5.472,1.913l-.027-2.816a21.724,21.724,0,0,1,5.466-1.61Z" transform="translate(-122.632 -102.898)" fill="#ccc"/>
        <path id="Path_477" data-name="Path 477" d="M232.263,219.238v.632a.338.338,0,0,1-.076.217,2.384,2.384,0,0,1-1.361.784,67.829,67.829,0,0,1-6.894,1.3,52.945,52.945,0,0,1-9.159.387,49.232,49.232,0,0,1-10.488-1.48,27.031,27.031,0,0,1-6.117-2.335c-.029-.016-.059-.031-.09-.047-.139-.065-.272-.137-.405-.215a11.418,11.418,0,0,1-2.222-1.619c-.34-.411-.708-.8-1.017-1.238a4.915,4.915,0,0,1-.141-5.785,8.2,8.2,0,0,1,1.817-1.952,20.331,20.331,0,0,1,7.056-3.358c.614-.18,1.234-.342,1.938-.53l.02-.006c.037-.008.074-.018.113-.029a.4.4,0,0,0,.07-.027,17.6,17.6,0,0,1,3.422-.638.3.3,0,0,0,.086,0l.153-.018c.147-.016.282-.035.415-.055s.262-.049.391-.078c.153-.035.323-.336.323-.336V205.5l-1.729.348a33.646,33.646,0,0,0-7.064,1.926,12.9,12.9,0,0,0-4.22,2.56,3.768,3.768,0,0,0-1.222,2.14c0,.017,0,.035,0,.053a3.036,3.036,0,0,0,.742,1.912,10.692,10.692,0,0,0,3.814,2.679,21.1,21.1,0,0,0,2.916,1.1c.086.02.168.055.252.08.121.037.241.072.36.108a.144.144,0,0,0,.039.012c.082.02.162.045.241.068l.041.01a43.479,43.479,0,0,0,5.2,1.085,54.544,54.544,0,0,0,5.853.528,47.057,47.057,0,0,0,7.1-.241,49.472,49.472,0,0,0,5.2-.794q1.489-.325,2.967-.7a1.257,1.257,0,0,1,1.52.557.268.268,0,0,0,.039.045.36.36,0,0,1,.119.26" transform="translate(-153.84 -161.309)" fill="#ccc"/>
        <path id="Path_478" data-name="Path 478" d="M350.364,205.605a1.262,1.262,0,0,1-1.244,1.279,3.969,3.969,0,0,1-.882-.19,35.709,35.709,0,0,0-5.949-1.205.348.348,0,0,0-.375.278h-.02l.029-3.045h.037a.337.337,0,0,0,.26.264,3.321,3.321,0,0,0,.358.068,41.608,41.608,0,0,1,6.417,1.3,1.988,1.988,0,0,1,1.24.792,1.031,1.031,0,0,1,.129.462" transform="translate(-271.93 -161.238)" fill="#ccc"/>
      </g>
      <g id="Group_263" data-name="Group 263">
        <path id="Path_479" data-name="Path 479" d="M135.3,294.168a.819.819,0,0,1-.389-1.539l1.441-.777a.819.819,0,0,1,.777,1.441l-1.441.777a.818.818,0,0,1-.388.1" transform="translate(-106.962 -232.051)" fill="#ec7601"/>
        <path id="Path_480" data-name="Path 480" d="M154.877,249a.819.819,0,0,1-.389-1.539l2.565-1.383a.819.819,0,1,1,.777,1.441l-2.565,1.383a.814.814,0,0,1-.388.1m5.13-2.767a.819.819,0,0,1-.389-1.539l2.565-1.383a.818.818,0,1,1,.777,1.441l-2.565,1.383a.814.814,0,0,1-.388.1m5.13-2.767a.819.819,0,0,1-.389-1.539l2.565-1.383a.819.819,0,1,1,.777,1.441l-2.565,1.383a.816.816,0,0,1-.388.1m5.13-2.767a.819.819,0,0,1-.389-1.539l2.565-1.383a.819.819,0,0,1,.777,1.441l-2.565,1.383a.817.817,0,0,1-.388.1" transform="translate(-122.532 -189.039)" fill="#ec7601"/>
        <path id="Path_481" data-name="Path 481" d="M255.151,223.6a.819.819,0,0,1-.389-1.539l.807-.435-.329-.855a.819.819,0,0,1,1.528-.589l.847,2.2-2.075,1.119a.816.816,0,0,1-.388.1" transform="translate(-202.286 -174.705)" fill="#ec7601"/>
        <path id="Path_482" data-name="Path 482" d="M241.969,176.25a.819.819,0,0,1-.764-.524L240.156,173a.818.818,0,1,1,1.528-.588l1.049,2.722a.819.819,0,0,1-.764,1.113m-2.1-5.444a.819.819,0,0,1-.764-.524l-1.048-2.722a.819.819,0,1,1,1.528-.588l1.048,2.722a.819.819,0,0,1-.764,1.113" transform="translate(-189.3 -132.386)" fill="#ec7601"/>
        <path id="Path_483" data-name="Path 483" d="M231.414,148.844a.819.819,0,0,1-.764-.524l-.588-1.528a.819.819,0,1,1,1.528-.588l.589,1.528a.819.819,0,0,1-.764,1.113" transform="translate(-182.939 -115.868)" fill="#ec7601"/>
      </g>
    </g>
  </g>
</svg>
