<svg xmlns="http://www.w3.org/2000/svg" width="14" height="14" viewBox="0 0 14 14">
  <path id="fax" d="M13.125-7.875v-2.263a.872.872,0,0,0-.256-.619l-1.237-1.237a.872.872,0,0,0-.619-.256H4.375a.875.875,0,0,0-.875.875V.875a.875.875,0,0,0,.875.875h8.75A.875.875,0,0,0,14,.875V-7A.875.875,0,0,0,13.125-7.875ZM7.875-.437A.438.438,0,0,1,7.438,0H6.563a.438.438,0,0,1-.437-.437v-.875a.438.438,0,0,1,.438-.437h.875a.438.438,0,0,1,.438.438Zm0-3.5a.438.438,0,0,1-.437.438H6.563a.438.438,0,0,1-.437-.437v-.875a.438.438,0,0,1,.438-.437h.875a.438.438,0,0,1,.438.438Zm3.5,3.5A.438.438,0,0,1,10.938,0h-.875a.438.438,0,0,1-.437-.437v-.875a.438.438,0,0,1,.438-.437h.875a.438.438,0,0,1,.438.438Zm0-3.5a.438.438,0,0,1-.437.438h-.875a.438.438,0,0,1-.437-.437v-.875a.438.438,0,0,1,.438-.437h.875a.438.438,0,0,1,.438.438Zm0-3.062H5.25v-3.5H9.625v1.313a.438.438,0,0,0,.438.438h1.313ZM1.75-8.75H.875A.875.875,0,0,0,0-7.875V.875a.875.875,0,0,0,.875.875H1.75A.875.875,0,0,0,2.625.875v-8.75A.875.875,0,0,0,1.75-8.75Z" transform="translate(0 12.25)" fill="#1b1b1b"/>
</svg>
