<svg xmlns="http://www.w3.org/2000/svg" width="15.75" height="14" viewBox="0 0 15.75 14">
  <path id="g-map" d="M7.875-12.25A3.445,3.445,0,0,0,4.43-8.8c0,1.538,2.252,4.342,3.114,5.36a.431.431,0,0,0,.662,0C9.069-4.463,11.32-7.266,11.32-8.8A3.445,3.445,0,0,0,7.875-12.25Zm0,4.594A1.148,1.148,0,0,1,6.727-8.8,1.148,1.148,0,0,1,7.875-9.953,1.148,1.148,0,0,1,9.023-8.8,1.148,1.148,0,0,1,7.875-7.656ZM.55-6.345A.875.875,0,0,0,0-5.533V1.312a.438.438,0,0,0,.6.406L4.375,0V-6.373a8.28,8.28,0,0,1-.581-1.269Zm7.325,3.93a1.306,1.306,0,0,1-1-.464c-.538-.634-1.109-1.357-1.627-2.1V0L10.5,1.75V-4.977c-.517.741-1.089,1.463-1.627,2.1A1.307,1.307,0,0,1,7.875-2.415ZM15.15-7.843,11.375-6.125V1.75L15.2.22a.875.875,0,0,0,.55-.812V-7.437A.438.438,0,0,0,15.15-7.843Z" transform="translate(0 12.25)" fill="#1b1b1b"/>
</svg>
