<svg xmlns="http://www.w3.org/2000/svg" width="13.563" height="13.563" viewBox="0 0 13.563 13.563">
  <path id="globe" d="M6.781-12.031A6.781,6.781,0,0,0,0-5.25,6.781,6.781,0,0,0,6.781,1.531,6.781,6.781,0,0,0,13.563-5.25,6.781,6.781,0,0,0,6.781-12.031Zm-.31,6.569A.438.438,0,0,1,6.1-5.25H6.088a.438.438,0,0,0-.309.128l-.155.155a.219.219,0,0,0,0,.309l.155.155a.438.438,0,0,1,.128.309v.256a.437.437,0,0,1-.437.438H5.3a.437.437,0,0,1-.391-.242L4.292-4.979a.219.219,0,0,0-.35-.057L3.41-4.5a.438.438,0,0,1-.309.128H1.389a5.458,5.458,0,0,1-.077-.875,5.475,5.475,0,0,1,5.469-5.469,5.445,5.445,0,0,1,1.685.269L7.095-9.4a.219.219,0,0,0,.024.378l.3.148a.437.437,0,0,1,.242.391v2.136a.219.219,0,0,1-.219.219H7.354a.218.218,0,0,1-.2-.121.121.121,0,0,0-.212-.008Zm4.685,3.013a.438.438,0,0,1-.128.309l-.262.262a.438.438,0,0,1-.309.128h-.415a.438.438,0,0,1-.309-.128l-.356-.356a.73.73,0,0,0-.517-.214.731.731,0,0,0-.178.022L8.1-2.281a.433.433,0,0,1-.106.013H7.712A.438.438,0,0,1,7.4-2.4l-.326-.326a.218.218,0,0,1-.064-.155h0v-.279a.219.219,0,0,1,.138-.2l1.076-.43a.733.733,0,0,0,.153-.083l.648-.462a.217.217,0,0,1,.126-.04h.331a.219.219,0,0,1,.2.135l.146.351a.109.109,0,0,0,.1.067h.1a.109.109,0,0,0,.1-.079l.115-.4a.109.109,0,0,1,.1-.079h.166a.109.109,0,0,1,.109.109v.354a.219.219,0,0,0,.064.155l.326.326a.438.438,0,0,1,.128.309v.673Z" transform="translate(0 12.031)" fill="#1b1b1b"/>
</svg>
