<svg xmlns="http://www.w3.org/2000/svg" width="85.846" height="80.51" viewBox="0 0 85.846 80.51">
  <g id="hand-wash" transform="translate(0 0)">
    <g id="Group_251" data-name="Group 251">
      <path id="Path_441" data-name="Path 441" d="M0,228.683c1.469-1.149,2.923-2.317,4.415-3.435a2.659,2.659,0,0,0,.932-1.325c.472-1.307.956-2.615,1.536-3.875a13.517,13.517,0,0,1,2.841-3.9c.672-.668,1.328-1.355,2.026-1.994a1.228,1.228,0,0,1,1.8,0,1.33,1.33,0,0,1,.078,1.819,4.563,4.563,0,0,1-.4.426c-.434.433-.861.874-1.309,1.293a13.682,13.682,0,0,0-3.677,5.89c-.224.688-.464,1.371-.691,2.059a2.34,2.34,0,0,1-.858,1.2c-1.454,1.08-2.883,2.193-4.327,3.286A1.454,1.454,0,0,1,0,229.856v-1.173" transform="translate(0 -177.867)"/>
      <path id="Path_442" data-name="Path 442" d="M141.184,55.775a4.754,4.754,0,0,0-3.509-3.049c.413-2.116-.042-3.892-1.944-4.965-2.292-1.293-4.211-.473-5.788,1.357l-1.313-1.81a5.545,5.545,0,0,0-2.89-1.1A5.289,5.289,0,0,0,121.6,48.38c-.153-.223-.264-.373-.361-.531a4.2,4.2,0,0,0-6.5-.85c-1.753,1.679-3.454,3.412-5.178,5.119-.2.193-.4.378-.635.6L94.529,66.85c-.165.19-.28.346-.415.48-.989.986-1.983,1.966-2.972,2.953a3.583,3.583,0,0,0-.5.564,1.3,1.3,0,0,0,.195,1.679,1.235,1.235,0,0,0,1.677.079,3.529,3.529,0,0,0,.373-.336q2.541-2.493,5.081-4.99,9.087-8.979,18.171-17.966a4.417,4.417,0,0,1,.625-.552,1.5,1.5,0,0,1,1.659-.055,1.457,1.457,0,0,1,.74,1.4,1.767,1.767,0,0,1-.583,1.253c-1.169,1.2-2.322,2.416-3.487,3.62q-3.523,3.644-7.05,7.282a3.665,3.665,0,0,0-.438.505,1.309,1.309,0,0,0,.185,1.684,1.231,1.231,0,0,0,1.677.089,4.659,4.659,0,0,0,.547-.515q2.335-2.4,4.668-4.809,4.559-4.682,9.127-9.354a3.836,3.836,0,0,1,.831-.692,1.925,1.925,0,0,1,2.875,1.672,2.3,2.3,0,0,1-.769,1.7q-1.289,1.375-2.586,2.744-5.271,5.563-10.543,11.129c-.5.527-1,1.051-1.474,1.6a1.252,1.252,0,0,0,.055,1.865,1.316,1.316,0,0,0,1.822-.037,6.3,6.3,0,0,0,.472-.475q5.433-5.757,10.865-11.513,3.448-3.657,6.889-7.319a2.9,2.9,0,0,1,.43-.4,1.568,1.568,0,0,1,2.233,2.139,6.951,6.951,0,0,1-.512.662q-1.964,2.342-3.932,4.683-5.483,6.548-10.964,13.1c-.573.685-1.16,1.36-1.711,2.064a1.261,1.261,0,0,0,.148,1.864,1.3,1.3,0,0,0,1.869-.171c.116-.119.218-.254.326-.381q2.08-2.466,4.157-4.93,4.347-5.153,8.692-10.308c.809-.96,1.609-1.931,2.455-2.859a1.889,1.889,0,0,1,3.272,1.656,3.014,3.014,0,0,1-.5,1.043q-3.458,4.989-6.943,9.963-4.554,6.523-9.107,13.046a3.574,3.574,0,0,0-.393.732,1.169,1.169,0,0,0,.4,1.35,1.088,1.088,0,0,0,1.32.2,3.313,3.313,0,0,0,.786-.719c.264-.3.485-.636.73-.965l1.706-2.448a.334.334,0,0,1-.017-.035c3.311-4.742,6.615-9.475,9.958-14.265l.02.008,1.58-2.268-.1-.065.158-.012,1.954-2.8a4.77,4.77,0,0,0,.915-4.643" transform="translate(-75.244 -38.129)"/>
      <path id="Path_443" data-name="Path 443" d="M394.313,59.715c-.437,1.41-.87,2.824-1.318,4.231a1.377,1.377,0,0,1-1.333,1.073,1.3,1.3,0,0,1-1.246-1.053,2.588,2.588,0,0,1,.128-1.054c.339-1.148.715-2.287,1.073-3.432a4.236,4.236,0,0,0,.185-.727,1.443,1.443,0,0,0-1.906-1.691,10.787,10.787,0,0,0-2.567,1.182,7.879,7.879,0,0,0-3.168,4.1c-.673,1.862-1.331,3.731-2.037,5.579a5.137,5.137,0,0,1-.853,1.511,2.445,2.445,0,0,1-1.954.8c-.977-.01-1.956-.005-2.933,0-.2,0-.41.025-.744.052l1.954-2.8h1.839c.1-.25.228-.521.331-.8.672-1.833,1.286-3.689,2.018-5.5a10.753,10.753,0,0,1,7.833-6.782,4.167,4.167,0,0,1,4.76,3.005,4,4,0,0,1-.06,2.309" transform="translate(-312.568 -45.191)"/>
      <path id="Path_445" data-name="Path 445" d="M286.483,403.959a1.264,1.264,0,0,1-1.563-.628,3.761,3.761,0,0,1-.267-.7q-1.866-6.075-3.729-12.151c-.066-.21-.143-.416-.245-.717l2.508-.945c.217.719.423,1.407.635,2.094l3.345,10.87a4.809,4.809,0,0,1,.193.725,1.318,1.318,0,0,1-.876,1.454" transform="translate(-233.552 -323.532)"/>
      <path id="Path_446" data-name="Path 446" d="M98.3,297.557a20.435,20.435,0,0,1-2.225.962c-2.671,1.053-5.349,2.09-8.024,3.136-.151.059-.292.138-.485.23l-2.508.945c-.908.349-1.783.682-2.656,1.019-3.042,1.179-6.076,2.381-9.129,3.531a22.828,22.828,0,0,1-6.857,1.377,24.587,24.587,0,0,1-4.584-.178,1.716,1.716,0,0,0-1.172.326q-6.279,3.853-12.569,7.69a5.122,5.122,0,0,1-.735.4,1.294,1.294,0,0,1-1.593-.547A1.324,1.324,0,0,1,46,314.834a3.4,3.4,0,0,1,.547-.383q6.709-4.113,13.422-8.222a2.023,2.023,0,0,1,1.422-.356,22.656,22.656,0,0,0,11.908-1.3q11.371-4.46,22.761-8.877a6.871,6.871,0,0,0,.913-.411,2.456,2.456,0,0,0,1.054-3.042,2.525,2.525,0,0,0-2.693-1.53c-1.956.287-3.922.51-5.882.771-1.877.248-3.753.519-5.632.762a9.448,9.448,0,0,1-1.583.1,3.082,3.082,0,0,1-2.673-4.409,22.988,22.988,0,0,1,2.1-3.116,1.26,1.26,0,0,1,1.733-.225,1.3,1.3,0,0,1,.361,1.718c-.287.509-.65.976-.979,1.459l-.92,1.35a.719.719,0,0,0,.908.6c1.822-.25,3.642-.509,5.464-.752q2.816-.378,5.635-.729a15.662,15.662,0,0,1,2-.17,5.1,5.1,0,0,1,2.441,9.495" transform="translate(-37.935 -236.601)"/>
      <path id="Path_449" data-name="Path 449" d="M404.381,154.882c.138.5.268.926.371,1.358a1.348,1.348,0,0,1-2.578.785,4.09,4.09,0,0,1,.658-4.517,24.57,24.57,0,0,0,4.874-9.525c.853-2.942,1.812-5.853,2.729-8.776a3.063,3.063,0,0,1,.286-.691,1.3,1.3,0,0,1,1.447-.577,1.271,1.271,0,0,1,.95,1.312,2.506,2.506,0,0,1-.122.652c-1.149,3.669-2.282,7.342-3.463,11a24.509,24.509,0,0,1-4.371,7.944c-.262.323-.5.665-.781,1.037" transform="translate(-334.324 -110.576)"/>
      <path id="Path_452" data-name="Path 452" d="M452.705,411.966a1.392,1.392,0,0,1-.955,1.466,1.314,1.314,0,0,1-1.476-.682,3.853,3.853,0,0,1-.235-.624q-1.583-4.928-3.16-9.857a3.184,3.184,0,0,1-.156-.647,1.289,1.289,0,0,1,2.447-.722,4.718,4.718,0,0,1,.265.7q1.545,4.809,3.083,9.621c.092.289.15.59.188.743" transform="translate(-371.71 -332.963)"/>
      <g id="Group_252" data-name="Group 252">
        <path id="Path_444" data-name="Path 444" d="M313.787,157.824c-.435,3.484-2.566,5.645-5.908,6.661-.082,3.247-1.436,5.653-4.619,6.642-2.681.835-4.928-.086-6.84-2.213l1.706-2.448a3.6,3.6,0,0,0,4.179,2.2,3.656,3.656,0,0,0,2.824-3.573c-.017-.334-.034-.668-.027-1a2.214,2.214,0,0,1,1.615-2.1c.213-.062.432-.107.648-.158a5.1,5.1,0,0,0,3.36-7.149,4.6,4.6,0,0,0-2.638-2.5l1.58-2.268c3.036,1.9,4.548,4.485,4.12,7.918" transform="translate(-246.649 -124.736)" fill="#ec7601"/>
        <path id="Path_447" data-name="Path 447" d="M398.641,294.005a5.983,5.983,0,0,1,5.785,5,5.781,5.781,0,0,1-.081,2.236,3.013,3.013,0,0,0,.194,1.784,7.05,7.05,0,0,1,.507,2.005,4.68,4.68,0,0,1-4.169,4.84,4.733,4.733,0,0,1-5.029-3.531,4.266,4.266,0,0,0-1.293-2.171,5.869,5.869,0,0,1,2.522-9.932,11.97,11.97,0,0,1,1.563-.227m3.2,5.827A3.125,3.125,0,0,0,400,297a3.038,3.038,0,0,0-3.511.463,3.074,3.074,0,0,0-1.021,3.244,3.476,3.476,0,0,0,1.219,1.851,4.848,4.848,0,0,1,1.67,2.916,2.035,2.035,0,1,0,3.836-1.193,5.6,5.6,0,0,1-.409-3.742,5.053,5.053,0,0,0,.056-.7" transform="translate(-326.78 -244.639)" fill="#ec7601"/>
        <path id="Path_448" data-name="Path 448" d="M13.9,17.944a5.609,5.609,0,0,1,5.631-5.567,5.6,5.6,0,1,1-.064,11.194A5.6,5.6,0,0,1,13.9,17.944m5.642-2.894a2.953,2.953,0,0,0-2.963,2.877,3.039,3.039,0,0,0,2.873,2.985,2.971,2.971,0,0,0,3-2.934,2.889,2.889,0,0,0-2.908-2.929" transform="translate(-11.566 -10.298)" fill="#ec7601"/>
        <path id="Path_450" data-name="Path 450" d="M464.434,200.052a4.616,4.616,0,0,1-4.727,4.731,4.676,4.676,0,0,1-4.72-4.759,4.811,4.811,0,0,1,4.711-4.688,4.734,4.734,0,0,1,4.736,4.716m-6.746-.043a1.957,1.957,0,0,0,2,2.1,2.027,2.027,0,0,0,2.123-2.011,2.06,2.06,0,1,0-4.118-.087" transform="translate(-378.593 -162.538)" fill="#ec7601"/>
        <path id="Path_451" data-name="Path 451" d="M18.28,134.9a4.068,4.068,0,1,1,4.077-4.1,4.037,4.037,0,0,1-4.077,4.1m1.378-4.034a1.406,1.406,0,0,0-1.382-1.479,1.44,1.44,0,0,0-1.447,1.427,1.465,1.465,0,0,0,1.4,1.476,1.388,1.388,0,0,0,1.427-1.424" transform="translate(-11.769 -105.478)" fill="#ec7601"/>
        <path id="Path_453" data-name="Path 453" d="M198.69,15.837l-.065-.091A5.679,5.679,0,0,0,190.147,10a5.571,5.571,0,0,0-4.577-1.985,5.424,5.424,0,0,0-3.63,1.639,8.122,8.122,0,0,0-.8.917,5.069,5.069,0,0,0-.455,1.112,4,4,0,0,0-1.995.242,7.03,7.03,0,0,0-3.039,2.544,7.369,7.369,0,0,0-1,4.125c0,.047.008.1.015.143.03.23.069.455.119.675,0,.01.005.02.007.03.007.025.012.05.017.076a6.767,6.767,0,0,0,.316.982,6.959,6.959,0,0,0,1.711,2.446,2.017,2.017,0,0,1,.154.235l.013.018,1.985-1.949a3.786,3.786,0,0,1-1.65-3.7,3.677,3.677,0,0,1,2.242-3.094,4.136,4.136,0,0,1,1.447-.346,2.163,2.163,0,0,0,2.1-1.491,2.921,2.921,0,0,1,5.165-.682,1.915,1.915,0,0,0,3.016.531,2.937,2.937,0,0,1,4.318.976,1.506,1.506,0,0,1,.183,1.3,5.545,5.545,0,0,1,2.89,1.1" transform="translate(-145.304 -6.659)" fill="#ec7601"/>
      </g>
      <path id="Path_454" data-name="Path 454" d="M119.492,1.366A4.558,4.558,0,0,0,112.1,2.639c-.06.121-.123.24-.2.395a5.058,5.058,0,0,0-.648-.217,6.075,6.075,0,0,0-1.558-.235,4.137,4.137,0,0,0-3.625,2.467,4.087,4.087,0,0,0,.505,4.344c.156.22.3.447.48.71-.28.112-.482.195-.683.274a4.562,4.562,0,0,0-2.906,4.214,4.916,4.916,0,0,0,1.078,3.1c.693.944,1.384,1.887,2.094,2.856a2.177,2.177,0,0,1-.322.181,4.215,4.215,0,0,0-1.938,6.545c.344.468.662.957,1,1.451l1.92-1.885s-.639-.878-.9-1.33a1.6,1.6,0,0,1,.413-2.089,1.66,1.66,0,0,1,2.119.27,8.746,8.746,0,0,1,.572.776l.087.121,1.953-1.918s.325-.472-.066-.071c-.109-.128-.262-.284-.39-.457q-2.2-3-4.4-6a2.128,2.128,0,0,1-.46-2.169,1.951,1.951,0,0,1,3.031-.866,3.152,3.152,0,0,1,.578.6q2.168,2.864,4.322,5.741c.082.109.27.386.27.386l1.917-1.882s-.95-1.278-1.415-1.892q-2.954-3.9-5.905-7.809a4.3,4.3,0,0,1-.544-.84,1.557,1.557,0,0,1,.5-1.874,1.6,1.6,0,0,1,2.065.18c.393.395.74.834,1.1,1.256.964,1.122,1.936,2.235,2.88,3.373a1.417,1.417,0,0,1,.353.8c0,.269.018.531.047.787a7.369,7.369,0,0,1,1-4.125c-.638-.771-1.261-1.442-1.788-2.181a1.849,1.849,0,0,1,.27-2.436,1.941,1.941,0,0,1,2.529-.079c.719.646,1.335,1.407,2.028,2.153a4,4,0,0,1,1.995-.242,5.07,5.07,0,0,1,.455-1.112c-.848-.892-1.6-1.758-2.431-2.542" transform="translate(-86.09 0)"/>
    </g>
  </g>
</svg>
