<svg xmlns="http://www.w3.org/2000/svg" width="84.999" height="85.422" viewBox="0 0 84.999 85.422">
  <g id="hand-shake" transform="translate(-916 -1907)">
    <g id="Group_253" data-name="Group 253" transform="translate(916 1907)">
      <g id="Group_256" data-name="Group 256">
        <path id="Path_457" data-name="Path 457" d="M189.974,251.444a8.874,8.874,0,0,1-.4,1.233s0,0,0,.007c-1.121,2.695-3.388,3.825-6.45,3.145a5.516,5.516,0,0,1-2.293,3.967,5.329,5.329,0,0,1-4.567.733c-.062.232-.131.437-.174.649a5.227,5.227,0,0,1-6.992,3.967c-.181-.062-.359-.132-.591-.216-.069.212-.127.386-.183.557a4.917,4.917,0,0,1-3.66,3.524h0a3.58,3.58,0,0,1-.876.145h-.7a3.1,3.1,0,0,1-.72-.143h0a5.655,5.655,0,0,1-2.2-1.137c-1.23-.949-2.472-1.881-3.758-2.855l1.582-1.95c.459.357.892.7,1.333,1.034.907.689,1.8,1.4,2.73,2.055a2.461,2.461,0,0,0,3.143-3.778c-.8-.733-1.667-1.384-2.505-2.073a8.175,8.175,0,0,1-.633-.542,1.259,1.259,0,0,1-.078-1.73,1.226,1.226,0,0,1,1.727-.1c.965.749,1.9,1.536,2.853,2.307.867.7,1.718,1.424,2.6,2.1a2.819,2.819,0,0,0,4.469-1.594,2.583,2.583,0,0,0-.992-2.679c-1.694-1.4-3.4-2.773-5.1-4.161a2.842,2.842,0,0,1-.481-.457,1.233,1.233,0,0,1,.056-1.54,1.169,1.169,0,0,1,1.509-.272,3.659,3.659,0,0,1,.542.383c2.18,1.77,4.351,3.548,6.539,5.307a4.527,4.527,0,0,0,1.268.776,2.7,2.7,0,0,0,3.232-1.224,2.669,2.669,0,0,0-.517-3.415c-.829-.74-1.71-1.422-2.57-2.124-1.464-1.2-2.935-2.383-4.391-3.588A2.079,2.079,0,0,1,172.1,247a1.123,1.123,0,0,1,.321-1.293,1.1,1.1,0,0,1,1.235-.245,3.445,3.445,0,0,1,.762.49q4.176,3.393,8.336,6.8a2.919,2.919,0,0,0,2.287.782,2.735,2.735,0,0,0,1.453-4.821c-1.13-.943-2.3-1.839-3.455-2.755l-8.947-7.1a2.882,2.882,0,0,1-.43-.392,1.226,1.226,0,0,1,1.509-1.881,4.932,4.932,0,0,1,.678.484c4.005,3.178,8.017,6.35,12,9.553a18.853,18.853,0,0,1,1.712,1.788,7.155,7.155,0,0,1,.408,3.04" transform="translate(-121.542 -183.733)"/>
        <path id="Path_458" data-name="Path 458" d="M127.748,36.172a18.125,18.125,0,0,1-17.668-21.819,1.348,1.348,0,0,1,.874-1.125,1.206,1.206,0,0,1,1.61,1.164,14.728,14.728,0,0,1-.206,1.565,15.137,15.137,0,0,0,3.505,12.109,15.516,15.516,0,0,0,21.551,2.19,14.989,14.989,0,0,0,5.8-10.334A15.56,15.56,0,0,0,114.606,9.748a4.275,4.275,0,0,1-.276.416,1.236,1.236,0,0,1-1.7.331,1.175,1.175,0,0,1-.363-1.682,25.959,25.959,0,0,1,2.193-2.929A17.352,17.352,0,0,1,123.986.422,17.533,17.533,0,0,1,139.539,4.4a17.161,17.161,0,0,1,5.993,10.491,17.6,17.6,0,0,1-3.922,14.725,17.56,17.56,0,0,1-10.474,6.177c-1.112.216-2.258.257-3.388.379" transform="translate(-85.248 0)" fill="#ec7601"/>
        <path id="Path_459" data-name="Path 459" d="M159.84,44.285c.23-.213.434-.392.627-.581.633-.624,1.239-1.277,1.9-1.872a1.981,1.981,0,0,1,2.856-.032c1,.917,1.966,1.884,2.888,2.884a2.023,2.023,0,0,1-.064,2.922c-.589.628-1.214,1.221-1.821,1.833-.193.195-.377.4-.62.654.547.548,1.073,1.071,1.6,1.6.312.314.642.614.928.951a2.188,2.188,0,0,1-.071,2.913c-.9.959-1.83,1.893-2.793,2.788a2.049,2.049,0,0,1-2.932-.039c-.71-.664-1.38-1.37-2.068-2.056-.117-.117-.241-.228-.4-.377-.172.146-.344.275-.5.425-.652.644-1.287,1.306-1.95,1.94a2.083,2.083,0,0,1-3.117.01q-1.358-1.292-2.65-2.653a2.071,2.071,0,0,1,0-3.054c.583-.633,1.212-1.223,1.818-1.835.191-.193.372-.4.605-.643l-1.08-1.087c-.47-.473-.96-.928-1.407-1.421a2.009,2.009,0,0,1-.023-2.858c.928-.995,1.895-1.956,2.887-2.887a2.023,2.023,0,0,1,2.924.068c.635.58,1.223,1.212,1.835,1.818.194.191.4.373.632.592m-6.167,1.959a4.886,4.886,0,0,1,.485.381q1.188,1.17,2.36,2.357a1.317,1.317,0,0,1,.057,2.159c-.113.122-.235.237-.353.355-.708.707-1.418,1.413-2.121,2.124a3.878,3.878,0,0,0-.3.353l2.215,2.245c.132-.157.3-.382.492-.58.741-.752,1.485-1.5,2.24-2.241a1.318,1.318,0,0,1,2.16-.018c.618.6,1.221,1.216,1.831,1.825l1.085,1.083c.771-.776,1.5-1.478,2.227-2.246-1.015-1.007-1.931-1.979-2.917-2.873a1.417,1.417,0,0,1,.007-2.18c.561-.5,1.068-1.054,1.6-1.585l1.161-1.164-2.092-2.286c-.21.193-.4.353-.57.526-.69.686-1.4,1.357-2.06,2.068-.87.932-1.583,1.17-2.64.021-.841-.915-1.751-1.766-2.584-2.6l-2.285,2.276" transform="translate(-117.326 -32.023)" fill="#ec7601"/>
        <path id="Path_460" data-name="Path 460" d="M196.97,211.374a1.241,1.241,0,0,1-.97.927,1.3,1.3,0,0,1-1.148-.359q-1.535-1.217-3.067-2.436l-2.775-2.2,2.982-.818c1.235.978,2.34,1.854,3.441,2.733.392.312.8.608,1.163.947a1.147,1.147,0,0,1,.372,1.206" transform="translate(-146.884 -160.465)"/>
        <path id="Path_462" data-name="Path 462" d="M19.165,121.82l3.09-2.228a9.433,9.433,0,0,1,2.466-1.37,3.079,3.079,0,0,1,.721-.185,1.17,1.17,0,0,1,1.265.862,1.211,1.211,0,0,1-.575,1.42l0,0c-2.112.754-3.688,2.345-5.522,3.534-.047.03-.094.059-.14.091a2.137,2.137,0,0,1-2.357.156L15.3,122.638q-7.084-3.7-14.166-7.408A3.755,3.755,0,0,1,.43,114.8a1.163,1.163,0,0,1-.26-1.509,1.2,1.2,0,0,1,1.42-.573,6.783,6.783,0,0,1,.978.454q7.971,4.163,15.939,8.331c.194.1.395.192.657.319" transform="translate(0 -87.547)"/>
        <g id="Group_257" data-name="Group 257">
          <path id="Path_455" data-name="Path 455" d="M36.8,250.71a4.6,4.6,0,0,0-3.811-2.543c.031-3.145-1.406-5.048-4.471-5.608a4.689,4.689,0,0,0-6.6-5.32c-.058-.12-.123-.238-.174-.363a4.989,4.989,0,0,0-8.639-1.083c-.279.372-.591.72-.949,1.155-.528-.533-1.039-1-1.493-1.52a10.32,10.32,0,0,1-1.874-3.319,2.819,2.819,0,0,0-1.1-1.409c-1.788-1.224-3.553-2.483-5.327-3.727a3.855,3.855,0,0,0-.559-.361,1.229,1.229,0,0,0-1.556.406A1.171,1.171,0,0,0,.4,228.6c.292.288.693.47.954.767a9.6,9.6,0,0,0,3.557,2.614,2.647,2.647,0,0,1,1.736,1.487,11.99,11.99,0,0,0,2.108,3.571c.562.649,1.168,1.257,1.788,1.917a4.916,4.916,0,0,0-.033,5.356,5.065,5.065,0,0,0,4.9,2.372,4.593,4.593,0,0,0,1.714,3.276,4.763,4.763,0,0,0,3.62.949,5,5,0,0,0,1.7,3.388,5.257,5.257,0,0,0,3.517,1.161c.065.374.107.691.172,1a4.641,4.641,0,0,0,4.46,3.5,4.429,4.429,0,0,0,3.4-1.643c.288-.332.566-.673.863-1.027l1.582-1.95a4.546,4.546,0,0,0,.357-4.634M16.619,243.3a2.466,2.466,0,0,1-4.351-1.7,2.1,2.1,0,0,1,.481-1.4c.829-1.043,1.64-2.1,2.514-3.1a2.431,2.431,0,0,1,3.437-.265,2.4,2.4,0,0,1,.37,3.417q-1.2,1.545-2.452,3.047m5.075,4.237a2.1,2.1,0,0,1-1.674.9,1.933,1.933,0,0,1-1.828-1,1.958,1.958,0,0,1,.047-2.135c.334-.508.747-.965,1.13-1.442q1.488-1.852,2.982-3.7a2.024,2.024,0,0,1,2.066-.836,2.11,2.11,0,0,1,1.239,3.3c-.3.421-.644.809-.972,1.21-1,1.23-2,2.454-2.991,3.691m4.707,5.236a2.289,2.289,0,0,1-3.127-2.334,2.5,2.5,0,0,1,.6-1.6c.724-.914,1.438-1.839,2.2-2.719a2.515,2.515,0,0,1,2.672-.927,2.27,2.27,0,0,1,1.667,2.757,3.876,3.876,0,0,1-.637,1.333c-.664.892-1.391,1.734-2.1,2.588a2.841,2.841,0,0,1-1.275.9m7.97,1.11c-.769.981-1.558,1.946-2.351,2.906a1.763,1.763,0,0,1-1.46.675,1.95,1.95,0,0,1-1.734-2.975,11.123,11.123,0,0,1,.856-1.121c.519-.646,1.041-1.295,1.574-1.932a1.9,1.9,0,0,1,2.1-.637,1.918,1.918,0,0,1,1.4,1.6,1.793,1.793,0,0,1-.379,1.482" transform="translate(0 -176.007)"/>
          <path id="Path_456" data-name="Path 456" d="M321.766,232.344a3.717,3.717,0,0,1-.7.45c-1.77.987-3.544,1.966-5.345,2.962-.067.165-.143.341-.21.522a11.845,11.845,0,0,1-3.769,5.293q-2.832,2.267-5.666,4.531c-.152.12-.3.245-.43.35-.013.058-.027.114-.042.169a7.155,7.155,0,0,0-.408-3.04c.267-.212.611-.479.95-.749,1.371-1.088,2.748-2.171,4.11-3.27a9.45,9.45,0,0,0,3.007-4.522,2.435,2.435,0,0,1,1.288-1.5c1.819-.954,3.6-1.977,5.4-2.971a3.673,3.673,0,0,1,.6-.288,1.221,1.221,0,0,1,1.438.544,1.162,1.162,0,0,1-.225,1.516" transform="translate(-237.177 -178.91)"/>
          <path id="Path_461" data-name="Path 461" d="M143.467,173.525c-.339.109-.689.192-1.219.337l-2.982.818c-.608.156-1.221.314-1.881.486l-1,2.719c-.143.39-.276.785-.437,1.168a5.691,5.691,0,0,1-10.863-1.233,6.7,6.7,0,0,1,.085-2.478c.361-2.022.762-4.034,1.119-6.056a5.639,5.639,0,0,1,2.748-4.068c.31-.185.613-.388.934-.551a1.234,1.234,0,0,1,1.3,2.1c-.314.227-.658.412-.992.613a3.233,3.233,0,0,0-1.571,2.96,15.783,15.783,0,0,1-.983,5.24,3.229,3.229,0,0,0,2.037,4.331,3.141,3.141,0,0,0,3.887-1.859c.426-1.023.776-2.077,1.161-3.118.143-.39.3-.776.437-1.168a1.28,1.28,0,0,1,.945-.856q3.293-.893,6.588-1.772a1.253,1.253,0,0,1,1.638.863,1.267,1.267,0,0,1-.949,1.527" transform="translate(-97.139 -127.839)"/>
          <path id="Path_463" data-name="Path 463" d="M268.709,140.687c.95-.466,1.844-.908,2.741-1.344a10.7,10.7,0,0,1,1.06-.483,1.179,1.179,0,0,1,1.436.534,1.237,1.237,0,0,1-.2,1.525,1.665,1.665,0,0,1-.413.276c-1.219.6-2.444,1.191-3.663,1.792a2.2,2.2,0,0,1-2.424-.259c-.832-.6-1.672-1.2-2.5-1.8a11.206,11.206,0,0,0-2.707-1.615,1.2,1.2,0,0,1-.822-1.146,1.154,1.154,0,0,1,.576-1.047,1.3,1.3,0,0,1,1.2-.092,10.188,10.188,0,0,1,2.547,1.395q1.216.878,2.432,1.755c.224.161.455.312.743.51" transform="translate(-202.992 -106.408)"/>
          <path id="Path_464" data-name="Path 464" d="M341.015,116.108a1.371,1.371,0,0,1-.8,1.179c-.572.281-1.142.565-1.714.845q-3.358,1.644-6.717,3.286a5.449,5.449,0,0,1-.761.332,1.231,1.231,0,0,1-1.112-2.149,2.715,2.715,0,0,1,.5-.29q4.251-2.087,8.506-4.167a2.76,2.76,0,0,1,.619-.234,1.26,1.26,0,0,1,1.477,1.2" transform="translate(-256.016 -89.279)"/>
        </g>
      </g>
    </g>
  </g>
</svg>
