<svg xmlns="http://www.w3.org/2000/svg" width="173.581" height="83.89" viewBox="0 0 173.581 83.89">
  <g id="index-logo" transform="translate(-1393.633 -176.378)">
    <g id="Group_27" data-name="Group 27" transform="translate(1393.887 190.254)">
      <path id="Path_50" data-name="Path 50" d="M80.446,60.468c-8.65-10.333-11.381-19.791-11.017-27.9l-3.482-.946c.933,8.182,4.848,17.948,14.431,28.9Z" transform="translate(11.964 5.905)" fill="#1b1b1b"/>
      <path id="Path_51" data-name="Path 51" d="M64.059.219c27.928,41.12,5.963,65.1.592,70.014H50.767c9.1-5.982,39.1-30.1,13.292-70.014" transform="translate(9.004 -0.219)" fill="#f99d31"/>
      <path id="Path_52" data-name="Path 52" d="M84.967,8.63,73.882,10.12a33.155,33.155,0,0,0-6.673,12.113,34.038,34.038,0,0,0-1.225,13.9l3.482.945c.66-15.18,12.064-25.7,15.5-28.517Z" transform="translate(11.925 1.408)" fill="#1b1b1b"/>
      <path id="Path_53" data-name="Path 53" d="M88.133,39.792a1.3,1.3,0,0,1,.66.166,1.836,1.836,0,0,1,.546.4A2.2,2.2,0,0,1,89.7,41a2.125,2.125,0,0,1,.136.758h-.66a2.188,2.188,0,0,0,0-.545,2.963,2.963,0,0,0-.228-.472,1.139,1.139,0,0,0-.478-.237.815.815,0,0,0-.409-.118.9.9,0,0,0-.41.118,1.409,1.409,0,0,0-.546.756,2.374,2.374,0,0,0,0,.568v3.593a1.2,1.2,0,0,0,0,.568,1.3,1.3,0,0,0,.227.473,1.94,1.94,0,0,0,.319.307,1.181,1.181,0,0,0,.41,0,.815.815,0,0,0,.409.118,1.44,1.44,0,0,0,.342-.307,2.976,2.976,0,0,0,.228-.473,2.5,2.5,0,0,0,0-.568h.66a2.436,2.436,0,0,1-.136.78,1.823,1.823,0,0,1-.364.615,1.555,1.555,0,0,1-.541.424A1.511,1.511,0,0,1,88,47.5a1.594,1.594,0,0,1-.66-.142,1.564,1.564,0,0,1-.546-.425,1.823,1.823,0,0,1-.364-.615,2.435,2.435,0,0,1-.136-.78V41.826a2.113,2.113,0,0,1,.136-.756,2.23,2.23,0,0,1,.364-.639,1.835,1.835,0,0,1,.546-.4,1.307,1.307,0,0,1,.66-.165" transform="translate(15.931 7.499)" fill="#1b1b1b"/>
      <path id="Path_54" data-name="Path 54" d="M94.271,41.826a2.374,2.374,0,0,0,0-.568,1.184,1.184,0,0,0-.227-.449,1.016,1.016,0,0,0-.319-.307.9.9,0,0,0-.41-.118.966.966,0,0,0-.422.125,1.01,1.01,0,0,0-.329.3,2.738,2.738,0,0,0-.228.449,2.506,2.506,0,0,0,0,.568v3.593a2.506,2.506,0,0,0,0,.568,1.8,1.8,0,0,0,.228.473,1.434,1.434,0,0,0,.341.307.618.618,0,0,0,.41,0,1.054,1.054,0,0,0,.387,0,1.44,1.44,0,0,0,.342-.307,2.831,2.831,0,0,0,.227-.449,2.375,2.375,0,0,0,0-.568Zm-1.092-2.034a1.293,1.293,0,0,1,.66.166,1.836,1.836,0,0,1,.546.4,2.837,2.837,0,0,1,.364.638,2.125,2.125,0,0,1,.136.758v3.617a2.118,2.118,0,0,1-.136.756,2.351,2.351,0,0,1-.364.615,1.578,1.578,0,0,1-.546.425,1.613,1.613,0,0,1-1.319,0A1.143,1.143,0,0,1,92,46.886a1.823,1.823,0,0,1-.387-.614,2.118,2.118,0,0,1,0-.756V41.826a2.118,2.118,0,0,1,0-.756A2.387,2.387,0,0,1,92,40.43a1.778,1.778,0,0,1,1.206-.638" transform="translate(16.962 7.499)" fill="#1b1b1b"/>
      <path id="Path_55" data-name="Path 55" d="M96.726,41.055a2.819,2.819,0,0,1,.364-.639,1.836,1.836,0,0,1,.546-.4,1.586,1.586,0,0,1,1-.11,1.628,1.628,0,0,1,.871.511,2.2,2.2,0,0,1,.363.639,2.142,2.142,0,0,1,.137.756V47.3h-.661V41.811a2.375,2.375,0,0,0,0-.568,1.639,1.639,0,0,0-.227-.449,1,1,0,0,0-.33-.3.961.961,0,0,0-.422-.125.908.908,0,0,0-.41.118,1.421,1.421,0,0,0-.546.756,2.5,2.5,0,0,0,0,.568V47.3h-.66V41.811a2.114,2.114,0,0,1,.136-.756" transform="translate(17.967 7.514)" fill="#1b1b1b"/>
      <path id="Path_56" data-name="Path 56" d="M101.755,39.911h3v.52h-2.345V43.34h2.094v.52h-2.094v3.406h-.66Z" transform="translate(18.948 7.522)" fill="#1b1b1b"/>
      <path id="Path_57" data-name="Path 57" d="M106.23,39.911h3.005v.52h-2.345V43.34h2.094v.52h-2.094v2.885h2.345v.521H106.23Z" transform="translate(19.82 7.522)" fill="#1b1b1b"/>
      <path id="Path_58" data-name="Path 58" d="M111.611,43.336h.932a.618.618,0,0,0,.41,0,1.156,1.156,0,0,0,.342-.331,2.731,2.731,0,0,0,.227-.449,2.371,2.371,0,0,0,0-.568,2.371,2.371,0,0,0,0-.568,2.733,2.733,0,0,0-.227-.449.854.854,0,0,0-.342-.307.524.524,0,0,0-.41-.118h-.932Zm1.888.261a1.565,1.565,0,0,1,.3.259,1.461,1.461,0,0,1,.274.379,1.721,1.721,0,0,1,.2.473,1.4,1.4,0,0,1,0,.614v1.962H113.7V45.322a1.2,1.2,0,0,0,0-.568,1.315,1.315,0,0,0-.546-.78,1.18,1.18,0,0,0-.41,0H111.7V47.4h-.729V39.931h1.593a1.7,1.7,0,0,1,.684.141,2.468,2.468,0,0,1,.546.427,1.718,1.718,0,0,1,.342.638,2.114,2.114,0,0,1,.136.756,2.956,2.956,0,0,1-.182.993,1.345,1.345,0,0,1-.57.71" transform="translate(20.745 7.526)" fill="#1b1b1b"/>
      <path id="Path_59" data-name="Path 59" d="M116.1,39.911h3v.52h-2.345V43.34h2.094v.52h-2.094v2.885H119.1v.521h-3Z" transform="translate(21.745 7.522)" fill="#1b1b1b"/>
      <path id="Path_60" data-name="Path 60" d="M120.935,41.057a2.2,2.2,0,0,1,.363-.639,1.856,1.856,0,0,1,.547-.4,1.448,1.448,0,0,1,1.319,0,1.836,1.836,0,0,1,.546.4,2.175,2.175,0,0,1,.364.639,2.113,2.113,0,0,1,.136.756V47.3h-.66V41.813a1.2,1.2,0,0,0,0-.568,1.577,1.577,0,0,0-.2-.449,1.073,1.073,0,0,0-.364-.307.727.727,0,0,0-.82,0,1.076,1.076,0,0,0-.342.307,2.827,2.827,0,0,0-.227.449,2.5,2.5,0,0,0,0,.568V47.3h-.66V41.813a2.114,2.114,0,0,1,.136-.756" transform="translate(22.688 7.512)" fill="#1b1b1b"/>
      <path id="Path_61" data-name="Path 61" d="M127.652,39.792a1.3,1.3,0,0,1,.66.166,1.836,1.836,0,0,1,.546.4,2.883,2.883,0,0,1,.364.638,2.125,2.125,0,0,1,.136.758h-.546a2.188,2.188,0,0,0,0-.545,1.793,1.793,0,0,0-.227-.472,2.047,2.047,0,0,0-.319-.308.906.906,0,0,0-.41-.117.975.975,0,0,0-.422.124,1.015,1.015,0,0,0-.329.3,2.643,2.643,0,0,0-.228.449,2.5,2.5,0,0,0,0,.568v3.593a2.5,2.5,0,0,0,0,.568,2.973,2.973,0,0,0,.228.473,1.487,1.487,0,0,0,.341.307.618.618,0,0,0,.41,0h.41a1.987,1.987,0,0,0,.319-.307,1.818,1.818,0,0,0,.227-.473,2.5,2.5,0,0,0,0-.568h.66a2.435,2.435,0,0,1-.136.78,2.384,2.384,0,0,1-.364.615,1.528,1.528,0,0,1-1.206.566,1.688,1.688,0,0,1-.684-.141,1.347,1.347,0,0,1-.523-.425,1.5,1.5,0,0,1-.363-.615,1.852,1.852,0,0,1-.137-.78V41.826a1.707,1.707,0,0,1,.137-.756,1.762,1.762,0,0,1,.363-.639,1.856,1.856,0,0,1,.547-.4,1.3,1.3,0,0,1,.66-.165" transform="translate(23.687 7.499)" fill="#1b1b1b"/>
      <path id="Path_62" data-name="Path 62" d="M131.03,39.911h3v.52H131.69V43.34h2.094v.52H131.69v2.885h2.345v.521h-3Z" transform="translate(24.657 7.522)" fill="#1b1b1b"/>
      <path id="Path_63" data-name="Path 63" d="M139.086,41.129l-.569.4v-.378a1.239,1.239,0,0,0-.206-.379,1.215,1.215,0,0,0-.318-.283.823.823,0,0,0-.41-.118.9.9,0,0,0-.41.118,1.016,1.016,0,0,0-.319.307,1.288,1.288,0,0,0-.227.473,2.179,2.179,0,0,0,0,.544,1.114,1.114,0,0,0,.2.709,3.116,3.116,0,0,0,.523.449l.661.355a4.057,4.057,0,0,1,.66.425,1.924,1.924,0,0,1,.5.638,2.456,2.456,0,0,1,0,1.8,1.823,1.823,0,0,1-.365.615,1.262,1.262,0,0,1-.546.425A1.558,1.558,0,0,1,136.4,46.8a1.82,1.82,0,0,1-.363-.615,2.436,2.436,0,0,1-.137-.78h.661a2.374,2.374,0,0,0,0,.568,2.87,2.87,0,0,0,.227.473,1.09,1.09,0,0,0,.342.307,1.054,1.054,0,0,0,.387,0,1.174,1.174,0,0,0,.409,0,1.078,1.078,0,0,0,.342-.307,2.976,2.976,0,0,0,.228-.473,2.5,2.5,0,0,0,0-.568,1.744,1.744,0,0,0,0-.686,1.5,1.5,0,0,0-.478-.449,1.526,1.526,0,0,0-.455-.331l-.478-.259-.5-.261-.546-.331a1.443,1.443,0,0,1-.3-.52,2.118,2.118,0,0,1,0-.756,2.125,2.125,0,0,1,0-.758,2.883,2.883,0,0,1,.364-.638,1.835,1.835,0,0,1,.546-.4,1.212,1.212,0,0,1,.637-.166,1.594,1.594,0,0,1,.66.142,1.823,1.823,0,0,1,.478.355,2.661,2.661,0,0,1,.319.4l.159.379" transform="translate(25.569 7.51)" fill="#1b1b1b"/>
      <path id="Path_64" data-name="Path 64" d="M87.263,48.853a1.053,1.053,0,0,0,.136.521,6.215,6.215,0,0,0,.3.686h0l.272-.261.274-.307a1.936,1.936,0,0,0,.182-.379,1.337,1.337,0,0,0,0-.425,1.192,1.192,0,0,0,0-.4.747.747,0,0,0-.136-.308l-.206-.165a.505.505,0,0,0-.394-.044.529.529,0,0,0-.311.257h0a1.458,1.458,0,0,0-.182.686Zm.682,5.25a.713.713,0,0,0,.478-.189,3.383,3.383,0,0,0,.364-.449c-.182-.331-.364-.71-.592-1.111l-.615-1.206-.25.259-.228.355a4.524,4.524,0,0,0-.159,1.49,1.643,1.643,0,0,0,.228.449,1,1,0,0,0,.341.283.618.618,0,0,0,.41,0Zm1.434.355v-.284a.958.958,0,0,0-.114-.213,1.4,1.4,0,0,1-.51.445,1.327,1.327,0,0,1-.65.147,1.577,1.577,0,0,1-.661-.142,2.258,2.258,0,0,1-.523-.425,2.775,2.775,0,0,1-.341-.638,2.064,2.064,0,0,1,0-.756,2.252,2.252,0,0,1,0-.78,2.718,2.718,0,0,1,.2-.615,1.613,1.613,0,0,1,.318-.449l.364-.378-.227-.473c0-.142-.137-.261-.183-.378l-.136-.332v-.5a2.791,2.791,0,0,1,0-.615,1.734,1.734,0,0,1,.274-.5.906.906,0,0,1,.364-.307,1.025,1.025,0,0,1,.909,0,.848.848,0,0,1,.387.307,1.963,1.963,0,0,1,.274.473,1.828,1.828,0,0,1,0,.614,3.228,3.228,0,0,1,0,.662,3.816,3.816,0,0,1-.228.544,2.639,2.639,0,0,1-.182.308l-.342.354c.136.331.319.639.5.993l.546.993a3.95,3.95,0,0,0,0-.733,4.481,4.481,0,0,0,0-.78h.614a6.064,6.064,0,0,1,0,1.3,3.475,3.475,0,0,1-.25.97,7.377,7.377,0,0,1,.387.733,2.352,2.352,0,0,1,.25.4Z" transform="translate(15.981 8.936)" fill="#1b1b1b"/>
      <path id="Path_65" data-name="Path 65" d="M91.907,47.331h3v.52H92.568V50.76h2.094v.521H92.568v2.884h2.343v.521h-3Z" transform="translate(17.027 8.969)" fill="#1b1b1b"/>
      <path id="Path_66" data-name="Path 66" d="M99.231,51.02a1.708,1.708,0,0,1,.637.709,2.114,2.114,0,0,1,.227.993v1.987h-.66V52.722a2.5,2.5,0,0,0,0-.566,2.732,2.732,0,0,0-.227-.449.857.857,0,0,0-.342-.308.618.618,0,0,0-.41,0,1.242,1.242,0,0,0-.41,0,1.016,1.016,0,0,0-.318.308,1.759,1.759,0,0,0-.228.472,2.178,2.178,0,0,0,0,.544v1.987h-.66V52.722a2.158,2.158,0,0,1,.25-.993,1.829,1.829,0,0,1,.614-.709,1.841,1.841,0,0,1-.614-.71,2.15,2.15,0,0,1-.25-.993V47.331h.66v1.986a2.178,2.178,0,0,0,0,.544,1.767,1.767,0,0,0,.228.473,1,1,0,0,0,.318.307.618.618,0,0,0,.41,0,.618.618,0,0,0,.41,0,.854.854,0,0,0,.342-.307,2.83,2.83,0,0,0,.227-.449,2.506,2.506,0,0,0,0-.568V47.331h.637v1.986a2.114,2.114,0,0,1-.227.993,1.712,1.712,0,0,1-.637.71" transform="translate(17.989 8.969)" fill="#1b1b1b"/>
      <path id="Path_67" data-name="Path 67" d="M101.926,47.331h.66V50.76h2.095V47.331h.66v7.354h-.66v-3.4h-2.095v3.4h-.66Z" transform="translate(18.981 8.969)" fill="#1b1b1b"/>
      <path id="Path_68" data-name="Path 68" d="M107.881,47.331h-.66v7.354h.66Z" transform="translate(20.014 8.969)" fill="#1b1b1b"/>
      <path id="Path_69" data-name="Path 69" d="M112.27,54.07a1.939,1.939,0,0,0,.319-.307,1.845,1.845,0,0,0,.293-.765,1.865,1.865,0,0,0-.065-.82,1.328,1.328,0,0,0-.228-.473,1.029,1.029,0,0,0-.319-.307,1.173,1.173,0,0,0-.409,0h-1.048v2.766h1.048a1.173,1.173,0,0,0,.409,0Zm-1.457-3.216h.933a.618.618,0,0,0,.41,0,1.09,1.09,0,0,0,.342-.307,2.97,2.97,0,0,0,.227-.473,2.179,2.179,0,0,0,0-.544,2.374,2.374,0,0,0,0-.568,2.971,2.971,0,0,0-.227-.473,1.09,1.09,0,0,0-.342-.307.816.816,0,0,0-.41-.118h-.933Zm1.889.261.206.165a2.044,2.044,0,0,1,.3.331,3.651,3.651,0,0,1,.251.52,2.276,2.276,0,0,1,0,.686,2.469,2.469,0,0,1-.136.78,2.4,2.4,0,0,1-.364.615,1.658,1.658,0,0,1-1.207.59H110.04V47.331h1.593a1.3,1.3,0,0,1,.66.165,1.593,1.593,0,0,1,.547.425,1.82,1.82,0,0,1,.363.615,2.3,2.3,0,0,1,0,1.466,1.31,1.31,0,0,1-.2.52,1.239,1.239,0,0,1-.274.331l-.182.165" transform="translate(20.563 8.969)" fill="#1b1b1b"/>
      <path id="Path_70" data-name="Path 70" d="M115.919,47.331h-.66v7.354h.66Z" transform="translate(21.581 8.969)" fill="#1b1b1b"/>
      <path id="Path_71" data-name="Path 71" d="M121.4,47.331v.52h-1.389v6.834h-.661V47.851h-1.365v-.52Z" transform="translate(22.113 8.969)" fill="#1b1b1b"/>
      <path id="Path_72" data-name="Path 72" d="M123.443,47.331h-.661v7.354h.661Z" transform="translate(23.049 8.969)" fill="#1b1b1b"/>
      <path id="Path_73" data-name="Path 73" d="M128.362,49.234a2.377,2.377,0,0,0,0-.568,2.733,2.733,0,0,0-.227-.449.854.854,0,0,0-.342-.307.527.527,0,0,0-.41-.118.815.815,0,0,0-.409.118,1.016,1.016,0,0,0-.319.307,1.213,1.213,0,0,0-.228.449,1.231,1.231,0,0,0,0,.568v3.593a2.506,2.506,0,0,0,0,.568,1.417,1.417,0,0,0,.547.756.6.6,0,0,0,.409,0,.6.6,0,0,0,.41,0,1,1,0,0,0,.342-.283,2.874,2.874,0,0,0,.227-.473,2.182,2.182,0,0,0,0-.544Zm-1.047-1.963a1.709,1.709,0,0,1,.684.142,2,2,0,0,1,.591.379,2.207,2.207,0,0,1,.365.638,2.123,2.123,0,0,1,.136.756v3.595a2.475,2.475,0,0,1-.136.78,2.069,2.069,0,0,1-.365.614,2.258,2.258,0,0,1-.523.425,1.685,1.685,0,0,1-.684.142,1.575,1.575,0,0,1-.66-.142,2.47,2.47,0,0,1-.546-.425,2.07,2.07,0,0,1-.364-.614,2.441,2.441,0,0,1-.136-.78V49.234a2.113,2.113,0,0,1,.136-.756,2.23,2.23,0,0,1,.364-.639,2.47,2.47,0,0,1,.546-.425,1.594,1.594,0,0,1,.66-.142" transform="translate(23.613 8.957)" fill="#1b1b1b"/>
      <path id="Path_74" data-name="Path 74" d="M130.953,48.454a3.286,3.286,0,0,1,.364-.615,2.443,2.443,0,0,1,.546-.425,1.594,1.594,0,0,1,.66-.142,1.709,1.709,0,0,1,.684.142,2.321,2.321,0,0,1,.523.425,2.063,2.063,0,0,1,.363.615,2.436,2.436,0,0,1,.137.78V54.72h-.661V49.234a2.453,2.453,0,0,0,0-.592,2.732,2.732,0,0,0-.227-.449A1,1,0,0,0,133,47.91a.528.528,0,0,0-.41-.118.815.815,0,0,0-.409.118,1.417,1.417,0,0,0-.547.756,2.5,2.5,0,0,0,0,.568V54.72h-.66V49.234a2.469,2.469,0,0,1,.136-.78" transform="translate(24.642 8.957)" fill="#1b1b1b"/>
      <path id="Path_75" data-name="Path 75" d="M139.358,48.556l-.569.4a1.192,1.192,0,0,0,0-.4,1.224,1.224,0,0,0-.2-.379,2.318,2.318,0,0,0-.364-.378.618.618,0,0,0-.41,0,.823.823,0,0,0-.41.118,1,1,0,0,0-.318.307,1.28,1.28,0,0,0-.228.473,2.177,2.177,0,0,0,0,.544,1.071,1.071,0,0,0,.206.686,1.541,1.541,0,0,0,.5.449,6.106,6.106,0,0,0,.66.378l.66.4a2.312,2.312,0,0,1,.5.662,1.949,1.949,0,0,1,.206,1.016,2.126,2.126,0,0,1-.137.758,2.193,2.193,0,0,1-.363.638,2.321,2.321,0,0,1-.523.425,1.71,1.71,0,0,1-.684.142,1.594,1.594,0,0,1-.66-.142,2.442,2.442,0,0,1-.546-.425,2.169,2.169,0,0,1-.364-.638,2.126,2.126,0,0,1-.136-.758h.682a2.508,2.508,0,0,0,0,.568,2.976,2.976,0,0,0,.228.473,1,1,0,0,0,.341.283h.387a.6.6,0,0,0,.41,0,.854.854,0,0,0,.342-.307,2.779,2.779,0,0,0,.227-.449,2.5,2.5,0,0,0,0-.568,1.739,1.739,0,0,0,0-.685,2.03,2.03,0,0,0-.3-.473,1.815,1.815,0,0,0-.433-.307l-.5-.261-.5-.261a2.25,2.25,0,0,1-.455-.354,1.774,1.774,0,0,1-.3-.5,2.116,2.116,0,0,1,0-.756,2.435,2.435,0,0,1,.136-.78,2.191,2.191,0,0,1,.183-.662,2.443,2.443,0,0,1,.546-.425,1.471,1.471,0,0,1,.637-.142,1.575,1.575,0,0,1,.66.142,2.438,2.438,0,0,1,.478.331,1.436,1.436,0,0,1,.319.425,1.808,1.808,0,0,1,.159.378" transform="translate(25.66 8.95)" fill="#1b1b1b"/>
      <path id="Path_76" data-name="Path 76" d="M88.189,20H86.117V41.617h2.072Z" transform="translate(15.898 3.64)" fill="#1b1b1b"/>
      <path id="Path_77" data-name="Path 77" d="M101.911,22.832a4.319,4.319,0,0,0-2.277-2.365,4.673,4.673,0,0,0-1.889-.4,3.99,3.99,0,0,0-1.8.355,4.152,4.152,0,0,0-1.476,1.134,4.432,4.432,0,0,0-.979,2.814V41.678h2.071V24.3a2.417,2.417,0,0,1,.547-1.466,2.135,2.135,0,0,1,.791-.592,2.058,2.058,0,0,1,.961-.165,1.879,1.879,0,0,1,.92.166,1.978,1.978,0,0,1,.742.59,2.234,2.234,0,0,1,.5,1.466V41.606h2.071V24.3a4.582,4.582,0,0,0-.228-1.466" transform="translate(17.335 3.651)" fill="#1b1b1b"/>
      <path id="Path_78" data-name="Path 78" d="M139.732,29.7a4.31,4.31,0,0,0,.979-2.814V20h-2v6.857a2.423,2.423,0,0,1-.523,1.49,2.272,2.272,0,0,1-.8.577,2.194,2.194,0,0,1-.956.179,1.9,1.9,0,0,1-.92-.166,1.964,1.964,0,0,1-.741-.59,2.41,2.41,0,0,1-.614-1.466V20h-1.98v6.857a4.7,4.7,0,0,0,.227,1.49,5.35,5.35,0,0,0,.706,1.277,4,4,0,0,0,1.319,1.016,4.193,4.193,0,0,0-1.674,1.6,4.408,4.408,0,0,0-.6,2.278v7.094h2.094V34.523a2.415,2.415,0,0,1,.523-1.489,2.267,2.267,0,0,1,.8-.564,2.195,2.195,0,0,1,.954-.168,1.884,1.884,0,0,1,.92.166,1.953,1.953,0,0,1,.741.59,2.419,2.419,0,0,1,.5,1.489v7.094h2.071V34.547a4.726,4.726,0,0,0-.227-1.489,4.291,4.291,0,0,0-.684-1.23,3.707,3.707,0,0,0-1.3-1.041,3.441,3.441,0,0,0,1.274-1.041" transform="translate(24.876 3.64)" fill="#1b1b1b"/>
      <path id="Path_79" data-name="Path 79" d="M110.7,39.537h-2.277V22.088h3.414a1.063,1.063,0,0,1,.614.378,1.929,1.929,0,0,1,.387.568V38.426a1.449,1.449,0,0,1-.342.615,2.024,2.024,0,0,1-.592.4,5.087,5.087,0,0,1-1.206,0Zm4.142-17.167a2.974,2.974,0,0,0-.705-1.418,2.84,2.84,0,0,0-1.434-.8,9.541,9.541,0,0,0-2-.142h-4.279V41.618H110.7a8.364,8.364,0,0,0,1.889-.165,2.782,2.782,0,0,0,1.41-.875,3.292,3.292,0,0,0,.729-1.182,5.786,5.786,0,0,0,.25-2.082v-13a9.248,9.248,0,0,0-.136-1.94" transform="translate(19.858 3.639)" fill="#1b1b1b"/>
      <path id="Path_80" data-name="Path 80" d="M121.441,23.2a1.329,1.329,0,0,1,.387-.615,1.2,1.2,0,0,1,.569-.4,3.209,3.209,0,0,1,1.16,0h4.3V20.006h-4.3a7.708,7.708,0,0,0-1.82.189,2.962,2.962,0,0,0-1.434.875,3.059,3.059,0,0,0-.752,1.182,5.767,5.767,0,0,0-.272,2.058v13a7.331,7.331,0,0,0,.182,1.869,3.208,3.208,0,0,0,.8,1.442,3.112,3.112,0,0,0,1.548.875,8.608,8.608,0,0,0,1.752.118h4.3V39.536h-5.417a1.485,1.485,0,0,1-.637-.378,1.121,1.121,0,0,1-.364-.638V31.829h6.418V29.795H121.35V24.309Z" transform="translate(22.364 3.64)" fill="#1b1b1b"/>
      <path id="Path_81" data-name="Path 81" d="M144.456,21.659a1.432,1.432,0,0,0-.637,0h-.455v1.087h.887a.447.447,0,0,0,.307-.122.472.472,0,0,0,.148-.3.7.7,0,0,0,0-.213.438.438,0,0,0-.032-.259.416.416,0,0,0-.172-.19Zm-.523-.5a2.173,2.173,0,0,1,.8,0,.687.687,0,0,1,.357.3,1.075,1.075,0,0,1,.037.805.715.715,0,0,1-.212.271.923.923,0,0,1-.433.141.81.81,0,0,1,.523.308,1.046,1.046,0,0,1,.159.449v.614h-.455v-.355c0-.355,0-.59-.3-.686a1.1,1.1,0,0,0-.615-.117h-.409v1.206h-.5V21.162ZM142.362,21a2.372,2.372,0,0,0-.7,1.245,2.446,2.446,0,0,0,.128,1.435,2.339,2.339,0,0,0,.906,1.091,2.332,2.332,0,0,0,2.384.035,2.318,2.318,0,0,0,.784-.768,2.449,2.449,0,0,0,.2-2.165,2.355,2.355,0,0,0-.625-.911,2.24,2.24,0,0,0-.96-.51,2.194,2.194,0,0,0-1.078,0,2.251,2.251,0,0,0-.954.52h0Zm3.482,3.736a2.595,2.595,0,0,1-3.756,0h0a2.762,2.762,0,0,1-.575-.9,2.875,2.875,0,0,1-.2-1.061,2.841,2.841,0,0,1,.455-1.536,2.686,2.686,0,0,1,1.2-1.013,2.567,2.567,0,0,1,1.539-.152,2.635,2.635,0,0,1,1.361.761,2.591,2.591,0,0,1,.6.891,2.667,2.667,0,0,1,.194,1.071,2.8,2.8,0,0,1-.2,1.067,2.733,2.733,0,0,1-.593.9" transform="translate(26.663 3.642)" fill="#1b1b1b"/>
      <path id="Path_82" data-name="Path 82" d="M54.285,20H52.214V41.617h2.071Z" transform="translate(9.286 3.64)" fill="#1b1b1b"/>
      <path id="Path_83" data-name="Path 83" d="M42.177,27.762a3.983,3.983,0,0,0-2.753-.994H26.973a2.219,2.219,0,0,1-1.5-.544,2.359,2.359,0,0,1-.556-.827,2.45,2.45,0,0,1-.172-.993,2.075,2.075,0,0,1,.16-.956,2.026,2.026,0,0,1,.568-.771,2.223,2.223,0,0,1,1.5-.52H40.629V20H26.973a4.664,4.664,0,0,0-1.389.237,5.033,5.033,0,0,0-1.228.734,4.212,4.212,0,0,0-1.047,1.561,5.147,5.147,0,0,0-.387,1.962,4.421,4.421,0,0,0,.343,1.873A4.247,4.247,0,0,0,24.355,27.9a4.07,4.07,0,0,0,2.708,1.017h12.36a2.02,2.02,0,0,1,.866.16,2.086,2.086,0,0,1,.728.515,2.2,2.2,0,0,1,.459.782,2.25,2.25,0,0,1,.109.908,2.312,2.312,0,0,1-.174.96,2.018,2.018,0,0,1-1.987,1.286H21.214a1.644,1.644,0,0,0,0-.472,7.93,7.93,0,0,0,0-1.8V26.792H19.485v5.6a1.475,1.475,0,0,1-.387.662,1.227,1.227,0,0,1-.592.378h-2.14V26.792h-1.98V33.53H12.451a1.327,1.327,0,0,1-.637-.5,1.521,1.521,0,0,1-.41-.592,4.209,4.209,0,0,1,0-.756V26.768H9.355V38.355a1.268,1.268,0,0,1-.478.568,1.357,1.357,0,0,1-.569.378H3.757a1.161,1.161,0,0,1-.478-.378,1.382,1.382,0,0,1-.274-.638V26.768H.866V37.173A9.307,9.307,0,0,0,1,39.135,2.791,2.791,0,0,0,1.8,40.6a2.782,2.782,0,0,0,1.41.875,11.2,11.2,0,0,0,1.776.141H7.1a8.69,8.69,0,0,0,1.912-.141,2.962,2.962,0,0,0,1.434-.875,2.965,2.965,0,0,0,.8-1.466,9.387,9.387,0,0,0,.136-1.962V35.328h.16a5.529,5.529,0,0,0,1.957.284h3.868a7.528,7.528,0,0,0,1.776-.19,2.673,2.673,0,0,0,1.321-.756v.923h18.96a4.228,4.228,0,0,0,1.434-.237,5.051,5.051,0,0,0,1.228-.733,3.921,3.921,0,0,0,1.092-1.561,4.873,4.873,0,0,0,.455-1.868,4.438,4.438,0,0,0-.35-1.888A4.272,4.272,0,0,0,42.177,27.762Z" transform="translate(-0.73 3.64)" fill="#1b1b1b"/>
      <path id="Path_84" data-name="Path 84" d="M51.507,27.816v3.547a1.117,1.117,0,0,1-.364.638,1.206,1.206,0,0,1-.569.4H47.547l.182-.379A5.555,5.555,0,0,0,48,30.086a4.339,4.339,0,0,0-1.047-3.033,4.016,4.016,0,0,0-2.8-1.389H38.738v2.152h5.143a2.047,2.047,0,0,1,1.411.52,2.372,2.372,0,0,1,.569.825,2.468,2.468,0,0,1,.183,1,2.23,2.23,0,0,1-.178.967,2.137,2.137,0,0,1-.574.783,2.221,2.221,0,0,1-1.411.5H37.053v2.151h6.828a3.878,3.878,0,0,0,2.641-.969l.159-.142v1.111H49.3a8.764,8.764,0,0,0,1.912-.142,2.818,2.818,0,0,0,1.343-.851,2.871,2.871,0,0,0,.8-1.489,9.4,9.4,0,0,0,.136-1.963V25.664H51.439Z" transform="translate(6.329 4.743)" fill="#1b1b1b"/>
      <path id="Path_85" data-name="Path 85" d="M50.24,21.865a1.285,1.285,0,0,0-.734.232,1.363,1.363,0,0,0-.486.614,1.414,1.414,0,0,0-.075.792,1.4,1.4,0,0,0,.361.7,1.321,1.321,0,0,0,.676.375,1.275,1.275,0,0,0,.762-.079,1.334,1.334,0,0,0,.593-.5,1.416,1.416,0,0,0,.222-.762h0a1.4,1.4,0,0,0-.386-.969A1.3,1.3,0,0,0,50.24,21.865Z" transform="translate(8.643 4.003)" fill="#1b1b1b"/>
      <path id="Path_86" data-name="Path 86" d="M50.067,47.647h-.843V53.3h.843Z" transform="translate(8.703 9.031)" fill="#1b1b1b"/>
      <path id="Path_87" data-name="Path 87" d="M8.963,39.673H8.122v5.651h.841Z" transform="translate(0.687 7.476)" fill="#1b1b1b"/>
      <path id="Path_88" data-name="Path 88" d="M3.687,42.718a.5.5,0,0,0,.339-.161.535.535,0,0,0,.139-.36A.5.5,0,0,0,4,41.891a.49.49,0,0,0-.661.01.5.5,0,0,0-.111.155.513.513,0,0,0-.044.189h0a.535.535,0,0,0,.146.368.5.5,0,0,0,.355.152Zm1.251.047a.492.492,0,0,0,.354-.152.531.531,0,0,0,.147-.368.512.512,0,0,0-.13-.321.476.476,0,0,0-.3-.152.466.466,0,0,0-.344.129.481.481,0,0,0-.111.155.54.54,0,0,0-.045.189h0a.521.521,0,0,0,.17.323.488.488,0,0,0,.331.127Zm1.844.5v1.631a.585.585,0,0,1-.11.423.56.56,0,0,1-.164.146.526.526,0,0,1-.2.069H2.3a.526.526,0,0,1-.408-.115.565.565,0,0,1-.141-.168.6.6,0,0,1-.066-.213V43.261H.751v2.151a.851.851,0,0,0,.979.969H6.6c.682,0,1-.307,1-.969V43.261Z" transform="translate(-0.751 7.885)" fill="#1b1b1b"/>
      <path id="Path_89" data-name="Path 89" d="M34.927,40.691a.446.446,0,0,0-.185.029.486.486,0,0,0-.16.1.5.5,0,0,0-.11.157.509.509,0,0,0-.045.188h0a.5.5,0,0,0-.008.206.52.52,0,0,0,.071.191.493.493,0,0,0,.141.145.45.45,0,0,0,.184.074.486.486,0,0,0,.375-.074.522.522,0,0,0,.216-.327.344.344,0,0,0,0-.214.5.5,0,0,0-.14-.35.47.47,0,0,0-.338-.146h0Zm-1.275.993a.491.491,0,0,0,.355-.153.531.531,0,0,0,.146-.368h0a.537.537,0,0,0-.084-.289.513.513,0,0,0-.225-.191.491.491,0,0,0-.289-.03.5.5,0,0,0-.257.143.526.526,0,0,0-.137.265.551.551,0,0,0,.029.3.51.51,0,0,0,.185.233.484.484,0,0,0,.277.088ZM29.1,45.325a.432.432,0,0,1-.013.166.424.424,0,0,1-.2.257.391.391,0,0,1-.154.05h-.728a.428.428,0,0,1-.17-.016.443.443,0,0,1-.151-.082.437.437,0,0,1-.108-.135.465.465,0,0,1-.05-.17V44.71a.471.471,0,0,1,.171-.282.436.436,0,0,1,.307-.1h.637a.381.381,0,0,1,.16.013.406.406,0,0,1,.143.076.42.42,0,0,1,.1.129.437.437,0,0,1,.048.159v.615Zm5.007-1.442a.612.612,0,0,1-.013.223.6.6,0,0,1-.1.2.556.556,0,0,1-.163.146.525.525,0,0,1-.206.069H29.9v-.686c0-.283-.319-.425-.729-.425H27.552c-.523,0-.752.213-.752.686v.425H12.3v-.733h-.956V45.42a.656.656,0,0,1-.053.348.618.618,0,0,1-.221.266H10.026v.876H11.21a.907.907,0,0,0,1.024-1.041v-.544H26.8v.756c0,.307.319.425.729.425h1.616c.5,0,.752-.213.752-.686v-.5h4.1c.682,0,1-.307,1-.993V42.2h-.888Z" transform="translate(1.058 7.665)" fill="#1b1b1b"/>
      <path id="Path_90" data-name="Path 90" d="M53.418,50.75a.239.239,0,0,1-.007.092.259.259,0,0,1-.043.082.214.214,0,0,1-.068.059.22.22,0,0,1-.086.027h-.342a.23.23,0,0,1-.167-.053.237.237,0,0,1-.057-.072.258.258,0,0,1-.025-.088v-.4a.239.239,0,0,1,.008-.092.234.234,0,0,1,.042-.082.218.218,0,0,1,.069-.059.213.213,0,0,1,.085-.026h.364a.18.18,0,0,1,.091.01.2.2,0,0,1,.078.05.212.212,0,0,1,.049.081.2.2,0,0,1,.01.094h0Zm.433-1.064h-1.3c-.274,0-.41.141-.41.472v.993a.415.415,0,0,0,.019.209.41.41,0,0,0,.117.17.471.471,0,0,0,.251,0h.887v.165c0,.331,0,.521-.272.615H51.757v.851h1.5a.89.89,0,0,0,1.024-1.017v-2.2c0-.165,0-.165-.433-.165" transform="translate(9.197 9.428)" fill="#1b1b1b"/>
      <path id="Path_91" data-name="Path 91" d="M45.848,45.467a.459.459,0,0,1-.11.325.426.426,0,0,1-.135.105.438.438,0,0,1-.164.043h-.706a.4.4,0,0,1-.16-.014.387.387,0,0,1-.143-.076.433.433,0,0,1-.1-.128.461.461,0,0,1-.048-.16v-.709a.463.463,0,0,1,.013-.167.443.443,0,0,1,.074-.148.406.406,0,0,1,.123-.108.4.4,0,0,1,.154-.05h.729a.4.4,0,0,1,.169.016.429.429,0,0,1,.151.081.464.464,0,0,1,.109.136.441.441,0,0,1,.049.169v.686Zm-9.332-.945a.218.218,0,0,1-.008.092.244.244,0,0,1-.042.082.228.228,0,0,1-.068.059.225.225,0,0,1-.086.026h-.364a.221.221,0,0,1-.088-.008.241.241,0,0,1-.079-.043.237.237,0,0,1-.057-.072.24.24,0,0,1-.025-.09v-.4a.226.226,0,0,1,.008-.093.229.229,0,0,1,.042-.081.25.25,0,0,1,.068-.06.248.248,0,0,1,.086-.026h.364a.221.221,0,0,1,.088.008.238.238,0,0,1,.136.116.228.228,0,0,1,.025.088ZM56.729,39.91v4.162a.607.607,0,0,1-.017.232.579.579,0,0,1-.271.359.561.561,0,0,1-.213.072H54.452V40.384h-.865v4.374H46.623v-.78c0-.283-.319-.425-.705-.425h-1.73c-.5,0-.75.213-.75.71v.5H37.359v-.945a.361.361,0,0,0-.41-.4H35.629c-.274,0-.41.141-.41.449v1.016a.48.48,0,0,0,.032.192.456.456,0,0,0,.1.163.245.245,0,0,0,.125.035.241.241,0,0,0,.124-.035h.888v.189a.646.646,0,0,1-.051.349.625.625,0,0,1-.221.266H34.787v.851h1.525a.847.847,0,0,0,.347.011.867.867,0,0,0,.323-.133.888.888,0,0,0,.246-.253.906.906,0,0,0,.131-.333.706.706,0,0,0,0-.308v-.425h6.169v.686c0,.284.318.425.728.425h1.617c.523,0,.75-.213.75-.709v-.4h9.993c.682,0,1-.307,1-.969V39.792Z" transform="translate(5.887 7.499)" fill="#1b1b1b"/>
      <path id="Path_92" data-name="Path 92" d="M12.976,52.05V49.686h-.819v1.631c0,.331,0,.52-.3.614l-.614.118h-.478v.875h1.183a.9.9,0,0,0,1.024-1.016" transform="translate(1.203 9.428)" fill="#1b1b1b"/>
      <path id="Path_93" data-name="Path 93" d="M10.106,52.521H6.35V51.48H9.56a.517.517,0,0,1,.214.016.542.542,0,0,1,.194.1.584.584,0,0,1,.14.17.575.575,0,0,1,.067.213v.142Zm.136-1.868H6.35v-.379H5.439V53.3c0,.331-.114.544-.3.615H1.934c-.2,0-.3-.284-.3-.615V51.694H.751v2.127a.889.889,0,0,0,1.024,1.017H5.3a.89.89,0,0,0,1.024-1.017v-.354h4.667v-2.01c0-.473-.251-.686-.752-.686Zm-2-2.247a.478.478,0,0,0,.215-.047.492.492,0,0,0,.176-.137.529.529,0,0,0,.1-.2.545.545,0,0,0,.008-.228h0a.529.529,0,0,0-.147-.368.489.489,0,0,0-.354-.153h0a.489.489,0,0,0-.354.153.529.529,0,0,0-.147.368h0a.531.531,0,0,0,.147.368.492.492,0,0,0,.354.152h0" transform="translate(-0.751 8.957)" fill="#1b1b1b"/>
      <path id="Path_94" data-name="Path 94" d="M47.628,53.169a.433.433,0,0,1-.013.166.417.417,0,0,1-.074.149.425.425,0,0,1-.123.108.416.416,0,0,1-.154.049h-.728a.407.407,0,0,1-.17-.016.44.44,0,0,1-.151-.081.428.428,0,0,1-.108-.136.466.466,0,0,1-.05-.169v-.686a.448.448,0,0,1,.024-.173.476.476,0,0,1,.086-.152.448.448,0,0,1,.136-.105.432.432,0,0,1,.164-.043h.705a.4.4,0,0,1,.3.091.415.415,0,0,1,.1.128.443.443,0,0,1,.048.16v.71Zm-18.55-1.135a.434.434,0,0,1-.1.286.412.412,0,0,1-.262.14H28.1a.4.4,0,0,1-.282-.091.43.43,0,0,1-.151-.264v-.638a.38.38,0,0,1,.433-.4h.569a.364.364,0,0,1,.143.011.377.377,0,0,1,.129.066.392.392,0,0,1,.093.114.367.367,0,0,1,.044.141Zm23.9-4.327v4.161a.593.593,0,0,1-.183.411.566.566,0,0,1-.189.121.535.535,0,0,1-.22.036h-3.96v-.78c0-.283-.319-.425-.729-.425H46.08c-.523,0-.752.213-.752.71v.5H29.9V50.9c0-.473-.228-.71-.752-.71H27.621c-.523,0-.75.237-.75.71v1.537H16.241c-.614,0-.706-.4-.706-.662V47.707h-.841v4.729a.851.851,0,0,0,.979.969H45.261v.686c0,.284.319.425.706.425h1.638c.5,0,.752-.213.752-.709v-.4H52.8c.682,0,.979-.307.979-.969V47.707Z" transform="translate(1.968 9.042)" fill="#1b1b1b"/>
      <path id="Path_95" data-name="Path 95" d="M35.684,41.2a.368.368,0,0,0-.159-.036.364.364,0,0,0-.159.036h.182v-.4H33.863a.385.385,0,0,0-.136.19V41.2a.472.472,0,0,0,.039.226.446.446,0,0,0,.142.176.373.373,0,0,0,.16.036.368.368,0,0,0,.159-.036h-.773v.355h2.275a.5.5,0,0,0,.114-.19.337.337,0,0,0,0-.212.508.508,0,0,0-.044-.223.5.5,0,0,0-.137-.179" transform="translate(5.627 7.696)" fill="#1b1b1b"/>
    </g>
    <text id="Powered_By:" data-name="Powered By:" transform="translate(1393.633 187.378)" fill="#1b1b1b" font-size="12" font-family="RobotoCondensed-Regular, Roboto"><tspan x="0" y="0">Powered By:</tspan></text>
  </g>
</svg>
