<svg xmlns="http://www.w3.org/2000/svg" width="84.437" height="61.92" viewBox="0 0 84.437 61.92">
  <g id="mask" transform="translate(0 0)">
    <g id="Group_260" data-name="Group 260" transform="translate(0 0)">
      <path id="Path_465" data-name="Path 465" d="M84.438,28.149c-.081.34-.171.678-.243,1.019A15.822,15.822,0,0,1,77.748,38.8,17.658,17.658,0,0,1,69.8,42.05c-.118.28-.235.555-.352.83A30.035,30.035,0,0,1,48.184,61.155a24.907,24.907,0,0,1-5.454.757A24.393,24.393,0,0,1,35.249,60.9,30.075,30.075,0,0,1,14.906,42.678c-.063-.152-.123-.305-.189-.456a1.473,1.473,0,0,0-.111-.173,17.8,17.8,0,0,1-5.358-1.7A16.878,16.878,0,0,1,.957,31.559,12.814,12.814,0,0,1,0,26.659c0-2.336-.017-4.673.007-7.009A5.582,5.582,0,0,1,4.428,14.2a7.514,7.514,0,0,1,1.557-.118C7.99,14.073,10,14.081,12,14.081h.843c.107-.181.206-.339.3-.5a4.145,4.145,0,0,1,3.724-2.31c1.043-.031,2.089-.014,3.129-.086A17,17,0,0,0,31.352,5.857c.42-.433.8-.906,1.2-1.363A12.355,12.355,0,0,1,42.243,0a12.227,12.227,0,0,1,9.726,4.594,18.643,18.643,0,0,0,5.456,4.578,17.81,17.81,0,0,0,8.464,2.091c.522,0,1.044,0,1.566,0a4.16,4.16,0,0,1,3.9,2.424c.05.1.1.195.193.392H72.4c2.226,0,4.453-.032,6.677.024a5.478,5.478,0,0,1,5.088,3.888c.082.255.181.5.272.755ZM68.92,19.709H67.9a41.957,41.957,0,0,1-6.168-.282A24.968,24.968,0,0,1,50.29,14.695a24.387,24.387,0,0,1-4.393-4.21c-.139-.17-.281-.338-.425-.5a4.2,4.2,0,0,0-6.5-.01c-.869.991-1.716,2.012-2.674,2.911A24.272,24.272,0,0,1,21.01,19.594c-1.56.111-3.129.08-4.694.115-.262.006-.523.018-.82.028v.588q0,5.525.007,11.05a25.719,25.719,0,0,0,1.018,7.154c2.889,9.94,9.253,16.5,19.163,19.564a21.252,21.252,0,0,0,6.983,1,25.713,25.713,0,0,0,9.112-2.031A27.87,27.87,0,0,0,68.92,31.807c.113-3.818.026-7.641.028-11.462,0-.186-.016-.371-.028-.636M12.684,17a1.493,1.493,0,0,0-.312-.09q-3.459,0-6.917,0a2.511,2.511,0,0,0-1.77.763,2.851,2.851,0,0,0-.87,2.148q.006,3.377,0,6.754a11.007,11.007,0,0,0,2.151,6.614,15.175,15.175,0,0,0,8.084,5.639,4.852,4.852,0,0,0,.6.109,1.311,1.311,0,0,0,0-.238,31.768,31.768,0,0,1-.968-8.065c.019-4.256.005-8.511,0-12.767V17m59.076-.069c0,.4,0,.7,0,1,0,4.558.033,9.116-.029,13.673a44.184,44.184,0,0,1-.452,4.744c-.105.86-.325,1.706-.507,2.633.323-.085.581-.143.834-.221a15.169,15.169,0,0,0,6.19-3.624,11.639,11.639,0,0,0,3.838-8.947c-.028-1.18,0-2.361,0-3.542,0-.988.02-1.978-.006-2.965a2.665,2.665,0,0,0-2.366-2.728c-2.463-.081-4.93-.023-7.5-.023M15.5,16.845a39.1,39.1,0,0,0,6.87-.223,21.726,21.726,0,0,0,12.147-5.934c.87-.833,1.638-1.774,2.437-2.679a6.977,6.977,0,0,1,9.709-.774,14.87,14.87,0,0,1,1.628,1.739A22.141,22.141,0,0,0,62.009,16.62a41.36,41.36,0,0,0,6.658.265,1.1,1.1,0,0,0,.28-.1c0-.4.011-.809,0-1.217a1.369,1.369,0,0,0-1.494-1.483c-.549-.019-1.1,0-1.648-.006a20.821,20.821,0,0,1-8.466-1.815,21.039,21.039,0,0,1-7.53-5.871A9.752,9.752,0,0,0,35.9,5.13,17.3,17.3,0,0,0,34.034,7.1a20.217,20.217,0,0,1-7.246,5.31A20.847,20.847,0,0,1,18.62,14.08c-.6.008-1.21-.019-1.812.019a1.3,1.3,0,0,0-1.3,1.323c-.027.459-.005.922-.005,1.422" transform="translate(0 0)"/>
      <path id="Path_466" data-name="Path 466" d="M121.63,198.669a44.444,44.444,0,0,1-18.694-4.368,2.884,2.884,0,0,1-.5-.281,1.359,1.359,0,0,1-.391-1.766,1.383,1.383,0,0,1,1.685-.661,7.755,7.755,0,0,1,.75.336,40.4,40.4,0,0,0,34.33.009c.249-.115.492-.246.75-.337a1.375,1.375,0,0,1,1.729.709,1.354,1.354,0,0,1-.465,1.747,4.34,4.34,0,0,1-.652.349,42.1,42.1,0,0,1-13.62,3.88c-1.636.17-3.281.257-4.922.382" transform="translate(-79.434 -149.332)" fill="#ec7601"/>
      <path id="Path_467" data-name="Path 467" d="M122.057,152.682a64.138,64.138,0,0,1-18.407-2.775c-.882-.265-1.289-.75-1.265-1.5a1.3,1.3,0,0,1,1.306-1.313,3.434,3.434,0,0,1,.964.172,63.4,63.4,0,0,0,8.906,1.977,60.254,60.254,0,0,0,10.926.541,58.694,58.694,0,0,0,14.574-2.413,7.208,7.208,0,0,1,1.035-.261,1.379,1.379,0,0,1,.674,2.671c-1.093.358-2.2.677-3.318.957a60.734,60.734,0,0,1-14.161,1.887c-.411,0-.823.035-1.234.053" transform="translate(-79.832 -114.696)" fill="#ec7601"/>
      <path id="Path_468" data-name="Path 468" d="M122,112.794c-3.739.018-7.471-.169-11.191-.513-2.268-.21-4.525-.54-6.786-.82a3.744,3.744,0,0,1-.564-.118,1.368,1.368,0,0,1-1.011-1.646,1.393,1.393,0,0,1,1.525-1.094c.709.073,1.415.19,2.121.288,3.975.554,7.969.853,11.978,1.021,3.492.147,6.979.077,10.463-.1a102.407,102.407,0,0,0,10.568-1.065c.352-.055.706-.106,1.061-.145a1.375,1.375,0,0,1,1.576,1.118,1.328,1.328,0,0,1-1.115,1.636c-.942.184-1.895.317-2.848.439a129.819,129.819,0,0,1-13.551,1c-.742.017-1.484,0-2.226,0" transform="translate(-79.859 -84.671)" fill="#ec7601"/>
    </g>
  </g>
</svg>
