<svg xmlns="http://www.w3.org/2000/svg" width="13" height="13" viewBox="0 0 13 13">
  <path id="phone" d="M12.629-2.189,9.785-3.407a.607.607,0,0,0-.238-.049.608.608,0,0,0-.472.224L7.815-1.694a9.4,9.4,0,0,1-4.5-4.5L4.855-7.452a.607.607,0,0,0,.225-.472.607.607,0,0,0-.05-.239L3.811-11.007a.614.614,0,0,0-.563-.369.609.609,0,0,0-.136.016L.472-10.75A.61.61,0,0,0,0-10.156H0A11.78,11.78,0,0,0,11.781,1.625h0a.61.61,0,0,0,.594-.472l.609-2.641A.619.619,0,0,0,13-1.624.616.616,0,0,0,12.629-2.189Z" transform="translate(0 11.375)" fill="#1b1b1b"/>
</svg>
