<svg xmlns="http://www.w3.org/2000/svg" width="40.688" height="40.688" viewBox="0 0 40.688 40.688">
  <path id="user-icon" d="M20.344-36.094A20.34,20.34,0,0,0,0-15.75,20.34,20.34,0,0,0,20.344,4.594,20.34,20.34,0,0,0,40.688-15.75,20.34,20.34,0,0,0,20.344-36.094Zm0,7.875A7.219,7.219,0,0,1,27.563-21a7.219,7.219,0,0,1-7.219,7.219A7.219,7.219,0,0,1,13.125-21,7.219,7.219,0,0,1,20.344-28.219ZM20.344,0A15.719,15.719,0,0,1,8.326-5.595a9.146,9.146,0,0,1,8.08-4.905,2.009,2.009,0,0,1,.582.09,10.861,10.861,0,0,0,3.355.566A10.82,10.82,0,0,0,23.7-10.41a2.009,2.009,0,0,1,.582-.09,9.146,9.146,0,0,1,8.08,4.905A15.719,15.719,0,0,1,20.344,0Z" transform="translate(0 36.094)" fill="#8a8a8a"/>
</svg>
