<svg xmlns="http://www.w3.org/2000/svg" xmlns:xlink="http://www.w3.org/1999/xlink" width="15.769" height="18.089" viewBox="0 0 15.769 18.089">
  <defs>
    <linearGradient id="linear-gradient" x1="0.204" y1="0.155" x2="0.972" y2="0.975" gradientUnits="objectBoundingBox">
      <stop offset="0" stop-color="#eb9c27"/>
      <stop offset="1" stop-color="#ff6226"/>
    </linearGradient>
  </defs>
  <g id="Group_336" data-name="Group 336" transform="translate(0.512 0.503)">
    <g id="Group_337" data-name="Group 337">
      <path id="Union_1" data-name="Union 1" d="M2339.716,723.086a.442.442,0,0,0-.055-.04.4.4,0,0,1-.171-.444c.159-.567.3-1.14.455-1.71q.471-1.779.945-3.559c.011-.04.023-.079.033-.119a.359.359,0,0,1,.322-.264,1.05,1.05,0,0,1,.16,0h3.227c-.041-.076-.069-.13-.1-.182q-1-1.727-2-3.454a5.127,5.127,0,0,1-.586-1.474,4.824,4.824,0,0,1-.075-1.587,4.732,4.732,0,0,1,.9-2.28,4.565,4.565,0,0,1,2.948-1.878,4.827,4.827,0,0,1,5.712,4,4.644,4.644,0,0,1-.564,3.077c-.6,1.076-1.231,2.141-1.849,3.211-.1.178-.205.358-.324.565h3.6a1.251,1.251,0,0,1,.142,0,.355.355,0,0,1,.341.262c.093.336.186.671.269,1.009a.356.356,0,0,1-.26.409.351.351,0,0,1-.427-.225c-.059-.179-.1-.365-.148-.546-.015-.057-.033-.113-.051-.176h-1.751v3.226l2.9,1.2a1.112,1.112,0,0,0-.014-.151c-.034-.138-.074-.274-.107-.411a.832.832,0,0,1-.028-.174.352.352,0,0,1,.671-.15,1.964,1.964,0,0,1,.085.288q.142.531.28,1.061a.359.359,0,0,1-.191.49.165.165,0,0,0-.024.025Zm.617-.724c.285.031,5.229.019,5.346-.009l-2.236-2.237H2340.9A20.027,20.027,0,0,0,2340.333,722.362Zm4.3-2.257c-.037,0-.075.006-.106.009l2.26,2.256H2352l.013-.022-.584-.243q-2.31-.956-4.62-1.908l-.156.258-.2-.348q-.456,0-.913,0Zm5.052.5v-2.923h-1.4l-.27.466-.823,1.425Zm-8.594-1.219h4.955c-.332-.575-.656-1.136-.981-1.7h-3.522C2341.39,718.251,2341.241,718.813,2341.089,719.385Zm4.21-12.434a4.017,4.017,0,0,0-2.454,2.38,3.884,3.884,0,0,0-.249,2.053,4.429,4.429,0,0,0,.573,1.589q1.707,2.947,3.406,5.9c.025.044.055.087.091.144.032-.049.06-.086.084-.124q1.724-2.986,3.449-5.972a4.069,4.069,0,0,0,.529-2.712,4.023,4.023,0,0,0-1.033-2.157,3.975,3.975,0,0,0-2.634-1.31q-.209-.02-.414-.021A3.969,3.969,0,0,0,2345.3,706.951Zm7.478,12.9a.359.359,0,0,1,.352-.365.359.359,0,0,1,.012.718h0A.352.352,0,0,1,2352.777,719.846Zm-6.151-6.71a2.383,2.383,0,1,1,.005,0Zm-1.657-2.394a1.66,1.66,0,1,0,1.669-1.649h-.005A1.658,1.658,0,0,0,2344.97,710.743Z" transform="translate(-2339.475 -706)" stroke="rgba(0,0,0,0)" stroke-miterlimit="10" stroke-width="1" fill="url(#linear-gradient)"/>
    </g>
  </g>
</svg>
